<svg xmlns="http://www.w3.org/2000/svg" width="558.438" height="138.049" viewBox="0 0 558.438 138.049"><path fill="#fff" d="M45.576 19.984c0 .832-.67 1.502-1.503 1.502-.83 0-1.5-.67-1.5-1.502 0-.83.67-1.505 1.5-1.505.834 0 1.503.674 1.503 1.504zm4.48 2.227c0 .738.6 1.337 1.334 1.337.738 0 1.334-.6 1.334-1.336 0-.737-.596-1.335-1.334-1.335-.735 0-1.335.598-1.335 1.336zm-5.983-.312c-.745 0-1.354.606-1.354 1.354 0 .75.606 1.355 1.353 1.355.75 0 1.354-.604 1.354-1.355 0-.748-.604-1.354-1.354-1.354zm0-7.48c-.986 0-1.786.798-1.786 1.784 0 .992.8 1.79 1.786 1.79.985 0 1.79-.798 1.79-1.79 0-.986-.803-1.784-1.79-1.784zm7.445 4.06c0 .74.6 1.338 1.334 1.338.736 0 1.337-.6 1.337-1.337 0-.734-.602-1.332-1.338-1.332-.736 0-1.334.596-1.334 1.33zm4.49-3.727c0-.737-.593-1.337-1.333-1.337-.734 0-1.334.6-1.334 1.338 0 .735.6 1.333 1.335 1.333.74 0 1.334-.597 1.334-1.332zM41.094 29.13c-.07-.157-.124-.29-.16-.402v-.016c-.034-.112-.05-.21-.054-.293.003-.117.04-.25.16-.37.24-.253.818.076 1.035.24.063.05.182.152.306.248l.195.182c.392.325.262-.027.1-.4v-.01c-.117-.283-.192-.5-.244-.677-.02-.076-.045-.153-.06-.237-.044-.2-.046-.328-.056-.457 0-.046.006-.09.01-.13.005-.016.005-.027.01-.044.06-.3.292-.422.87-.036.284.188-.095-1.007.695-1.39.15-.07.265-.047.353 0 .774.43.407 1.578.694 1.39.562-.373.802-.265.872.016.008.03.013.062.02.09v.016c.003.036.004.064.003.09-.02.243-.014.504-.328 1.287-.178.404-.36.843.06.492.058-.052.108-.1.166-.15.132-.103.272-.227.345-.278.213-.164.793-.493 1.033-.24.113.12.15.245.157.36h-.002c-.005.173-.066.405-.214.72-.158.34.805-.093 1.16.83.042.104.065.236 0 .425-.317.937-1.317.485-1.16.826.726 1.564-.713 1.052-1.166.73 0 0-.854-.525-.99-.218-.207.466-.126 1.115.08 1.665h-1.816c.206-.55.29-1.2.08-1.665-.134-.31-.988.218-.988.218-.453.32-1.896.834-1.164-.73.157-.34-.845.11-1.165-.827-.06-.19-.04-.32 0-.426.356-.927 1.32-.493 1.163-.835zm2.105.903c0 .484.392.875.875.875.486 0 .88-.39.88-.875s-.394-.88-.88-.88c-.483 0-.875.394-.875.88zM30.046 40.98h28.186l.608-1.758H29.332l.714 1.758zM48.93 25.945c0 .733.602 1.332 1.335 1.332.736 0 1.333-.6 1.333-1.332 0-.74-.597-1.338-1.333-1.338-.734 0-1.334.598-1.334 1.338zm10.18 12.603H28.99l-1.702-4.423H60.81l-1.7 4.423zm-26.332-2.256c-.026-.52-.405-.936-.843-.91-.438.023-.77.47-.742 1 .026.52.407.93.847.906.43-.02.765-.468.738-.996zm7.768.045c0-.526-.425-.955-.955-.955-.522 0-.954.43-.954.955 0 .525.432.95.955.95.53.002.956-.424.956-.95zm8.863 0c0-.526-.43-.955-.957-.955-.526 0-.955.43-.955.955 0 .525.43.95.955.95.528.002.956-.424.956-.95zm7.496.044c.028-.53-.305-.975-.74-.998-.438-.023-.815.39-.842.91-.028.525.302.976.742.996.435.024.81-.384.84-.907zm5.046-6.513c.257 0 .422.142.477.347l.988-2.404c-.03.013-.055.024-.088.045-.294.152.354-.8-.156-1.155-.06-.04-.143-.064-.297 0-.77.316-.817 1.31-.996 1.155-.365-.32-.592-.22-.733.027-.008.013-.016.024-.02.036-.02.035-.035.072-.05.11-.027.103-.066.21-.09.38-.014.062-.016.127-.02.195-.01.145-.015.325-.004.562v.01c.02.31.02.602-.206.332-.038-.05-.067-.098-.107-.153-.07-.075-.14-.163-.183-.204-.126-.137-.508-.412-.783-.2-.135.1-.207.208-.242.31-.024.068-.04.148-.05.244v.01c-.007.096-.005.207.008.336.018.186-.265.102-.616.23-.007 0-.015.004-.02.008-.188.067-.39.192-.582.454-.065.084-.125.19-.128.353-.017.783.952.405.72.687-1.084 1.31.27.88.743.61 0 0 .87-.437.893-.185.03.393-.234.93-.575 1.388h1.284l.97-2.352c-.195.173-.436.284-.67.284-.403 0-.61-.324-.46-.727.14-.407.588-.733.992-.733zm-16.36-4.004c.147-1.94.73-8.72 2.705-13.04.34-.743.87-.885 1.154-.903 1.035-.08 2.014 1.304 2.282 1.725.092.146.113.31.092.47.718-1.335 1.26-2.14 1.426-2.37.312-.44 1.21-1.178 2.398-.81l.224.072c1.405.435 5.13 1.595 7.127 4.087 2.424 3.025 3.016 6.244 1.76 9.562-.214.57-.484 1.256-.782 1.998-.07-.177-.19-.34-.386-.478-.15-.1-.312-.15-.49-.15-.115 0-.236.025-.363.074.282-.71.546-1.377.754-1.927 0-.004 0-.008.004-.012-.33-.714-.703-1.363-1.107-1.95-.514 1.044-1.085 2.244-1.655 3.53.34.383.68.8 1.02 1.245-.012.017-.02.032-.033.053-.062-.016-.125-.023-.19-.023-.166 0-.324.05-.47.133-.204-.262-.41-.515-.612-.746-.27.613-.532 1.252-.786 1.89-.108.032-.21.085-.298.153-.21.16-.363.355-.452.582l-.005.012-.007.02c-.04.107-.062.228-.075.36-.098.023-.206.064-.32.11.462-1.243.953-2.478 1.47-3.657-.832-.89-1.64-1.586-2.382-2.13-.397.97-.796 2.02-1.185 3.133-.087-.25-.257-.44-.497-.53.377-1.055.762-2.06 1.145-2.984-1.075-.728-1.958-1.13-2.455-1.316-.432 1.156-.85 2.412-1.23 3.744-.128.173-.224.354-.285.52-.07-.012-.135-.02-.198-.02-.413 0-.752.248-.91.666l-.02.06c-.028.09-.044.15-.058.222l-.002.023-.006.022-.006.047c-.008.103-.024.24-.02.43-.122-.048-.263-.072-.398-.084 1.78-7.524 4.862-12.954 5.942-14.704-.795-.31-1.49-.53-1.934-.67l-.233-.068c-.543-.173-.872.285-.878.29-.185.265-1.854 2.695-3.558 7.05-1 2.553-1.928 5.285-2.693 9.322-.082-.044-.167-.08-.248-.11.116-.48.128-1.507-.783-1.44.14-.645.237-1.12.348-1.593l-.52-.062c-.002.005-.002.013-.002.017-.006.133-.062.533-.21 1.638-.09.013-.177.03-.265.06.325-1.46-.45-1.775-.845-1.542zm13.535-6.994c-1.054-.775-1.998-1.253-2.548-1.503-.563 1.156-1.165 2.52-1.757 4.07.524.19 1.41.59 2.485 1.3.633-1.48 1.253-2.777 1.82-3.868zm2.832 2.755c-.735-.955-1.54-1.742-2.313-2.36-.562 1.088-1.178 2.368-1.803 3.846.747.546 1.565 1.24 2.407 2.12.597-1.324 1.188-2.553 1.71-3.605zm1.833-2.147c-.277.522-.646 1.217-1.07 2.063.378.522.728 1.097 1.058 1.718.332-1.274.338-2.54.013-3.78zm-2.087-3.808c-.386.594-1.007 1.604-1.75 3.002.773.608 1.577 1.372 2.33 2.307.54-1.06.977-1.88 1.23-2.35-.348-.913-.87-1.81-1.576-2.69-.074-.093-.155-.182-.234-.27zm-3.045-2.15c-.34.55-1.006 1.677-1.8 3.267.58.257 1.52.73 2.578 1.488.78-1.453 1.426-2.496 1.802-3.074-.757-.69-1.68-1.24-2.58-1.68zm-9.295.248l.964.236c-.272-.345-.572-.638-.745-.718-.013.022-.03.056-.05.096-.06.13-.118.257-.17.386zm-.53 1.386l2.18.537c.128-.265.257-.524.382-.767l-2.277-.562c-.1.26-.194.523-.285.794zm-.447 1.435l1.982.492c.124-.28.245-.55.365-.808l-2.103-.518c-.08.28-.166.552-.244.833zm-.36 1.408l1.77.43c.107-.257.21-.51.315-.755l-1.892-.47-.192.795zm-.3 1.388l1.576.316c.083-.213.152-.418.235-.627l.02-.05-1.673-.402c-.057.257-.11.51-.16.763zm-.257 1.417l1.338.248c.083-.243.18-.492.27-.74l-1.466-.294c-.052.27-.098.53-.14.787zm-.21 1.4l1.1.192c.075-.245.162-.493.244-.733l-1.23-.23c-.04.265-.078.523-.113.77zm-.174 1.43l.868.115c.068-.245.14-.494.213-.738l-.986-.173-.094.795zm-.133 1.415l.63.08c.065-.258.122-.51.19-.758l-.756-.104c-.025.302-.05.562-.064.782zM26.68 31.324c-.23 0-.472-.11-.67-.285.42 1.02.798 1.923.973 2.352h1.282c-.336-.457-.603-.995-.568-1.388.02-.253.886.185.886.185.475.27 1.83.697.75-.61-.236-.28.73.097.714-.688-.003-.16-.062-.27-.128-.353-.194-.263-.396-.388-.58-.455-.01-.005-.016-.01-.022-.01-.354-.126-.637-.042-.614-.228.01-.13.01-.24.004-.337v-.01c-.007-.095-.022-.175-.046-.243-.04-.102-.11-.21-.246-.31-.272-.212-.656.063-.782.2-.043.04-.107.13-.18.204-.042.06-.07.105-.11.154-.227.27-.227-.023-.206-.333v-.008c.013-.236.007-.418-.003-.562-.006-.068-.01-.133-.018-.195-.026-.17-.062-.277-.09-.38-.02-.038-.034-.075-.053-.11l-.02-.036c-.145-.25-.37-.35-.734-.028-.18.152-.227-.84-.995-1.155-.156-.064-.234-.04-.298 0-.514.356.14 1.31-.153 1.155-.033-.02-.062-.032-.09-.045.276.675.634 1.545.987 2.404.058-.204.222-.346.48-.346.4 0 .848.326.992.73.15.406-.06.73-.46.73zm10.03-7.777c.736 0 1.333-.6 1.333-1.336 0-.737-.597-1.335-1.333-1.335-.74 0-1.336.598-1.336 1.336 0 .74.597 1.337 1.336 1.337zm1.125 3.73c.737 0 1.333-.6 1.333-1.332 0-.74-.596-1.338-1.333-1.338-.74 0-1.336.598-1.336 1.338 0 .733.596 1.332 1.335 1.332zm-2.587-7.46c.737 0 1.333-.6 1.333-1.338 0-.734-.595-1.332-1.332-1.332-.738 0-1.337.598-1.337 1.33 0 .74.6 1.338 1.338 1.338zm-3.69 9.583c-.19-.293-.29-.515-.318-.672-.02-.11 0-.23.084-.34.185-.236.774.066 1.005.22v.005c.08.053.23.164.37.26l.178.142h.002c.285.21.293.12.203-.063-.028-.057-.062-.12-.103-.188-.038-.067-.082-.142-.128-.208h-.002c-.423-.734-.46-.98-.52-1.204-.004-.024-.008-.053-.01-.084v-.013c-.004-.028 0-.057 0-.088.02-.266.227-.365.815-.014.297.178-.23-.9.42-1.3.077-.048.175-.07.334 0 .8.357.645 1.478.88 1.3.205-.156.365-.22.487-.225.007 0 .013-.004.018-.004.002 0 .004.004.007.004.073 0 .13.023.18.064.004 0 .007.008.01.012.052.04.09.1.116.177.01.018.012.033.02.045.012.04.022.085.03.125.014.116.03.236.023.426-.003.075-.01.147-.02.22-.018.17-.054.37-.113.64 0 .004 0 .004-.003.004v.016-.004c-.08.317-.136.604.087.426.023-.017.045-.03.072-.06.057-.057.102-.108.155-.165.097-.09.19-.193.245-.236.03-.023.07-.057.112-.088.01-.005.018-.014.027-.02.096-.06.206-.123.327-.167.015 0 .027-.004.04-.008.058-.02.11-.028.162-.028h.02c.09 0 .174.02.24.084.128.113.188.232.208.348.013.075.014.168.002.27 0 .01-.002.013-.004.013-.01.113-.035.234-.078.384-.09.32.74-.09 1.23.777.053.1.094.218.07.397-.147.884-1.162.457-.955.774.457.71.353.965.068 1.004-.015 0-.03 0-.052.004H37.456c-.065-.004-.14-.012-.218-.027-.01-.003-.02-.007-.03-.007-.077-.02-.16-.04-.24-.072-.005 0-.013-.003-.02-.003-.08-.032-.16-.064-.23-.102-.005 0-.007 0-.01-.004-.074-.034-.144-.07-.197-.106 0 0-.172-.092-.368-.172-.253-.104-.552-.193-.593-.028-.12.44.063 1.047.35 1.56h-1.702c.102-.513.074-1.117-.2-1.56-.178-.29-.89.2-.89.2-.373.302-1.643.787-1.215-.683.093-.316-.77.11-1.226-.773-.093-.18-.093-.3-.072-.396.19-.87 1.165-.46.962-.78zm2.03.846c.08.45.513.822.967.822.456 0 .76-.373.68-.822-.08-.46-.516-.827-.97-.827-.455-.002-.756.367-.676.826zm1.17-15.495c0-.737-.595-1.337-1.333-1.337-.74 0-1.336.6-1.336 1.338 0 .735.595 1.333 1.335 1.333.738 0 1.334-.597 1.334-1.332zm103.064 73.604c-.868 0-1.616-.082-2.29-.223-.103.067-.182.138-.206.192-.167.41.09.855.23.992.458.457 2.838 1.752 7.588 1.752 3.938 0 14.15-2.504 14.15-13.916 0-6.18-1.692-9.2-5.714-11.674-4.008-2.468-12.152-2.082-12.152-2.082l-22.88-.01c-1.022.015-2.114.267-2.373.804-.035.076-.056.16-.056.245 0 .1.013.185.043.257.008.028.022.053.04.08.02.04.036.085.062.12.176-.02.346-.026.522-.026 1.924 0 3.626.927 4.705 2.352l.02.016c.003.008.003.008.006.008.015.02.18.237.185.246.025.04.473.846.5.906.288.646.458 1.347.5 2.087.147 1.144.204 2.558.204 4.33v24.497c0 1.898-.062 3.38-.243 4.562-.063 1.003-.377 1.93-.875 2.735-.004 0-.004 0-.006.004-.09.145-.544.745-.606.817-1.083 1.225-2.665 2-4.427 2-.194 0-.382-.016-.57-.03-.036.085-.06.175-.06.286 0 .723 1.29 1.05 2.49 1.05.266 0 .513-.02.69-.046.15-.03 5.722-.746 8.457-.807 2.91.06 5.752.332 8.474.807.184.027.43.047.695.047.782 0 1.6-.145 2.074-.445.247-.155.413-.356.413-.605 0-.11-.023-.2-.058-.285-.195.016-.396.027-.598.027-3.155 0-5.73-2.482-5.896-5.6-.17-1.18-.232-2.645-.232-4.518v-.548l-.003-.023v-1.507l.01-28.25c.064-.987.88-1.772 1.88-1.772h6.835c7.54 0 8.852 6.854 8.93 9.932 0 0 .05.525.05.703 0 5.8-4.706 10.51-10.508 10.51zm221.438 43.418c0-.844-.055-1.54-.17-2.096-.115-.55-.294-.982-.532-1.305-.245-.32-.546-.548-.915-.677-.37-.123-.8-.188-1.303-.188-.803 0-1.47.227-2.01.686-.534.454-.924 1.052-1.164 1.786-.08-.506-.21-.92-.382-1.244-.174-.318-.39-.572-.644-.754-.253-.184-.528-.31-.823-.37-.297-.067-.604-.103-.925-.103-.77 0-1.404.223-1.922.664-.516.44-.883.978-1.098 1.608h-.02v-2.273h-.504c-.43.068-.87.156-1.314.27-.453.114-.895.265-1.318.454v.52l1.324.164v7.896c-.236.066-.472.145-.7.22-.23.085-.437.175-.626.267v.502h4.322v-.5c-.185-.107-.375-.197-.568-.273-.192-.076-.4-.145-.614-.21v-5.91c.08-.282.188-.552.334-.806.14-.255.305-.48.5-.685.19-.2.414-.357.667-.48.245-.123.516-.186.812-.186.39 0 .704.08.942.228.242.156.427.377.555.67.127.28.213.646.26 1.072.052.43.07.91.07 1.45v4.642c-.27.068-.498.145-.694.232-.188.088-.358.168-.487.254v.5h4.302v-.5c-.405-.19-.84-.352-1.308-.486v-5.707c.158-.686.417-1.248.772-1.69.355-.442.855-.663 1.5-.663.396 0 .723.07.963.213.24.14.434.34.562.602.137.262.23.582.27.955.047.377.073.803.073 1.29v5.003c-.394.107-.79.27-1.188.484v.5h4.32v-.5c-.424-.24-.87-.4-1.323-.485l.003-5.043zm-18.4-4.263h-.5c-.43.075-.868.18-1.317.3-.445.123-.88.26-1.3.424v.52l1.312.165v5.524c-.23.7-.547 1.27-.957 1.7-.41.435-.913.655-1.52.655-.414 0-.76-.08-1.022-.233-.27-.156-.48-.373-.632-.654-.154-.28-.265-.63-.323-1.043-.06-.418-.094-.887-.094-1.408 0-.982.02-1.967.062-2.957.04-.986.062-1.99.062-2.996h-.506c-.43.075-.867.18-1.318.3-.447.123-.89.26-1.316.426v.52l1.328.165c0 .8-.02 1.608-.062 2.42s-.06 1.64-.06 2.483c0 .832.073 1.52.22 2.062.148.54.365.973.646 1.297.278.32.626.55 1.035.674.407.125.88.19 1.42.19.4 0 .772-.08 1.116-.228.34-.14.646-.334.91-.566.272-.236.49-.496.657-.78.166-.294.283-.58.353-.862h.085l.136 2.398h.502c.43-.072.843-.17 1.238-.307.39-.132.782-.288 1.178-.46v-.426l-1.33-.156v-9.15zm36.095-15.81c2.287 0 4.48-.4 5.98-1.293.593-.354 1.634-.816 2.58-2.094.62-.836.48-1.293.353-1.52-.05-.09-.27-.27-.346-.308-.008-.004-.148.182-.377.37-1.27 1.054-5.462 2.145-9.11-1.257-1.275-1.186-5.65-5.64-5.65-5.64l-8.684-9.347c.59-.056 1.207-.257 1.474-.345 4.358-1.45 9.393-5.014 9.393-13.02 0-2.946-.39-5.175-1.23-6.964-.92-1.97-2.385-3.418-4.486-4.71-2.46-1.513-6.47-1.954-9.204-2.065-1.724-.072-2.946-.018-2.946-.018l-22.884-.004c-1.02.008-2.11.266-2.37.8-.033.08-.058.16-.058.253 0 .035.012.063.02.097.005.056.01.106.022.155.01.027.024.05.038.08.022.04.038.076.066.112.173-.016.345-.024.52-.024 1.93 0 3.63.93 4.71 2.353.005.003.017.012.02.02 0 .005.004.005.004.005.012.023.177.235.18.245.033.04.48.847.503.91.29.643.464 1.345.502 2.082.152 1.145.205 2.562.205 4.33v24.504c0 1.896-.066 3.375-.243 4.56-.062 1.005-.38 1.93-.875 2.735l-.007.005c-.092.146-.546.748-.604.82-1.085 1.223-2.666 1.996-4.428 1.996-.192 0-.387-.01-.573-.026-.033.086-.062.174-.062.28 0 .042.02.073.026.108.112.586 1.113.887 2.154.938.49.033.95.018 1.244-.033.426-.074.854-.133 1.282-.195 1.354-.164 3.377-.39 5.104-.52.63-.03 1.256-.057 1.89-.072 2.754.06 5.503.31 8.266.787.33.06.854.076 1.402.018.02 0 .036-.004.055-.008.137-.01.266-.027.394-.055.273-.047.538-.12.776-.22l.072-.032c.074-.03.155-.062.22-.104.037-.023.065-.05.103-.076.188-.146.312-.316.312-.533 0-.102-.024-.182-.05-.266-.005-.003-.005-.013-.005-.02-.132.012-.263.018-.394.02-3.06-.11-5.52-2.544-5.676-5.59-.175-1.177-.235-2.645-.235-4.515v-.547l-.004-.023v-1.51l.013-28.246c.063-.988.874-1.772 1.878-1.772h6.408c7.537 0 8.85 6.85 8.93 9.925 0 0 .046.525.046.7 0 3.384-1.604 6.382-4.092 8.3-1.077.836-2.317 1.46-3.67 1.826-.814.22-1.66.354-2.538.372-.77-.014-2.1-.08-2.704-.21-.03.017-.2-.083-.43 0-.084.028-.13.093-.165.142-.013.02-.037.035-.045.053-.048.13-.054.252-.042.377.014.107.046.21.084.303.072.205.18.38.283.484l15.123 16.01s5.438 6.01 11.415 6.097c.045 0 .09.013.137.013zm-47.64 17.81c.22.487.333 1.1.333 1.815 0 .232-.012.463-.03.7-.02.23-.06.483-.114.753h-6.268c0 .562.066 1.088.208 1.576.143.49.352.914.63 1.275.285.36.64.645 1.065.853.43.21.937.314 1.51.314.47 0 .945-.064 1.427-.2.484-.138.845-.313 1.086-.522l.283.316c-.106.23-.275.442-.504.644-.23.205-.49.377-.786.525-.293.144-.614.265-.962.353-.347.09-.708.133-1.065.133-.793 0-1.487-.127-2.096-.373-.602-.248-1.104-.604-1.505-1.07-.404-.46-.71-1.012-.916-1.652-.212-.645-.312-1.368-.312-2.17 0-1.72.396-3.024 1.188-3.927.79-.898 1.91-1.346 3.354-1.346.473 0 .933.062 1.39.188.458.13.86.34 1.22.637.352.298.64.687.86 1.177zm-1.557 1.696c0-.854-.16-1.54-.483-2.05-.32-.513-.827-.765-1.508-.765-.768 0-1.352.26-1.75.774-.402.518-.646 1.43-.73 2.725h4.43c.015-.12.022-.235.028-.355.005-.108.013-.216.013-.33zm-54.336-1.697c.22.487.33 1.1.33 1.815 0 .232-.008.463-.026.7-.02.23-.06.483-.115.753h-6.27c0 .562.068 1.088.208 1.576.143.49.354.914.637 1.275.278.36.635.645 1.062.853.432.21.935.314 1.51.314.473 0 .944-.064 1.428-.2.482-.138.847-.313 1.087-.522l.282.316c-.106.23-.277.442-.507.644-.226.205-.486.377-.78.525-.295.144-.62.265-.968.353-.35.09-.705.133-1.063.133-.79 0-1.487-.127-2.092-.373-.604-.248-1.104-.604-1.508-1.07-.4-.46-.708-1.012-.915-1.652-.21-.645-.313-1.368-.313-2.17 0-1.72.396-3.024 1.187-3.927.79-.898 1.908-1.346 3.36-1.346.47 0 .93.062 1.384.188.457.13.866.34 1.223.637.347.298.636.687.86 1.177zm-1.558 1.696c0-.854-.163-1.54-.484-2.05-.32-.513-.824-.765-1.51-.765-.763 0-1.344.26-1.75.774-.4.518-.642 1.43-.724 2.725h4.424c.015-.12.026-.235.032-.355.008-.108.012-.216.012-.33zm18.92 1.674l-.683 2.105h-.02l-.685-2.07-3.5-9.19h-4.123v.587c.27.107.544.203.816.293.273.088.557.156.833.21v11.907c-.275.05-.56.12-.832.21-.272.087-.54.183-.794.286v.586h4.2v-.586c-.256-.105-.513-.2-.766-.28-.25-.08-.51-.144-.763-.2v-9.047l-.02-2.552h.182l.727 2.348 3.92 10.318h.522l4.12-10.318.665-2.15h.164l-.08 2.355v9.048c-.28.072-.557.14-.825.213-.27.077-.535.165-.806.27v.587h4.948v-.586c-.23-.103-.466-.19-.72-.27-.243-.07-.51-.136-.79-.19v-11.943c.266-.055.528-.12.78-.21.258-.09.51-.185.747-.294v-.586h-3.605l-3.61 9.153zm27 0c-.36-.27-.75-.516-1.16-.723-.402-.217-.793-.438-1.152-.656-.36-.226-.662-.458-.895-.728-.235-.262-.354-.57-.354-.932 0-.178.032-.352.104-.52.064-.173.16-.33.29-.466.127-.135.28-.246.464-.33.184-.094.393-.133.636-.133.214 0 .417.013.618.032.202.018.387.062.545.13l.764 2.054h.504c.137-.457.237-.906.312-1.34.075-.434.14-.867.19-1.3-.43-.147-.874-.265-1.336-.34-.463-.085-1.058-.12-1.78-.12-.43 0-.832.062-1.205.188-.383.13-.707.31-.988.523-.28.22-.506.484-.676.795-.167.31-.25.646-.25 1.002 0 .555.115 1.018.354 1.39.235.378.532.712.896 1 .363.288.748.538 1.155.755.412.214.798.435 1.16.66.356.23.66.476.892.733.236.266.357.578.357.955 0 .457-.188.848-.547 1.164-.363.324-.838.484-1.43.484-.176 0-.364-.004-.573-.02-.21-.012-.39-.076-.533-.184l-.883-2.188h-.503c-.146.412-.27.842-.363 1.295-.092.444-.152.915-.18 1.395.523.186 1.024.334 1.512.43.478.104 1.01.156 1.585.156.512 0 .99-.07 1.438-.216.445-.137.84-.334 1.188-.59.34-.258.61-.564.804-.928.192-.357.29-.77.29-1.23 0-.49-.115-.912-.353-1.27-.238-.348-.535-.662-.895-.926zm-11.56-22.205c5.69 0 12.22-1.146 12.22-10.072 0-2.012-.444-3.926-1.373-5.943-.11-.24-.402-.45-.737-.45-.14 0-.354.09-.354.09s.117.425.174 1.208c.497 6.955-5.522 11.256-12.164 11.256-.034 0-7.557.27-9.884-.408-1.644-.48-2.582-1.283-3.05-2.62l-.05-.177c-.185-.772-.293-1.655-.348-2.737l-.04-2.137-.002-8.45c.148-1.065.68-1.71 1.47-1.84v-.026h1.045c2.05 0 3.29 0 4.844 1.55 1.26 1.265 1.858 2.337 2.3 3.118.253.445.443.8.68 1.02.468.48 1.278.33 1.278-.794 0-.656-.102-1.984-.196-3.273-.103-1.356-.21-2.77-.21-3.515s.107-2.154.21-3.52c.097-1.285.196-2.617.196-3.28 0-1.118-.812-1.26-1.28-.788-.232.23-.425.576-.678 1.02-.44.784-1.04 1.858-2.306 3.118-1.553 1.555-2.79 1.555-4.837 1.555h-.728c-.97 0-1.62-.662-1.782-1.814l-.004-3.775.002-4.235c0-6.966 0-7.536 5.333-7.536h6.974c.715 0 1.35.003 1.937.043.037 0 .067-.004.102-.004 4.513 0 8.175 3.61 8.27 8.096.62.234 1.35-.12 1.35-1.34 0-2.094-.562-9.217-.572-9.29-.008-.145-.14-1.385-1.43-1.385h-17.347c-.247-.012-.438-.007-.614 0h-17.69c-.11-.007-.215-.007-.32-.007-1.2 0-2.49.33-2.49 1.05 0 .198.058.352.16.48.17-.018.347-.028.523-.028 1.924 0 3.63.923 4.708 2.348.278.33.508.706.69 1.16.288.645.46 1.344.5 2.082.15 1.143.205 2.56.205 4.33l.006 12.25-.005 12.252c0 1.895-.064 3.375-.242 4.56-.197 3.087-2.757 5.532-5.894 5.532-.2 0-.397-.01-.588-.028-.04.09-.063.19-.063.312 0 .723 1.29 1.05 2.49 1.05.263 0 .512-.017.69-.048 2.698-.48 5.54-.746 8.458-.81l.61.017c4.036.025 7.96.242 11.753.457 2.947.168 4.574.322 7.12.367.315.008.643.008.985.008zM52.49 29.075c.22.176.164-.117.085-.44-.002 0-.002 0-.002-.003-.062-.27-.1-.47-.116-.64-.01-.07-.016-.145-.02-.22-.008-.19.012-.31.023-.426l.03-.125.016-.043c.028-.076.07-.137.12-.182 0 0 .002-.008.006-.008.05-.04.11-.063.185-.063.004 0 .004-.004.008-.004.003 0 .01.004.016.004.124.004.283.067.492.226.233.176.077-.942.88-1.3.156-.073.25-.05.332 0 .652.395.122 1.476.42 1.3.59-.354.797-.252.817.012.004.033.004.06.004.09 0 0-.003.007-.003.012-.002.03-.005.06-.012.084-.058.225-.1.47-.52 1.204h-.002c-.04.063-.08.132-.118.192l-.01.022c-.04.063-.074.13-.102.18-.09.187-.084.274.203.065l.18-.14c.142-.096.293-.21.37-.262 0-.004.003-.004.003-.004.23-.152.82-.457 1.005-.22.085.11.1.228.085.34h-.004c-.028.157-.126.378-.316.67-.204.32.77-.088.95.78.022.096.022.216-.07.396-.454.883-1.313.457-1.223.773.426 1.47-.84.982-1.213.682 0 0-.713-.488-.892-.2-.272.44-.303 1.048-.2 1.562h-1.7c.285-.514.468-1.12.35-1.56-.04-.16-.32-.08-.573.02-.208.08-.39.18-.39.18-.055.036-.123.072-.195.108-.005.004-.007.004-.01.004-.074.035-.15.067-.232.097-.008.004-.014.008-.02.008-.08.03-.158.053-.238.072-.01 0-.02.004-.028.008-.077.017-.15.023-.222.027h-.04c-.02-.004-.037-.004-.054-.004h-.003c-.28-.04-.382-.293.074-1.003.207-.317-.81.108-.952-.774-.028-.18.014-.3.066-.395.49-.867 1.318-.458 1.227-.777-.04-.148-.064-.27-.077-.383l-.002-.012c-.01-.104-.01-.196.002-.27.023-.114.077-.234.208-.348.07-.063.154-.084.24-.084H51.346c.054 0 .106.01.162.03.016.003.025.007.043.007.06.02.114.048.168.072.003.003.007.003.012.007.053.023.1.056.146.084.01.01.02.018.034.024.038.028.08.062.106.084.056.045.147.148.244.237.058.056.104.108.156.164.027.032.046.047.074.064zm.375 1.17c-.08.45.224.823.68.823.453 0 .886-.373.966-.822.083-.46-.223-.827-.677-.827-.454-.002-.887.367-.968.826zM378.978 136.72l1.096.582v.5h-2.448l-.765-.562c-.374-.47-.717-.93-1.024-1.375-.305-.455-.598-.906-.862-1.373-.27-.46-.522-.928-.75-1.404-.24-.48-.48-.98-.72-1.518h-1.896v5.164c.31.072.604.143.885.213.28.076.554.166.823.27v.586h-5.29v-.586c.296-.13.578-.23.843-.297.272-.066.54-.127.807-.186V124.81c-.35-.068-.654-.145-.924-.23-.27-.09-.512-.18-.726-.27v-.586h1.77c.536 0 1.126-.023 1.77-.08.635-.053 1.257-.08 1.862-.08.65 0 1.27.07 1.842.227.567.146 1.062.378 1.48.698.42.324.746.732.978 1.23.234.497.354 1.095.354 1.794 0 .977-.258 1.787-.777 2.434-.52.643-1.224 1.104-2.104 1.385.57.91 1.178 1.82 1.81 2.718.63.898 1.282 1.78 1.965 2.672zm-3.72-6.916c.547-.584.814-1.354.814-2.316 0-.984-.29-1.713-.865-2.18-.58-.465-1.322-.697-2.23-.697-.32 0-.587.005-.795.022-.21.012-.397.04-.572.076v5.977h1.443c.93-.002 1.66-.295 2.204-.88zm62.09-55.518l-.013 8.826c.003.02.013.053.013.08.004.05.027.104.042.15v.076l-.002 3.717.002 2.576c-.026.085-.062.16-.068.25l.006 9.39v.178c.004.404.006.795.013 1.164.007.168.015.312.02.47.007.25.015.497.027.73.008.16.02.306.028.456.014.21.025.422.042.62.018.14.032.27.048.407.024.22.052.44.082.643.03.266.06.53.12.783 0 .005.003.01.003.013.43 1.99 1.854 3.61 3.73 4.307.014.004.023.014.037.018.273.096.556.168.847.225.068.018.14.033.213.04.31.052.622.085.945.085.188 0 .373-.012.554-.027h.023c.02.044.02.097.025.147.004.018.015.025.02.04 0 .024.007.05.007.077v.02c0 .05-.02.102-.032.148-.048.188-.185.35-.394.48-.174.107-.41.19-.666.262-.056.018-.11.023-.166.03-.004.01-.01.01-.017.01-.098.02-.192.036-.3.05-.288.05-.59.092-.895.092-.245 0-.476-.02-.646-.045l-.046-.01c-.084-.005-.16-.02-.23-.028-.347-.057-.69-.11-1.035-.16-.092-.01-.188-.02-.278-.037.508.076 1.01.148 1.507.236.187.03.43.046.698.046h.076c.28 0 .562-.02.83-.057-.284.048-.577.08-.878.08-.27 0-.52-.015-.696-.044-2.72-.48-5.562-.748-8.472-.81-2.438.052-4.834.267-7.15.608-.344.06-.69.102-1.03.158-.068.016-.146.02-.23.03-.016.005-.03.005-.045.01-.185.03-.432.044-.694.044-.91 0-1.87-.188-2.28-.6-.145-.133-.234-.293-.234-.477 0-.017.003-.02.003-.026.004-.1.022-.184.055-.26h.004c.002-.008.002-.02.006-.02.146.013.293.017.44.02v-.004c.058.008.113.008.17.012.32 0 .634-.037.935-.084.06-.008.12-.023.18-.037.26-.048.513-.114.757-.2.045-.012.087-.025.13-.04.264-.095.52-.216.77-.35.026-.02.057-.026.082-.044.267-.148.516-.316.75-.5.065-.053.123-.104.186-.152.187-.156.365-.33.53-.506.012-.018.022-.023.03-.037.043-.046.083-.095.123-.14.152-.18.288-.365.417-.56.076-.114.146-.235.215-.354.096-.168.188-.342.27-.52.05-.115.09-.23.136-.35.062-.168.116-.346.162-.52.034-.12.07-.236.095-.36.014-.058.018-.114.027-.17.032-.204.062-.405.076-.614.18-1.184.245-2.664.245-4.56l.002-9.284-.002-.11c-.054-.688-.622-1.23-1.324-1.23H409.272c-.646 0-1.162.47-1.282 1.08V99.387c0 1.895.066 3.375.247 4.56.06 1.003.374 1.933.873 2.735 0 0 .003.005.005.005.09.146.186.285.284.422.05.06.1.12.146.182.06.07.117.145.18.218.314.355.678.678 1.072.95.02.013.04.022.062.034.177.117.36.232.554.334.233.115.47.23.723.316.095.035.193.068.296.1.08.023.156.05.244.068.446.107.91.174 1.397.174.063-.006.132-.006.198-.014.133-.004.27-.008.397-.018.006.004.006.014.006.02h.046c.03.077.05.16.055.263 0 .008.003.012.003.023 0 .252-.17.45-.428.605-.015.008-.026.02-.038.027-.02.012-.04.02-.06.03-.05.024-.1.05-.15.07-.106.046-.22.09-.34.126-.04.014-.076.03-.118.037-.007.004-.02.004-.03.004-.045.014-.09.02-.137.03-.115.024-.237.042-.357.063-.285.05-.578.078-.883.078-.266 0-.514-.012-.696-.043-2.72-.48-5.56-.748-8.47-.807-2.436.05-4.832.264-7.146.607-.35.06-.688.102-1.034.156-.068.02-.146.024-.23.034-.01.004-.027.004-.047.008-.182.03-.43.045-.69.045-.91 0-1.87-.19-2.28-.6-.13-.13-.21-.275-.21-.453 0-.008.007-.016.007-.023 0-.01-.008-.017-.008-.02s.003-.008.003-.016c0-.088.02-.172.048-.248v-.02c.046.003.092.003.132.003.1.01.198.013.3.017v-.004c.06.008.115.008.174.012.672-.004 1.316-.123 1.922-.332.014-.01.034-.014.052-.02.277-.103.538-.222.795-.358.028-.02.058-.027.08-.045.275-.15.536-.322.773-.518.054-.04.1-.08.146-.115.2-.172.39-.354.566-.547.048-.053.092-.104.136-.156.152-.18.29-.363.414-.56.078-.114.145-.235.215-.354.096-.168.188-.342.267-.52.054-.115.1-.23.14-.348.063-.17.114-.346.163-.52.03-.122.068-.237.093-.362.012-.057.02-.11.026-.168.033-.205.063-.404.078-.613.18-1.187.246-2.665.246-4.562l.002-9.383v-6.58c.007-.033.02-.062.022-.094l-.002-8.462-.002-.174c0-.408-.006-.8-.014-1.172-.007-.16-.013-.31-.017-.465-.008-.248-.017-.502-.027-.734-.007-.156-.02-.3-.026-.453-.017-.21-.028-.422-.05-.617-.013-.14-.03-.273-.046-.41-.025-.23-.05-.457-.087-.666 0-.02-.004-.035-.008-.057-.02-.2-.046-.4-.094-.597-.002-.02-.01-.045-.01-.068-.005-.035-.01-.067-.02-.1-.16-.71-.452-1.365-.842-1.955-1.056-1.602-2.856-2.665-4.916-2.665-.154 0-.3.013-.45.024-.04 0-.087 0-.132.003-.022-.076-.04-.156-.044-.25 0-.008-.004-.012-.004-.023 0-.004-.004-.004-.004-.008 0-.088.022-.173.056-.244.02-.03.04-.06.066-.093.02-.024.028-.048.05-.072.268-.305.823-.497 1.46-.586.236-.036.485-.056.724-.06.02 0 .032-.006.045-.006l9.26.006 9.266-.005c.012 0 .028.006.04.006.084 0 .168.017.25.02.03.005.06.005.087.01.012 0 .02.003.036.003.165.013.33.03.49.06.187.033.373.072.537.125.008 0 .016.004.022.01.018.003.028.012.044.016.195.064.368.146.508.236.22.153.354.347.354.578 0 .104-.02.196-.054.28-.196-.016-.396-.027-.598-.027-2.063 0-3.875 1.062-4.93 2.67-.005.003-.01.012-.01.016-.008.017-.017.027-.025.043-.537.84-.876 1.814-.933 2.87-.154 1.06-.223 2.36-.232 3.956l-.01 8.826c.006.023.01.05.01.08.006.05.032.104.044.152.056.268.17.52.363.705.236.232.562.38.92.38h17.004c.703 0 1.273-.544 1.325-1.237.002-.03.008-.057.008-.08v.283l.004-.007-.01-9.104c-.01-1.597-.076-2.897-.23-3.956-.004-.11-.024-.227-.04-.338-.02-.164-.037-.32-.074-.473l-.01-.063c-.017-.068-.034-.142-.053-.213-.064-.262-.15-.52-.253-.764-.02-.068-.048-.137-.076-.2-.136-.31-.294-.603-.478-.883-1.055-1.603-2.854-2.665-4.912-2.665-.202 0-.4.012-.594.028-.032-.085-.053-.177-.053-.28 0-.525.68-.844 1.51-.977.02-.004.035 0 .056-.008.023-.005.05-.01.075-.013.236-.036.483-.056.727-.062.018 0 .028-.004.042-.004l9.26.003 9.265-.004c.015 0 .025.003.043.003.04 0 .078.01.12.014.177.004.352.02.52.04.07.012.135.02.198.036.02.004.033.004.05.008h.005c.17.033.333.07.48.112.007 0 .018.005.024.01.01 0 .02.003.024.008.017.004.027.012.044.016.02.008.036.02.057.024.125.048.234.1.332.16.04.02.088.032.12.052.067.05.11.104.16.16 0 .005.003.01.007.01.055.062.094.128.12.195l.005.01c.022.067.06.127.06.203 0 .104-.022.196-.052.28-.2-.017-.396-.027-.6-.027-.317 0-.632.032-.937.08l-.24.05c-.238.05-.473.11-.702.187-.064.022-.132.04-.193.067-.282.104-.56.23-.82.378-.035.02-.067.043-.103.067-.22.132-.434.276-.634.438-.063.047-.127.1-.185.147-.195.168-.374.34-.545.533-.03.032-.065.063-.095.097-.195.225-.37.47-.533.723-.04.063-.073.137-.11.21-.118.2-.227.403-.313.616l-.09.217c-.104.27-.19.543-.252.826-.004.02-.012.035-.017.06-.042.18-.063.365-.088.558-.01.117-.032.225-.04.342-.167 1.07-.233 2.37-.242 3.966zm-11.772 36.246c-.092.018-.188.027-.28.037-.344.05-.687.103-1.03.16-.065.01-.148.022-.23.026l-.043.012c-.173.023-.4.045-.646.045h.027c.27 0 .514-.018.698-.045.494-.087 1-.158 1.504-.236zm1.358 17.737c.162.11.337.198.518.282.175.086.377.148.592.2l-2.145 6.036-.3 1.266h-.042l-.403-1.244-2.322-6.057c.23-.068.436-.145.612-.23.183-.093.36-.18.532-.272v-.507h-4.223v.523c.32.188.68.354 1.068.486l3.92 9.293.905-.244 3.56-9.048c.24-.068.457-.143.654-.22.193-.083.355-.173.49-.27v-.522h-3.42l.004.53zm12.496 1.24c.22.487.327 1.1.327 1.815 0 .232-.008.463-.02.7-.023.23-.063.483-.115.753h-6.272c0 .562.066 1.088.212 1.576.143.49.35.914.635 1.275.28.36.634.645 1.067.853.43.21.93.314 1.51.314.467 0 .94-.064 1.424-.2.48-.138.845-.313 1.087-.522l.28.316c-.107.23-.276.442-.503.644-.23.205-.49.377-.784.525-.295.144-.614.265-.963.353-.354.09-.706.133-1.067.133-.79 0-1.487-.127-2.093-.373-.604-.248-1.104-.604-1.51-1.07-.396-.46-.706-1.012-.912-1.652-.213-.645-.313-1.368-.313-2.17 0-1.72.396-3.024 1.188-3.927.793-.898 1.91-1.346 3.36-1.346.465 0 .932.062 1.39.188.452.13.854.34 1.212.637.352.298.638.687.86 1.177zm-1.556 1.696c0-.854-.162-1.54-.48-2.05-.324-.513-.824-.765-1.516-.765-.763 0-1.345.26-1.745.774-.402.518-.646 1.43-.724 2.725h4.42c.016-.12.024-.235.03-.355.01-.108.014-.216.014-.33zm119.93-.338h-104.65c-.348 0-.63.395-.63.89s.282.89.63.89h104.65c.348 0 .633-.396.633-.89 0-.497-.285-.89-.633-.89zm-160.29 2.012c-.356-.27-.744-.516-1.155-.723-.408-.217-.79-.438-1.154-.656-.36-.226-.66-.458-.893-.728-.24-.262-.357-.57-.357-.932 0-.178.034-.352.104-.52.063-.173.164-.33.295-.466.126-.135.278-.246.46-.33.178-.094.393-.133.633-.133.213 0 .424.013.624.032.205.018.382.062.542.13l.765 2.054h.5c.14-.457.237-.906.313-1.34s.14-.867.192-1.3c-.43-.147-.875-.265-1.337-.34-.467-.085-1.06-.12-1.78-.12-.432 0-.83.062-1.206.188-.376.13-.705.31-.985.523-.28.22-.506.484-.67.795-.17.31-.255.646-.255 1.002 0 .555.118 1.018.354 1.39.23.378.53.712.893 1 .364.288.746.538 1.155.755.408.214.797.435 1.153.66.365.23.667.476.896.733.236.266.355.578.355.955 0 .457-.187.848-.547 1.164-.36.324-.84.484-1.43.484-.174 0-.364-.004-.573-.02-.21-.012-.385-.076-.533-.184l-.883-2.188h-.502c-.148.412-.27.842-.362 1.295-.096.444-.153.915-.18 1.395.52.186 1.023.334 1.51.43.478.104 1.01.156 1.584.156.512 0 .99-.07 1.44-.216.446-.137.844-.334 1.183-.59.345-.258.614-.564.812-.928.187-.357.288-.77.288-1.23 0-.49-.118-.912-.354-1.27-.238-.348-.537-.662-.9-.926zm20.34-5.37c-.364-.04-.717 0-1.06.106-.344.11-.655.275-.944.49-.29.213-.542.46-.765.73-.225.266-.39.53-.514.803h-.075v-2.134h-.505c-.414.066-.854.154-1.31.27-.457.112-.898.265-1.325.452v.52l1.324.165v7.898c-.213.056-.433.116-.644.185-.216.064-.444.164-.684.303v.5h4.745v-.5c-.27-.146-.538-.258-.81-.334-.266-.07-.532-.117-.798-.15v-5.973c.168-.48.364-.847.59-1.097.222-.244.404-.412.555-.488h2.675v-.525c-.068-.23-.14-.44-.21-.652-.07-.21-.154-.397-.247-.57zm-28.506 2c.22.487.333 1.1.333 1.815 0 .232-.013.463-.03.7-.02.23-.06.483-.108.753h-6.272c0 .562.067 1.088.208 1.576.143.49.352.914.637 1.275.28.36.638.645 1.067.853.43.21.93.314 1.507.314.466 0 .937-.064 1.424-.2s.845-.313 1.09-.522l.28.316c-.108.23-.275.442-.502.644-.23.205-.49.377-.786.525-.293.144-.616.265-.968.353-.345.09-.702.133-1.065.133-.788 0-1.486-.127-2.088-.373-.604-.248-1.107-.604-1.51-1.07-.4-.46-.706-1.012-.914-1.652-.204-.645-.312-1.368-.312-2.17 0-1.72.397-3.024 1.188-3.927.79-.898 1.91-1.346 3.36-1.346.467 0 .93.062 1.388.188.453.13.858.34 1.216.637.347.298.64.687.858 1.177zm-1.56 1.696c0-.854-.163-1.54-.48-2.05-.32-.513-.824-.765-1.507-.765-.767 0-1.35.26-1.75.774-.4.518-.645 1.43-.727 2.725h4.427c.014-.12.028-.235.032-.355.006-.108.006-.216.006-.33zm21.26-1.697c.222.487.328 1.1.328 1.815 0 .232-.012.463-.024.7-.022.23-.058.483-.112.753h-6.27c0 .562.067 1.088.206 1.576.145.49.353.914.634 1.275.28.36.64.645 1.07.853.423.21.928.314 1.504.314.472 0 .943-.064 1.43-.2.48-.138.846-.313 1.09-.522l.273.316c-.104.23-.27.442-.5.644-.226.205-.49.377-.777.525-.3.144-.622.265-.974.353-.35.09-.702.133-1.062.133-.79 0-1.486-.127-2.09-.373-.605-.248-1.108-.604-1.51-1.07-.4-.46-.702-1.012-.915-1.652-.213-.645-.313-1.368-.313-2.17 0-1.72.396-3.024 1.185-3.927.795-.898 1.907-1.346 3.357-1.346.47 0 .93.062 1.386.188.458.13.863.34 1.218.637.353.298.642.687.863 1.177zm-1.56 1.696c0-.854-.163-1.54-.484-2.05-.32-.513-.816-.765-1.507-.765-.765 0-1.344.26-1.752.774-.396.518-.642 1.43-.722 2.725h4.426c.012-.12.023-.235.03-.355.006-.108.01-.216.01-.33zm-98.772-3.697h-.506c-.43.075-.866.18-1.312.3-.45.123-.885.26-1.298.424v.52l1.307.165v5.524c-.23.7-.548 1.27-.955 1.7-.41.435-.913.655-1.52.655-.417 0-.76-.08-1.025-.233-.267-.156-.478-.373-.632-.654-.158-.28-.263-.63-.323-1.043-.062-.418-.088-.887-.088-1.408 0-.982.016-1.967.056-2.957.043-.986.062-1.99.062-2.996h-.502c-.43.075-.868.18-1.317.3-.45.123-.888.26-1.314.426v.52l1.325.165c0 .8-.02 1.608-.06 2.42-.04.813-.06 1.64-.06 2.483 0 .832.07 1.52.22 2.062.145.54.363.973.643 1.297.285.32.626.55 1.037.674.41.125.88.19 1.42.19.4 0 .773-.08 1.112-.228.344-.14.646-.334.915-.566.27-.236.488-.496.656-.78.165-.294.28-.58.352-.862h.082l.14 2.398h.502c.428-.072.843-.17 1.236-.307.397-.132.79-.288 1.176-.46v-.426l-1.322-.156v-9.15h-.008zm-86.724-64.057c-.072.177-2.468 8.576-2.468 10.634 0 1.23.744 1.578 1.366 1.328.118-4.463 3.628-7.604 8.263-8.066 1.343-.133 4.41-.12 5.243 0 1.262.187 1.537.36 1.966.79 1.23 1.23 1.225 3.562 1.223 6.27v24.866c0 1.91-.064 3.396-.25 4.584-.23 3.053-2.776 5.457-5.89 5.457-.19 0-.373-.014-.56-.025-.042.096-.073.207-.073.34 0 .72 1.287 1.05 2.482 1.05.268 0 .513-.02.692-.05 2.62-.46 5.282-.72 8.133-.79h.448c2.85.07 5.51.33 8.13.79.185.03.43.05.694.05 1.196 0 2.482-.33 2.482-1.05 0-.133-.028-.244-.07-.34-.188.016-.37.025-.562.025-3.11 0-5.656-2.404-5.89-5.457-.184-1.188-.25-2.674-.25-4.584V74.41c-.002-2.706-.005-5.042 1.225-6.27.427-.43.705-.604 1.962-.79.837-.12 3.905-.133 5.247 0 4.635.46 8.142 3.602 8.264 8.065.623.25 1.364-.098 1.364-1.328 0-2.06-2.395-10.458-2.465-10.634H221.99zM23.398 24.656c-1.26-3.318-.663-6.537 1.76-9.562 1.998-2.492 5.725-3.652 7.128-4.087l.225-.072c1.187-.368 2.087.367 2.4.81.166.23.705 1.035 1.427 2.37-.026-.16-.003-.324.09-.47.27-.42 1.246-1.806 2.28-1.725.287.02.814.16 1.154.902 1.976 4.32 2.562 11.1 2.704 13.04-.393-.23-1.17.083-.842 1.538-.083-.027-.172-.048-.26-.06-.152-1.104-.206-1.505-.212-1.638 0-.004 0-.012-.003-.017l-.52.063c.11.474.21.947.35 1.594-.91-.068-.9.96-.78 1.438-.084.03-.164.067-.248.11-.77-4.036-1.695-6.77-2.693-9.32-1.704-4.355-3.375-6.786-3.56-7.052-.003-.004-.332-.462-.876-.29l-.236.07c-.44.14-1.138.36-1.93.67 1.082 1.75 4.163 7.18 5.94 14.703-.14.013-.273.037-.396.085.004-.188-.012-.325-.02-.43l-.01-.048-.002-.02-.003-.024c-.014-.072-.03-.133-.057-.22l-.02-.062c-.16-.417-.5-.665-.91-.665-.064 0-.13.008-.198.02-.065-.168-.16-.35-.288-.52-.38-1.333-.8-2.59-1.227-3.744-.5.19-1.387.59-2.456 1.316.383.928.77 1.932 1.144 2.985-.235.09-.41.28-.495.53-.393-1.11-.79-2.162-1.188-3.134-.743.545-1.552 1.243-2.38 2.13.516 1.182 1.01 2.417 1.468 3.66-.112-.048-.226-.088-.317-.112-.015-.13-.04-.252-.076-.36l-.007-.02-.007-.013c-.088-.225-.238-.42-.45-.58-.09-.07-.19-.122-.3-.153-.256-.64-.517-1.275-.783-1.89-.207.23-.412.484-.616.745-.144-.084-.302-.132-.47-.132-.062 0-.13.008-.19.022-.01-.02-.02-.035-.03-.05.34-.446.678-.864 1.02-1.245-.57-1.29-1.144-2.488-1.66-3.53-.403.585-.774 1.235-1.103 1.948 0 .004.003.008.003.013.21.55.47 1.216.756 1.927-.127-.05-.248-.076-.366-.076-.175 0-.338.052-.486.15-.198.138-.317.302-.39.48-.297-.738-.57-1.425-.786-1.994zm17.737-.39l-.752.104c.07.248.125.5.19.758l.63-.08c-.013-.22-.037-.48-.068-.782zm-.157-1.43l-.988.174c.074.244.146.493.217.738l.865-.116c-.028-.25-.06-.513-.094-.795zm-.194-1.403l-1.23.23c.082.24.168.49.246.733l1.094-.19c-.03-.25-.067-.51-.11-.773zm-.233-1.417l-1.47.293c.092.248.185.497.27.74l1.335-.247c-.043-.257-.087-.518-.134-.787zm-.277-1.392l-1.674.4c.008.018.014.032.02.052.082.21.155.414.232.627l1.58-.316c-.05-.254-.106-.507-.16-.763zm-2.23-.952c.106.245.21.498.315.755l1.773-.43c-.06-.262-.127-.525-.196-.795l-1.89.47zm1.478-1.914l-2.1.52c.117.255.24.524.364.806l1.98-.493c-.072-.282-.153-.555-.243-.832zm-1.69-1.754l.964-.236c-.055-.13-.108-.257-.167-.386l-.05-.096c-.173.08-.48.374-.747.718zm-1.066.92c.122.24.25.5.378.767l2.18-.536c-.09-.27-.187-.535-.283-.79l-2.276.56zM30.31 23.11c-.624-1.477-1.238-2.757-1.803-3.844-.77.617-1.572 1.404-2.312 2.36.525 1.05 1.113 2.277 1.707 3.603.84-.88 1.66-1.574 2.408-2.12zm1.27-5.743c-.553.25-1.494.728-2.55 1.502.566 1.09 1.187 2.387 1.82 3.866 1.07-.71 1.956-1.106 2.48-1.3-.59-1.548-1.192-2.913-1.75-4.07zM26.916 15.2c.38.58 1.026 1.622 1.804 3.075 1.056-.76 1.996-1.232 2.574-1.49-.792-1.588-1.458-2.717-1.797-3.267-.9.442-1.822.992-2.582 1.683zm-2.278 3.43c.26.47.695 1.29 1.235 2.35.75-.936 1.556-1.697 2.326-2.308-.742-1.397-1.362-2.408-1.746-3.002-.08.088-.162.177-.233.27-.71.882-1.233 1.777-1.583 2.69zm-.258 4.628c.323-.62.677-1.195 1.054-1.717-.425-.846-.792-1.54-1.07-2.062-.323 1.24-.317 2.506.015 3.78zM1.363 121.95c.55 1.12 1.257 2.193 2.162 3.12.894.94 1.983 1.706 3.17 2.28 2.392 1.143 5.12 1.445 7.716 1.242 2.727-.205 5.264-1.434 7.555-2.805 4.15-2.48 9.207-8.143 12.323-12.803 3.754-5.607 7.464-13.467 9.614-17.668.01-.012.013-.03.02-.04.007.01.018.028.022.04 2.146 4.2 5.856 12.06 9.608 17.668 3.12 4.66 8.172 10.322 12.327 12.803 2.29 1.37 4.83 2.6 7.553 2.805 2.602.203 5.326-.102 7.72-1.242 1.187-.574 2.272-1.346 3.17-2.28.907-.927 1.61-2 2.163-3.12.552-1.125.903-2.312 1.136-3.504.227-1.2.29-2.408.138-3.62-.285-2.384-1.278-4.608-2.788-6.34-1.495-1.735-3.548-2.94-5.688-3.368-2.125-.465-4.43-.123-6.2 1-1.78 1.107-3.034 2.848-3.517 4.703-1.104 4.255 1.237 7.786 4.07 8.665 1.544.48 3.017.28 4.21-.168 1.205-.463 3.12-1.883 3.1-5.018-.017-2.444-1.646-3.376-2.95-3.376-1.483 0-2.686 1.2-2.686 2.682s.656 1.842 1.28 2.36c.79.647.624 2.606-2.367 1.712-3-.902-3.54-4.477-3.004-6.422.397-1.447 1.303-2.89 2.706-3.812 1.396-.928 3.234-1.268 5.08-.92 1.846.314 3.616 1.338 4.946 2.855 1.335 1.503 2.254 3.487 2.503 5.597.227 2.096-.247 4.357-1.302 6.29-1.04 1.944-2.742 3.507-4.786 4.325-2.053.826-4.378.93-6.663.594-2.207-.305-4.254-1.4-6.057-2.838-1.814-1.44-3.28-3.342-4.838-5.176-6.338-7.46-12.268-21.176-14.392-25.35-.318-.64-.93-1.838-1.65-3.242 1.064-2.152 2.096-4.262 3.13-6.29 1.925-3.78 3.785-7.32 5.804-10.384 2.007-3.053 4.162-5.653 6.462-7.472 2.275-1.838 4.68-2.873 6.76-3.146 2.093-.272 3.77.113 4.817.52.542.195.894.39 1.168.54.27.146.4.233.4.233.353.237.834.142 1.074-.212.236-.354.142-.832-.213-1.07-.076-.05-.156-.09-.24-.105l-.05-.016s-.633-.157-1.813-.454c-1.187-.26-2.953-.674-5.247-.524-2.288.122-5.066.954-7.752 2.687-2.702 1.714-5.367 4.148-7.933 7.054-2.562 2.91-5.06 6.274-7.396 9.985-.378.586-1.047 1.79-1.822 3.227-.77-1.438-1.442-2.64-1.82-3.227-2.335-3.71-4.834-7.076-7.395-9.984-2.564-2.903-5.23-5.34-7.93-7.053-2.688-1.732-5.47-2.564-7.753-2.688-2.3-.15-4.062.264-5.25.523l-1.814.454-.05.016c-.08.018-.165.057-.238.104-.354.24-.448.718-.21 1.07.235.355.714.45 1.07.214 0 0 .132-.09.4-.232.274-.15.63-.345 1.17-.54 1.048-.406 2.725-.792 4.81-.52 2.086.27 4.486 1.31 6.764 3.146 2.302 1.818 4.452 4.42 6.462 7.472 2.018 3.062 3.88 6.604 5.808 10.385 1.032 2.028 2.062 4.138 3.125 6.29-.723 1.404-1.327 2.605-1.65 3.242-2.123 4.174-8.053 17.89-14.39 25.35-1.56 1.834-3.02 3.734-4.834 5.176-1.805 1.438-3.852 2.533-6.06 2.838-2.288.336-4.61.232-6.666-.594-2.043-.818-3.743-2.38-4.785-4.326-1.052-1.932-1.526-4.193-1.302-6.29.25-2.106 1.17-4.093 2.505-5.597 1.327-1.52 3.1-2.542 4.945-2.856 1.845-.348 3.685-.008 5.08.92 1.402.924 2.308 2.363 2.707 3.812.536 1.945-.006 5.52-3.002 6.422-2.99.896-3.154-1.062-2.368-1.713.625-.52 1.28-.88 1.28-2.36 0-1.478-1.202-2.68-2.684-2.68-1.307 0-2.937.93-2.95 3.374-.02 3.134 1.893 4.554 3.095 5.017 1.194.447 2.667.648 4.21.168 2.834-.88 5.18-4.41 4.074-8.664-.48-1.854-1.74-3.595-3.517-4.702-1.77-1.123-4.072-1.465-6.2-1-2.144.432-4.19 1.633-5.688 3.367-1.51 1.73-2.503 3.957-2.786 6.342-.15 1.21-.09 2.418.14 3.62.238 1.19.59 2.378 1.144 3.503zm38.96-115.5l.13-.14c.627-.647 1.58-.783 2.267-.783.16 0 .304.004.406.017v1.682c-1.444.405-2.514 1.722-2.514 3.3 0 1.836 1.45 3.327 3.26 3.424.457 0 .95-.092 1.425-.23 1.286-.493 2.2-1.737 2.2-3.194 0-1.57-1.058-2.88-2.493-3.296l.02-1.686c.104-.013.248-.017.4-.017.688 0 1.643.137 2.27.782l.13.14.258-.173.016-.16v-3.42l-.154-.02-.17-.064-.102.104c-.252.265-.562.43-.883.546-.085.032-.165.076-.25.1-.124.032-.244.054-.37.072-.074.014-.155.036-.227.04-.188.024-.365.028-.532.028-.155 0-.29-.004-.4-.016-.033-.438-.1-2.088.684-3.05.046-.04.06-.146.02-.262L45.67.01h-.034l-.01-.01-1.553.004L42.523 0l-.01.012h-.032l-.045.165c-.036.116-.023.222.022.26.78.964.715 2.613.68 3.052-.105.007-.245.015-.395.015-.294 0-.63-.032-.97-.108-.467-.104-.958-.3-1.35-.698l-.062-.04-.312.04v3.42l.02.16.255.17zm-3.825 26.94h6.062l.157-.665h-6.47l.25.666zm-7.618 0h4.725l.07-.665H28.52l.362.666zm25.617 0h4.726l.36-.665h-5.158l.07.666zm-8.932 0h6.064l.248-.665h-6.47l.158.666zm64.503 13.23h447.716c.357 0 .65-.402.65-.894s-.293-.89-.65-.89H110.07c-.36 0-.648.395-.648.89 0 .49.288.893.65.893zM1.455 79.092C.006 75.52-.646 69.13 1.42 63.308c.91-2.564 2.398-4.888 4.157-6.895 3.547-4.02 8.262-6.7 13.1-7.89 4.847-1.23 9.82-.99 14.124.378 4.333 1.354 7.93 3.824 10.614 6.593.228.233.446.48.665.724.22-.245.437-.49.665-.724 2.688-2.77 6.282-5.24 10.61-6.592 4.307-1.368 9.28-1.608 14.127-.376 4.837 1.188 9.55 3.87 13.097 7.89 1.757 2.006 3.25 4.33 4.158 6.894 2.064 5.82 1.415 12.212-.032 15.785 0 0-1.26 4.104-4.1 6.793-3.86 3.66-9.3 5.334-14.166 4.174-2.43-.562-4.65-1.896-6.18-3.775-.772-.943-1.346-1.922-1.8-3.018-.444-1.072-.694-2.236-.71-3.383-.063-2.326.69-4.834 2.02-6.465 1.338-1.624 2.914-2.728 5.108-3.284 1.954-.494 4.145-.182 5.706.947 1.575 1.092 2.504 2.904 2.5 4.65-.003 1.79-.833 3.406-1.955 4.293-1.2.943-2.59 1.408-3.83 1.35-1.25-.053-2.345-.502-3.12-1.174-.657-.55-1.022-1.287-1.157-1.957-.02-.084-.03-.168-.042-.254-.007-.05-.022-.103-.022-.145-.004-.025.003-.037.003-.057 0-.023-.006-.05-.006-.072 0-1.23.994-2.225 2.225-2.225 1.227 0 2.225.997 2.225 2.226 0 .682-.893 2.02-.04 2.123.896.11 1.927-.24 2.74-.978.813-.727 1.477-1.865 1.477-3.13.024-1.255-.632-2.624-1.826-3.48-1.18-.872-2.89-1.245-4.516-.806-1.592.422-3.214 1.373-4.38 2.822-1.162 1.46-1.82 3.627-1.738 5.568.077 1.936.98 3.89 2.335 5.45 1.347 1.528 3.278 2.575 5.373 2.966 4.214.77 8.885-.963 11.854-4.213 2.157-2.36 2.944-5.886 2.944-5.886.592-2.348.638-5.656.555-6.777-.312-4.494-2.162-8.68-5.03-11.974-2.852-3.328-6.714-5.69-10.77-6.986-4.06-1.297-8.353-1.465-12.214-.566-3.877.876-7.252 2.862-9.84 5.263-.283.27-.56.537-.83.812.487.63.95 1.288 1.334 1.942.908 1.535 1.558 3.138 1.888 4.72.66 3.16.115 6.194-1.45 8.153-.92 1.146-2.266 1.64-3.192 1.64-1.062 0-2.206-.43-3.19-1.64-1.58-1.95-2.11-4.992-1.454-8.154.332-1.58.98-3.184 1.89-4.72.386-.653.85-1.31 1.333-1.94-.272-.273-.545-.543-.83-.813-2.585-2.4-5.962-4.387-9.84-5.262-3.86-.897-8.152-.73-12.212.567-4.055 1.296-7.918 3.658-10.77 6.986-2.867 3.295-4.72 7.48-5.032 11.974-.078 1.12-.032 4.432.56 6.777 0 0 .786 3.523 2.94 5.885 2.976 3.25 7.645 4.98 11.856 4.212 2.093-.39 4.027-1.438 5.37-2.967 1.354-1.56 2.258-3.516 2.337-5.45.078-1.94-.58-4.106-1.74-5.567-1.166-1.45-2.787-2.4-4.378-2.822-1.626-.44-3.335-.066-4.517.805-1.195.858-1.853 2.228-1.825 3.483 0 1.264.663 2.402 1.473 3.13.814.733 1.843 1.07 2.744.976.762-.08-.05-1.44-.05-2.124 0-1.23.994-2.225 2.224-2.225 1.17 0 2.118.91 2.21 2.058.003.016.002.043.005.066.003.033.013.064.013.102v.012c0 .04.012.068.006.117-.006.096-.033.205-.05.31l-.002.017c-.123.686-.488 1.465-1.173 2.033-.778.672-1.87 1.12-3.122 1.172-1.24.06-2.632-.404-3.827-1.348-1.12-.89-1.95-2.507-1.953-4.296-.005-1.746.92-3.56 2.498-4.65 1.563-1.13 3.753-1.44 5.708-.947 2.193.56 3.772 1.662 5.106 3.283 1.328 1.633 2.082 4.14 2.02 6.465-.02 1.146-.27 2.31-.714 3.383-.45 1.096-1.02 2.074-1.8 3.018-1.526 1.883-3.743 3.217-6.18 3.777-4.865 1.16-10.3-.514-14.164-4.174-2.836-2.694-4.098-6.797-4.098-6.797zm41.592-18.16c-.863 1.336-1.485 2.708-1.826 4.06-.694 2.683-.29 5.114.908 6.73.533.716 1.29 1.048 1.95 1.048.52 0 1.42-.33 1.95-1.046 1.2-1.617 1.605-4.05.91-6.73-.342-1.353-.963-2.725-1.825-4.06-.315-.487-.664-.948-1.034-1.41-.37.462-.72.923-1.034 1.41zm191.88 69.976c-.503-.364-1.036-.69-1.608-.962-.573-.273-1.11-.56-1.61-.854-.5-.293-.913-.63-1.242-1.008-.333-.375-.5-.836-.5-1.383 0-.688.215-1.225.634-1.602.42-.38.975-.577 1.663-.577.42 0 .816.03 1.188.084.373.06.682.133.925.242l.805 2.755h.523c.054-.23.105-.494.16-.795.055-.305.105-.613.15-.938.047-.32.087-.63.12-.936.033-.3.054-.564.054-.795-.39-.185-.92-.345-1.6-.468-.68-.13-1.426-.19-2.245-.19-.63 0-1.197.08-1.71.25-.51.165-.945.405-1.314.714-.366.31-.652.688-.855 1.127-.203.44-.3.943-.3 1.506 0 .778.164 1.43.492 1.942.328.52.74.96 1.226 1.324.49.37 1.022.695 1.602.955.576.272 1.107.552 1.596.83.49.278.902.6 1.23.966.326.36.49.807.49 1.344 0 .406-.08.764-.24 1.08-.16.31-.382.582-.652.803-.273.22-.603.39-.976.502-.38.115-.777.172-1.205.172-.513 0-.896-.057-1.15-.172-.252-.11-.46-.254-.62-.412l-.825-2.955h-.52c-.055.23-.11.502-.163.822-.052.32-.104.65-.15.996-.047.34-.086.678-.12.994-.03.326-.056.6-.068.826.275.225.757.44 1.426.643s1.428.306 2.27.306c.767 0 1.448-.098 2.054-.28.603-.192 1.114-.458 1.525-.808.418-.354.735-.77.954-1.27.224-.494.332-1.047.332-1.648 0-.738-.165-1.355-.493-1.85-.34-.494-.76-.92-1.255-1.28zm9.193 5.843c-.362.027-.668.05-.906.05-.51 0-.893-.17-1.146-.5-.255-.333-.382-.9-.382-1.704v-5.804h3.017v-1.053h-3.017v-2.63h-.505c-.228.097-.455.206-.69.33-.24.13-.44.26-.613.392v1.71c-.563.142-1.1.38-1.61.708v.543h1.61v6.365c0 1.02.21 1.75.637 2.2.42.46 1.03.69 1.84.69.308 0 .603-.042.902-.126.293-.08.565-.182.813-.3.246-.122.466-.25.665-.384.19-.133.342-.262.45-.385l-.14-.3c-.254.096-.562.163-.926.198zM529.787 69.09c.063-.99.874-1.772 1.878-1.772.02 0 .038.004.062.004l.01-.004 10.344.013c.715 0 1.35.005 1.938.045.032 0 .062-.004.1-.004 4.508 0 8.176 3.612 8.27 8.098.06.02.11.033.17.045.184.037.366.023.534-.045.36-.156.645-.58.645-1.344 0-2.092-.563-9.21-.57-9.286 0-.008-.005-.032-.005-.052-.032-.262-.22-1.334-1.422-1.334l-36.043-.004c-1.02.01-2.11.31-2.366.848-.04.08-.06.16-.06.25l.002.01c0 .09.016.174.042.246.01.027.024.048.038.076.02.044.04.08.062.115.176-.016.35-.027.525-.027 1.922 0 3.624.932 4.703 2.355l.02.018c0 .004.005.008.005.008.02.024.037.04.05.062l.12.16c.003.004.01.017.018.023.023.037.048.08.075.12.057.086.11.174.163.262.062.107.117.23.173.354.027.062.06.112.09.178.284.642.457 1.343.5 2.082.15 1.145.204 2.557.204 4.33v.14l.002 2.077v6.018l.004 4.015-.004 2.873-.002 9.38c0 1.895-.066 3.38-.243 4.56-.063 1-.376 1.933-.876 2.73 0 .007-.002.01-.002.01-.098.142-.188.286-.287.42-.046.06-.1.118-.146.185-.06.07-.113.146-.18.213-1.08 1.225-2.664 2.002-4.426 2.002-.192 0-.382-.014-.572-.025-.03.074-.05.164-.054.256 0 .007-.006.015-.006.02 0 .73 1.294 1.055 2.49 1.055.267 0 .513-.014.69-.045.018-.004.035-.004.05-.01.08-.008.16-.018.227-.03.346-.058.69-.103 1.032-.157 2.317-.344 4.712-.56 7.15-.61 2.906.062 5.75.33 8.468.81.183.03.432.043.698.043.43 0 .854-.053 1.24-.14.053-.017.114-.02.165-.038.255-.066.487-.15.666-.264.25-.156.412-.357.412-.61 0-.108-.02-.2-.056-.284-.12.012-.247.012-.372.02v-.02c-.136.012-.278.016-.417.023-3.067-.102-5.546-2.54-5.703-5.594-.136-.917-.198-2.013-.228-3.333-.004-.377-.01-.768-.01-1.184v-.547l-.003-.027v-1.505l-.004-7.115c.01-.05.012-.23.012-.23.052-.69.62-1.23 1.32-1.23h2.905c2.44 0 4.572 1.312 5.74 3.27l.036.065c.057.096.108.188.16.287.013.02.02.045.027.066.075.143.142.277.197.428.034.088.062.178.09.266.045.145.098.285.125.434.05.24.076.488.083.738-.002.08-.007.156-.015.232h.015v.035c-.002.075-.007.15-.015.23.063.02.127.033.205.033.08 0 .154-.023.225-.072.01-.003.02-.02.034-.022.062-.05.118-.11.166-.186.002-.004.005-.004.007-.008l.002-.004c.043-.068.08-.152.11-.236.028-.068.05-.148.073-.225 0-.005 0-.005.002-.005 0-.004 0-.004.002-.004.078-.304.124-.645.124-.99V93.09c0-.187-.01-.36-.035-.49 0-.01-.004-.022-.004-.034-.005-.062-.01-.113-.02-.16-.006-.023-.008-.053-.014-.082-.058-.36-.103-.73-.148-1.098-.07-.527-.14-1.06-.188-1.596-.008-.11-.017-.217-.024-.328-.034-.43-.066-.87-.088-1.31-.017-.245-.028-.478-.04-.692-.002-.035-.004-.072-.01-.11 0-.095-.003-.19-.007-.272-.003-.06-.003-.107-.003-.154l-.002-.16.002-.162c0-.05 0-.102.004-.156.005-.084.007-.18.01-.27.004-.042.006-.08.008-.118.012-.21.023-.443.04-.688.02-.438.054-.875.088-1.312.01-.104.02-.213.024-.326.052-.537.118-1.06.188-1.592.048-.365.093-.734.148-1.1.006-.025.008-.055.014-.082.01-.05.017-.104.02-.16 0-.012.005-.023.005-.03.024-.13.036-.306.036-.495V80.104c0-.346-.045-.69-.123-.99-.002 0-.002 0-.002-.006h-.002c-.024-.08-.045-.155-.072-.23-.03-.088-.067-.168-.11-.236 0 0-.003 0-.003-.004-.002-.004-.005-.004-.007-.004-.048-.08-.104-.137-.166-.186-.015-.012-.023-.023-.034-.027-.068-.05-.145-.076-.225-.076-.078 0-.142.016-.205.037.008.08.013.15.015.23v.033h-.015c.008.08.013.156.015.23-.007.248-.033.498-.083.736-.027.148-.08.29-.126.436-.026.093-.055.18-.09.265-.057.148-.12.29-.196.43-.01.02-.017.045-.027.064-.052.1-.104.194-.16.288-.014.02-.024.045-.036.062-1.168 1.96-3.3 3.273-5.74 3.273H531.1c-.697 0-1.27-.54-1.318-1.236-.007-.03-.013-.06-.013-.1l.005-13.86-.002-.022.002-.112.013-.012zm-266.91 67.663c-.36.027-.665.05-.905.05-.51 0-.89-.17-1.147-.5-.255-.333-.38-.9-.38-1.704v-5.804h3.018v-1.053h-3.018v-2.63h-.504c-.23.097-.457.206-.693.33-.235.13-.44.26-.61.392v1.71c-.563.142-1.103.38-1.61.708v.543h1.61v6.365c0 1.02.21 1.75.632 2.2.425.46 1.037.69 1.838.69.31 0 .613-.042.908-.126.293-.08.563-.182.812-.3.246-.122.47-.25.663-.384.196-.133.345-.262.453-.385l-.14-.3c-.26.096-.567.163-.927.198zm-8.286-.14l1.387.202v.426c-.336.173-.707.33-1.115.462-.407.14-.802.232-1.178.307h-.5c-.137-.312-.214-.65-.242-1.022-.028-.37-.048-.775-.062-1.215h-.102c-.05.27-.156.537-.308.812-.152.277-.355.52-.604.734s-.54.384-.873.52c-.336.133-.72.205-1.146.205-.815 0-1.486-.25-2-.746-.52-.495-.773-1.15-.773-1.948 0-.62.12-1.127.368-1.525.25-.393.613-.705 1.097-.93.483-.234 1.08-.396 1.79-.494.71-.1 1.538-.182 2.47-.232.06-.577.075-1.1.057-1.556-.023-.463-.1-.86-.226-1.188-.125-.33-.312-.582-.562-.764-.247-.182-.574-.27-.977-.27-.188 0-.398.01-.636.03-.232.016-.463.074-.69.166l-.948 2.414h-.52c-.14-.396-.255-.818-.355-1.244-.1-.434-.168-.855-.19-1.27.507-.308 1.076-.548 1.698-.728.623-.168 1.317-.256 2.084-.256.683 0 1.228.098 1.636.29.41.196.72.444.937.755.213.31.354.653.423 1.02.066.38.102.756.102 1.133 0 .803-.02 1.572-.05 2.314-.036.748-.05 1.46-.05 2.148 0 .293.005.55.016.762.012.222.022.45.038.687zm-1.77-3.678c-.775 0-1.414.04-1.91.125-.498.076-.886.205-1.17.383-.28.172-.472.39-.58.652-.106.262-.162.56-.162.893 0 .576.148 1.02.44 1.34.294.312.7.475 1.212.475.33 0 .627-.064.884-.2.25-.136.468-.296.642-.485.175-.188.315-.38.425-.568.104-.197.177-.36.22-.494v-2.12zm252.045-45.983l.004.03-.003.138c-.08 14.367-10.52 24.404-25.374 24.404-14.853 0-25.286-10.037-25.374-24.404V86.952c.087-14.375 10.52-24.407 25.373-24.407 14.857 0 25.294 10.032 25.374 24.407zm-11.18 0c0-17.428-7.72-21.083-14.193-21.083-6.474 0-14.188 3.655-14.188 21.082 0 14.184 4.644 21.08 14.188 21.084 9.552-.004 14.193-6.902 14.193-21.084zM214.78 130.868H110.057c-.352 0-.635.395-.635.89s.284.89.636.89h104.727c.347 0 .63-.396.63-.89 0-.497-.285-.89-.632-.89zM173.6 103.81c-.193 3.088-2.757 5.535-5.896 5.535-.196 0-.392-.008-.588-.027-.037.088-.062.188-.062.31 0 .724 1.29 1.054 2.49 1.054.27 0 .515-.02.693-.05 2.698-.48 5.54-.745 8.458-.808l.61.014c4.034.025 7.96.242 11.75.457 2.947.17 4.572.324 7.12.367.317.016.648.016.987.016 5.69 0 12.227-1.146 12.227-10.074 0-2.01-.452-3.924-1.384-5.943-.104-.237-.398-.446-.73-.446-.145 0-.356.088-.356.088s.122.426.178 1.207c.496 6.954-5.522 11.257-12.167 11.257-.032 0-7.553.27-9.886-.41-1.638-.477-2.58-1.283-3.048-2.62l-.024-.09-.02-.087c-.187-.77-.294-1.652-.35-2.736l-.04-2.135v-8.452c.146-1.064.676-1.71 1.47-1.84v-.028h1.04c2.053 0 3.293 0 4.844 1.55 1.26 1.265 1.862 2.337 2.302 3.116.25.445.447.8.678 1.023.467.478 1.282.327 1.282-.796 0-.658-.103-1.986-.2-3.273-.103-1.358-.21-2.77-.21-3.517 0-.746.106-2.152.21-3.52.1-1.283.2-2.615.2-3.277 0-1.12-.815-1.26-1.282-.79-.23.228-.427.577-.678 1.02-.438.783-1.042 1.86-2.307 3.12-1.553 1.554-2.79 1.554-4.84 1.554h-.728c-.968 0-1.614-.662-1.777-1.814l-.002-3.775v-4.235c0-6.968 0-7.537 5.333-7.537h6.968c.714 0 1.353.004 1.937.044.04 0 .067-.004.103-.004 4.513 0 8.174 3.61 8.27 8.098.62.232 1.35-.12 1.35-1.34 0-2.096-.566-9.218-.57-9.29-.012-.146-.14-1.386-1.427-1.386H188.17c-.246-.012-.435-.008-.613 0H169.87c-.116-.008-.215-.008-.322-.008-1.202 0-2.492.328-2.492 1.05 0 .198.06.35.164.48.17-.017.347-.027.52-.027 1.926 0 3.63.923 4.71 2.348.277.33.508.706.69 1.16.285.645.46 1.343.5 2.082.15 1.145.204 2.56.204 4.33l.01 12.252-.01 12.25c-.003 1.89-.07 3.37-.246 4.553z"/></svg>