<svg xmlns="http://www.w3.org/2000/svg" width="558.424" height="142.188" viewBox="0 0 558.424 142.188"><g fill="#fff"><path d="M45.567 19.98c0 .83-.67 1.502-1.503 1.502-.83 0-1.5-.67-1.5-1.503 0-.832.67-1.505 1.5-1.505.834 0 1.503.673 1.503 1.504zm4.48 2.228c0 .735.6 1.336 1.336 1.336.736 0 1.334-.6 1.334-1.336 0-.74-.598-1.337-1.334-1.337-.74 0-1.337.597-1.337 1.338zm-5.983-.315c-.746 0-1.354.61-1.354 1.354 0 .75.607 1.354 1.354 1.354.75 0 1.354-.605 1.354-1.353 0-.745-.603-1.354-1.354-1.354zm0-7.48c-.986 0-1.786.798-1.786 1.787 0 .988.8 1.787 1.786 1.787.987 0 1.79-.8 1.79-1.787s-.803-1.788-1.79-1.788zm7.446 4.062c0 .74.597 1.337 1.334 1.337.734 0 1.335-.597 1.335-1.337 0-.736-.602-1.335-1.336-1.335-.737 0-1.334.598-1.334 1.335zM56 14.747c0-.735-.594-1.337-1.335-1.337-.734 0-1.334.602-1.334 1.337 0 .736.6 1.336 1.335 1.336.74 0 1.334-.6 1.334-1.336zm-14.917 14.38c-.07-.155-.123-.29-.156-.407-.002 0-.002-.007-.002-.01-.035-.115-.05-.21-.055-.294.004-.12.04-.25.162-.368.238-.254.816.074 1.033.236.065.052.183.156.306.254.07.06.126.116.194.175.393.327.262-.022.102-.397v-.01c-.116-.283-.193-.5-.243-.676-.023-.077-.048-.155-.064-.237-.044-.204-.046-.33-.056-.454 0-.05.006-.092.01-.133.005-.016.005-.03.01-.045.063-.3.293-.42.87-.038.284.19-.095-1.004.696-1.386.152-.076.266-.05.354 0 .774.425.407 1.575.694 1.386.562-.372.8-.266.872.02.01.03.014.06.02.087v.018c.004.03.005.062.004.09-.02.24-.014.5-.327 1.283-.18.405-.36.848.06.494.057-.047.11-.098.165-.147.13-.102.27-.226.344-.28.214-.163.793-.49 1.034-.237.113.115.15.242.156.362l-.002-.003c-.003.17-.066.4-.21.718-.16.34.803-.095 1.157.83.046.103.067.236 0 .424-.315.94-1.315.484-1.157.824.725 1.567-.712 1.053-1.165.734 0 0-.855-.528-.99-.222-.21.47-.128 1.12.08 1.666H43.16c.205-.545.29-1.195.08-1.666-.134-.307-.988.222-.988.222-.452.318-1.896.833-1.162-.734.155-.34-.846.117-1.164-.824-.065-.188-.04-.32 0-.425.35-.926 1.314-.49 1.157-.83zm2.105.9c0 .486.393.878.876.878.488 0 .88-.392.88-.877 0-.487-.392-.88-.88-.88-.484 0-.876.392-.876.88zm-13.15 10.954H58.22l.61-1.76H29.322l.714 1.76zM48.92 25.94c0 .736.602 1.335 1.337 1.335.734 0 1.332-.6 1.332-1.336 0-.74-.6-1.338-1.333-1.338-.735 0-1.336.596-1.336 1.337zM59.1 38.543H28.98l-1.7-4.42h33.524l-1.704 4.42zM32.768 36.29c-.026-.526-.405-.938-.84-.91-.44.02-.772.47-.745.996.027.523.41.933.847.908.432-.022.765-.466.738-.994zm7.768.042c0-.528-.425-.952-.955-.952-.523 0-.954.424-.954.952 0 .526.43.953.955.953.532 0 .956-.426.956-.953zm8.865 0c0-.528-.43-.952-.955-.952s-.956.424-.956.952c0 .526.43.953.955.953s.956-.426.956-.953zm7.496.043c.03-.527-.303-.975-.74-.996-.436-.028-.814.383-.842.91-.028.526.302.97.742.992.436.026.81-.382.84-.907zm5.048-6.512c.256 0 .422.142.477.345.356-.857.716-1.727.99-2.4-.03.012-.055.022-.088.042-.294.157.356-.8-.157-1.155-.06-.04-.142-.062-.297 0-.77.315-.815 1.312-.997 1.155-.363-.324-.592-.223-.732.027-.006.01-.016.024-.02.04-.02.032-.035.07-.05.107-.027.104-.066.21-.09.38-.013.064-.017.13-.022.196-.01.146-.014.326-.003.563v.006c.02.31.02.6-.205.33-.04-.045-.068-.09-.108-.145-.07-.08-.14-.167-.182-.21-.126-.132-.51-.405-.782-.2-.136.105-.207.21-.244.31-.024.07-.04.15-.048.243v.013c-.01.098-.007.21.006.34.018.184-.265.1-.616.228-.007 0-.013.005-.02.01-.188.067-.39.192-.58.452-.067.09-.125.195-.13.354-.017.78.952.403.72.685-1.085 1.307.27.88.745.607 0 0 .868-.436.89-.18.03.394-.233.93-.575 1.383h1.284c.177-.425.55-1.327.97-2.348-.192.168-.435.285-.67.285-.402 0-.607-.324-.46-.73.142-.408.588-.734.994-.734zm-16.36-4.005c.145-1.94.728-8.723 2.703-13.042.34-.742.87-.885 1.155-.905 1.033-.075 2.013 1.31 2.28 1.73.093.146.114.312.093.47.718-1.333 1.26-2.137 1.426-2.372.313-.44 1.21-1.18 2.4-.805l.223.072c1.404.437 5.128 1.592 7.126 4.083 2.424 3.027 3.018 6.244 1.76 9.562-.215.573-.485 1.264-.78 2-.074-.176-.19-.34-.39-.475-.15-.103-.312-.147-.487-.147-.118 0-.237.023-.365.07.284-.71.547-1.373.756-1.927 0-.002 0-.006.004-.012-.33-.712-.704-1.36-1.108-1.947-.515 1.04-1.086 2.246-1.656 3.53.34.383.68.798 1.02 1.24l-.033.057c-.06-.015-.124-.026-.188-.026-.167 0-.325.052-.47.135-.204-.26-.41-.512-.613-.747-.272.613-.533 1.252-.787 1.89-.108.035-.21.086-.297.155-.212.158-.364.354-.453.577l-.005.017-.006.02c-.04.11-.062.227-.075.36-.097.024-.206.062-.32.112.46-1.245.953-2.48 1.47-3.66-.832-.887-1.64-1.583-2.382-2.132-.397.974-.795 2.022-1.185 3.137-.088-.254-.258-.44-.498-.53.377-1.055.762-2.057 1.145-2.987-1.075-.727-1.958-1.124-2.455-1.314-.43 1.156-.85 2.41-1.23 3.742-.128.173-.222.355-.285.522-.07-.012-.136-.02-.198-.02-.415 0-.753.25-.91.666l-.02.06c-.028.09-.044.15-.058.22l-.002.025-.01.02-.006.05c-.008.103-.024.24-.02.432-.122-.05-.262-.08-.398-.085 1.778-7.527 4.862-12.958 5.942-14.706-.795-.313-1.49-.527-1.934-.667l-.234-.073c-.542-.174-.872.285-.877.29-.185.263-1.854 2.696-3.558 7.047-1 2.557-1.927 5.292-2.69 9.328-.084-.046-.17-.083-.25-.107.12-.486.13-1.507-.78-1.438.138-.65.236-1.123.347-1.598l-.52-.066c-.002.005-.002.015-.002.02-.006.13-.062.53-.21 1.637-.09.015-.177.032-.264.062.327-1.466-.45-1.782-.843-1.547zm13.534-6.995c-1.055-.775-2-1.252-2.55-1.5-.56 1.156-1.162 2.52-1.754 4.068.525.195 1.41.593 2.487 1.303.632-1.484 1.252-2.776 1.818-3.87zm2.832 2.76c-.732-.958-1.54-1.743-2.312-2.362-.562 1.09-1.177 2.372-1.802 3.844.747.544 1.565 1.243 2.407 2.12.595-1.326 1.186-2.55 1.707-3.602zm1.834-2.15c-.275.522-.646 1.218-1.068 2.063.38.522.73 1.1 1.056 1.722.33-1.28.338-2.545.012-3.784zm-2.086-3.806c-.386.594-1.007 1.604-1.75 3.002.774.608 1.578 1.37 2.33 2.305.54-1.06.977-1.878 1.233-2.35-.35-.912-.87-1.81-1.58-2.692-.073-.09-.153-.177-.232-.266zm-3.045-2.152c-.342.55-1.007 1.677-1.8 3.265.58.253 1.52.73 2.577 1.49.78-1.454 1.426-2.496 1.802-3.074-.758-.69-1.68-1.246-2.58-1.68zm-9.298.247l.964.236c-.27-.345-.572-.64-.746-.717-.013.022-.03.054-.05.1-.057.124-.116.254-.17.382zm-.53 1.383l2.184.54c.126-.267.252-.525.378-.764l-2.277-.56c-.098.256-.194.52-.285.785zm-.447 1.44l1.982.49c.124-.278.245-.548.365-.806l-2.103-.52c-.08.28-.166.556-.244.836zm-.36 1.406l1.77.43c.107-.26.21-.51.315-.75l-1.893-.47c-.065.266-.13.53-.192.79zm-.3 1.394l1.575.315c.083-.21.15-.418.235-.628.008-.02.014-.037.022-.05l-1.675-.402c-.053.255-.107.51-.157.764zm-.257 1.413l1.34.247c.083-.24.18-.492.268-.742l-1.466-.29c-.05.267-.096.53-.14.785zm-.208 1.402l1.098.19c.078-.24.162-.49.245-.735l-1.23-.226c-.042.263-.08.52-.113.77zm-.176 1.425l.868.117c.068-.244.14-.49.213-.737l-.986-.172-.094.792zm-.13 1.415l.63.08c.064-.25.122-.51.188-.758l-.753-.102c-.026.304-.05.563-.065.78zm-20.273 6.282c-.234 0-.475-.117-.672-.286.423 1.02.8 1.924.973 2.35h1.284c-.338-.455-.604-.99-.57-1.385.02-.255.886.182.886.182.474.27 1.83.7.75-.608-.236-.28.73.097.714-.685-.003-.16-.062-.265-.128-.355-.193-.258-.397-.384-.58-.45-.01-.007-.016-.01-.022-.01-.354-.13-.636-.045-.614-.23.01-.13.01-.24.004-.338v-.014c-.007-.09-.02-.172-.046-.24-.04-.103-.11-.207-.246-.31-.27-.207-.656.066-.783.198-.043.044-.107.13-.18.21-.042.056-.07.1-.11.147-.227.27-.227-.02-.206-.332v-.007c.013-.236.01-.417-.003-.562-.006-.064-.01-.13-.018-.197-.026-.168-.062-.276-.09-.38-.02-.038-.034-.075-.053-.108-.006-.015-.013-.028-.02-.04-.143-.25-.372-.35-.735-.026-.18.157-.227-.84-.996-1.155-.156-.06-.234-.04-.298 0-.514.355.138 1.313-.154 1.156-.033-.02-.062-.03-.09-.042.275.674.634 1.542.987 2.4.058-.203.22-.345.48-.345.4 0 .847.325.993.73.152.407-.057.732-.457.732zM36.7 23.544c.737 0 1.334-.6 1.334-1.336 0-.74-.597-1.337-1.333-1.337-.738 0-1.335.598-1.335 1.338 0 .736.596 1.336 1.336 1.336zm1.125 3.732c.737 0 1.333-.6 1.333-1.336 0-.74-.596-1.337-1.333-1.337-.738 0-1.336.598-1.336 1.337 0 .736.597 1.336 1.335 1.336zm-2.586-7.464c.736 0 1.332-.597 1.332-1.337 0-.736-.596-1.335-1.333-1.335s-1.337.6-1.337 1.335c0 .74.597 1.337 1.336 1.337zm-3.69 9.58c-.193-.294-.29-.513-.32-.672-.02-.107 0-.228.084-.336.184-.235.773.067 1.005.22v.003c.078.05.23.167.37.26.06.05.118.094.178.142h.003c.285.208.294.122.204-.065-.03-.054-.062-.12-.104-.187l-.126-.213h-.002c-.424-.733-.46-.978-.52-1.2-.005-.024-.008-.056-.01-.083v-.018c-.004-.027 0-.055 0-.083.02-.265.226-.36.813-.014.3.174-.23-.9.422-1.3.075-.046.173-.07.334 0 .8.356.645 1.475.88 1.3.207-.155.365-.22.488-.226.01 0 .013-.003.018-.003.002 0 .004.003.007.003.073 0 .13.024.182.064l.01.008c.05.047.09.105.116.184.012.017.015.032.022.044l.03.124c.014.117.03.235.023.427-.004.077-.01.147-.02.224-.02.163-.056.367-.115.634 0 .004 0 .007-.003.008v.017-.004c-.08.31-.133.597.087.42v-.002c.022-.012.044-.03.073-.06.055-.056.1-.105.154-.167.1-.087.19-.187.245-.233.03-.026.07-.058.113-.087.01-.005.018-.012.03-.018.093-.062.204-.123.325-.163.014-.008.026-.01.04-.015.057-.016.11-.025.16-.025.007 0 .014-.005.02-.005v.002c.09 0 .176.023.243.087.128.11.187.23.208.348.01.075.012.167.002.272 0 .004-.002.008-.004.01-.013.11-.035.235-.08.38-.09.32.74-.085 1.23.777.054.1.095.224.07.4-.146.878-1.16.456-.954.774.456.71.353.96.07 1.002-.018 0-.033.003-.055.003H37.45c-.063-.003-.14-.01-.217-.03-.01-.002-.018-.006-.03-.006-.077-.018-.157-.043-.237-.067-.007-.005-.016-.008-.02-.013-.08-.027-.16-.06-.23-.096-.004-.002-.007-.002-.01-.002-.074-.037-.145-.075-.196-.11 0 0-.172-.09-.37-.174-.252-.104-.55-.188-.592-.03-.12.443.062 1.05.35 1.562h-1.703c.104-.51.074-1.117-.2-1.562-.178-.287-.89.205-.89.205-.373.304-1.64.784-1.214-.682.093-.32-.77.104-1.225-.775-.093-.176-.093-.3-.07-.398.18-.863 1.155-.457.954-.78zm2.03.847c.078.453.512.822.965.822.456 0 .76-.37.682-.823-.08-.458-.517-.823-.968-.823-.458 0-.76.364-.68.822zm1.17-15.493c0-.735-.597-1.337-1.335-1.337-.74 0-1.335.602-1.335 1.337 0 .736.597 1.336 1.335 1.336s1.334-.6 1.334-1.336zm17.73 14.32v.004c.22.18.163-.117.085-.435-.002 0-.002-.004-.002-.008-.062-.267-.098-.47-.116-.634-.01-.077-.016-.146-.02-.223-.01-.19.01-.31.022-.427.008-.044.02-.083.03-.124.002-.014.01-.028.015-.045.03-.077.07-.138.12-.184 0 0 .003-.004.007-.004.053-.043.11-.066.185-.067.004 0 .004-.004.008-.004l.017.003c.122.004.282.07.49.225.234.174.078-.943.88-1.3.157-.07.252-.046.333 0 .652.398.123 1.475.42 1.3.59-.348.796-.25.816.015.004.028.004.057.004.083 0 .005-.003.01-.003.018-.002.028-.005.06-.01.084-.06.223-.1.467-.52 1.2h-.002l-.118.198c-.003.01-.007.015-.01.023-.04.06-.074.126-.1.178h-.002c-.09.188-.083.273.202.064.062-.047.12-.09.182-.142.142-.094.293-.21.37-.26 0-.002.003-.002.003-.002.23-.152.82-.456 1.005-.22.085.107.1.228.085.335h-.004c-.026.16-.124.378-.314.673-.204.322.77-.083.95.78.024.1.024.222-.07.397-.454.88-1.313.457-1.223.775.425 1.466-.842.985-1.214.682 0 0-.714-.492-.893-.205-.272.442-.303 1.05-.198 1.56h-1.704c.286-.51.47-1.116.35-1.56-.04-.158-.317-.08-.57.022-.21.082-.39.182-.39.182-.056.035-.124.072-.197.11h-.012c-.073.037-.147.07-.23.097l-.023.013c-.078.025-.158.05-.237.068-.01 0-.02.005-.028.008-.077.02-.15.026-.22.028l-.016.002-.025-.002c-.02 0-.036-.002-.056-.003h-.004c-.28-.04-.383-.29.073-1.002.207-.318-.81.105-.952-.774-.028-.176.015-.3.07-.398.485-.863 1.315-.457 1.224-.778-.04-.146-.064-.268-.077-.38l-.002-.01c-.01-.105-.01-.197.002-.27.023-.117.077-.238.208-.35.07-.062.153-.086.24-.086.002 0 .002-.002.002-.002.007 0 .013.005.018.005.054 0 .106.01.162.025.016.004.025.007.043.014.058.018.114.04.167.068.003.003.007.003.014.01.052.023.1.054.145.083.01.008.022.015.034.02.038.03.08.06.106.085.056.046.147.146.244.234l.156.167c.027.032.047.052.073.065zm.376 1.172c-.08.453.224.822.68.822.453 0 .886-.37.966-.823.082-.458-.224-.823-.678-.823-.454 0-.888.364-.968.822zM23.39 24.647c-1.26-3.318-.664-6.535 1.76-9.562 1.996-2.49 5.723-3.646 7.125-4.083l.225-.072c1.187-.374 2.086.365 2.398.806.167.234.705 1.04 1.427 2.372-.024-.157-.003-.323.09-.47.27-.42 1.247-1.805 2.282-1.73.286.022.813.165 1.152.906 1.975 4.32 2.56 11.1 2.702 13.042-.394-.235-1.17.08-.84 1.54-.084-.03-.174-.047-.262-.062-.15-1.105-.205-1.508-.212-1.638 0-.004 0-.014-.003-.02l-.52.064c.11.477.21.948.35 1.6-.91-.07-.9.95-.78 1.437-.084.025-.164.062-.248.108-.77-4.035-1.695-6.772-2.692-9.328-1.705-4.35-3.375-6.784-3.56-7.047-.004-.005-.332-.464-.876-.29l-.236.072c-.44.14-1.138.354-1.93.668 1.08 1.75 4.16 7.18 5.94 14.706-.14.006-.275.035-.398.085.004-.19-.012-.326-.02-.433l-.008-.048-.004-.022-.003-.024c-.013-.07-.03-.132-.057-.22l-.02-.062c-.16-.416-.5-.666-.91-.666-.064 0-.13.007-.198.02-.065-.166-.16-.35-.288-.52-.38-1.334-.798-2.587-1.227-3.744-.5.192-1.386.59-2.456 1.315.384.93.77 1.932 1.145 2.988-.238.088-.412.274-.498.528-.393-1.112-.79-2.163-1.188-3.136-.743.548-1.552 1.245-2.378 2.13.515 1.182 1.01 2.417 1.466 3.66-.112-.05-.226-.087-.317-.112-.015-.133-.04-.25-.076-.36l-.008-.02-.007-.016c-.088-.227-.238-.42-.448-.578-.092-.07-.19-.12-.3-.155-.257-.638-.518-1.276-.784-1.89-.207.235-.412.488-.616.747-.143-.083-.3-.134-.47-.134-.06 0-.128.012-.188.025-.01-.02-.022-.037-.033-.055.34-.444.68-.86 1.02-1.24-.57-1.287-1.144-2.492-1.656-3.53-.405.585-.776 1.235-1.106 1.947 0 .005.003.01.003.012.21.555.47 1.217.756 1.926-.127-.046-.248-.07-.366-.07-.176 0-.338.047-.487.148-.198.134-.317.3-.39.475-.292-.73-.566-1.42-.78-1.992zm17.736-.387l-.752.103c.07.25.125.508.19.76l.63-.082c-.014-.217-.038-.476-.068-.78zm-.156-1.428l-.99.172c.075.248.146.494.217.737l.864-.116c-.025-.245-.056-.513-.09-.792zm-.195-1.402l-1.23.226c.083.246.17.494.247.734l1.097-.19c-.035-.25-.072-.507-.115-.77zm-.234-1.42l-1.47.292c.092.25.187.5.27.742l1.335-.247c-.042-.254-.087-.518-.134-.786zm-.277-1.392l-1.672.402c.008.014.014.03.02.05.083.21.155.418.234.628l1.58-.315-.16-.765zm-2.23-.948c.106.242.21.493.315.75l1.773-.43c-.06-.262-.127-.524-.193-.79l-1.893.47zm1.48-1.917l-2.1.518c.116.26.24.528.363.806l1.982-.488c-.076-.282-.157-.558-.246-.835zM37.82 14l.965-.237c-.055-.128-.106-.26-.167-.383-.02-.044-.037-.077-.05-.098-.174.08-.48.373-.747.717zm-1.064.92c.12.24.247.5.378.765l2.18-.54c-.092-.266-.188-.527-.285-.784l-2.274.56zm-6.454 8.185c-.624-1.473-1.24-2.753-1.805-3.843-.77.62-1.57 1.404-2.312 2.36.526 1.053 1.115 2.275 1.707 3.605.843-.88 1.662-1.578 2.41-2.122zm1.27-5.743c-.553.25-1.494.726-2.552 1.5.567 1.095 1.188 2.387 1.822 3.87 1.07-.708 1.957-1.105 2.48-1.3-.59-1.548-1.19-2.912-1.75-4.07zm-4.666-2.166c.38.578 1.026 1.62 1.804 3.075 1.058-.762 1.997-1.237 2.576-1.49-.792-1.588-1.458-2.715-1.797-3.265-.903.435-1.824.99-2.584 1.68zm-2.278 3.428c.26.473.695 1.292 1.235 2.35.75-.935 1.556-1.694 2.326-2.305-.742-1.398-1.362-2.41-1.747-3.003-.08.09-.163.177-.233.267-.708.882-1.233 1.78-1.582 2.69zm-.26 4.633c.326-.623.682-1.2 1.06-1.722-.428-.845-.793-1.54-1.073-2.062-.323 1.24-.317 2.504.014 3.784zM1.355 121.945c.55 1.117 1.257 2.197 2.162 3.123.894.937 1.982 1.706 3.17 2.277 2.392 1.145 5.12 1.45 7.716 1.244 2.727-.208 5.264-1.434 7.556-2.804 4.15-2.48 9.207-8.143 12.323-12.804 3.754-5.608 7.464-13.473 9.614-17.67.01-.012.013-.025.02-.04.007.015.018.028.022.04 2.146 4.2 5.856 12.063 9.608 17.67 3.12 4.66 8.175 10.322 12.327 12.804 2.292 1.37 4.83 2.596 7.556 2.803 2.6.204 5.324-.103 7.718-1.245 1.187-.572 2.272-1.342 3.17-2.277.907-.926 1.613-2.005 2.163-3.123.55-1.124.904-2.31 1.135-3.504.227-1.197.29-2.404.138-3.614-.283-2.385-1.277-4.606-2.787-6.34-1.493-1.742-3.547-2.938-5.688-3.37-2.125-.462-4.43-.125-6.2 1-1.78 1.11-3.034 2.842-3.516 4.705-1.105 4.253 1.236 7.782 4.07 8.664 1.544.48 3.016.277 4.212-.172 1.203-.46 3.117-1.88 3.098-5.014-.015-2.444-1.646-3.373-2.95-3.373-1.482 0-2.683 1.2-2.683 2.68 0 1.48.654 1.84 1.277 2.357.79.65.624 2.61-2.365 1.71-3-.9-3.54-4.47-3.005-6.42.397-1.444 1.303-2.89 2.706-3.81 1.397-.927 3.236-1.267 5.08-.92 1.85.313 3.617 1.34 4.947 2.854 1.335 1.51 2.254 3.49 2.503 5.602.23 2.094-.248 4.355-1.302 6.29-1.04 1.946-2.742 3.506-4.786 4.32-2.053.83-4.378.935-6.663.597-2.21-.305-4.255-1.396-6.058-2.836-1.814-1.443-3.28-3.345-4.836-5.18-6.337-7.458-12.27-21.17-14.392-25.346-.316-.64-.93-1.84-1.648-3.24 1.062-2.16 2.094-4.264 3.127-6.297 1.926-3.776 3.788-7.317 5.804-10.376 2.008-3.052 4.162-5.657 6.462-7.474 2.274-1.84 4.678-2.875 6.76-3.148 2.094-.27 3.77.112 4.816.52.54.198.893.39 1.167.54.272.146.4.235.4.235.355.235.836.14 1.074-.213.236-.354.142-.833-.213-1.068-.073-.052-.153-.09-.237-.108l-.053-.012-1.812-.458c-1.187-.258-2.953-.672-5.247-.52-2.288.12-5.067.948-7.752 2.686-2.702 1.713-5.368 4.152-7.93 7.056-2.563 2.91-5.063 6.272-7.397 9.984-.377.584-1.046 1.787-1.82 3.223-.772-1.436-1.442-2.64-1.82-3.223-2.334-3.71-4.834-7.074-7.396-9.984-2.562-2.902-5.227-5.342-7.927-7.056-2.69-1.737-5.47-2.564-7.754-2.687-2.298-.15-4.063.264-5.25.52-1.182.298-1.815.46-1.815.46l-.05.01c-.082.02-.165.06-.238.11-.354.234-.447.713-.212 1.067.236.354.715.45 1.073.213 0 0 .13-.09.4-.234.273-.15.63-.344 1.17-.543 1.047-.405 2.724-.788 4.812-.52 2.084.274 4.485 1.31 6.765 3.15 2.3 1.815 4.45 4.42 6.46 7.474 2.02 3.062 3.88 6.6 5.807 10.377 1.033 2.033 2.062 4.138 3.125 6.298-.72 1.4-1.327 2.6-1.65 3.24-2.123 4.174-8.053 17.887-14.387 25.346-1.558 1.833-3.02 3.734-4.836 5.18-1.803 1.437-3.85 2.53-6.058 2.835-2.288.338-4.612.234-6.666-.596-2.042-.815-3.744-2.376-4.785-4.323-1.05-1.934-1.527-4.195-1.3-6.29.25-2.108 1.168-4.09 2.504-5.6 1.326-1.516 3.098-2.54 4.942-2.854 1.847-.348 3.686-.008 5.08.92 1.402.92 2.31 2.363 2.707 3.81.534 1.948-.007 5.52-3.004 6.42-2.99.898-3.154-1.06-2.368-1.71.625-.52 1.28-.878 1.28-2.358s-1.202-2.68-2.682-2.68c-1.31 0-2.938.93-2.95 3.373-.022 3.133 1.89 4.555 3.094 5.014 1.195.45 2.667.65 4.212.172 2.832-.882 5.18-4.41 4.073-8.663-.48-1.862-1.74-3.594-3.515-4.705-1.77-1.125-4.073-1.46-6.2-.998-2.147.433-4.194 1.627-5.69 3.37-1.51 1.73-2.504 3.954-2.787 6.34-.15 1.21-.092 2.416.14 3.614.226 1.196.58 2.382 1.13 3.505zM40.314 6.447l.133-.14c.626-.647 1.58-.783 2.265-.783.16 0 .303.005.406.018V7.22c-1.442.407-2.515 1.723-2.515 3.3 0 1.84 1.45 3.326 3.262 3.426.455-.002.948-.093 1.423-.23 1.286-.495 2.2-1.737 2.2-3.196 0-1.566-1.057-2.876-2.493-3.294l.02-1.684c.104-.013.248-.018.4-.018.688 0 1.644.136 2.27.784l.13.14.257-.174.016-.162v-3.42l-.153-.018-.172-.064-.102.105c-.25.265-.56.427-.882.548-.084.03-.164.076-.248.1-.125.03-.244.053-.37.07-.076.015-.156.036-.228.046-.188.02-.365.027-.532.027-.156 0-.292-.008-.402-.02-.03-.436-.098-2.088.685-3.05.046-.036.06-.144.02-.262L45.66.012h-.035L45.615 0l-1.552.006L42.513 0l-.01.013h-.033l-.044.16c-.038.12-.025.227.02.262.78.963.716 2.616.682 3.052-.106.01-.244.02-.396.02-.294 0-.63-.04-.97-.115-.468-.1-.958-.3-1.35-.7l-.062-.037-.312.037v3.42l.02.16.256.175zM36.49 33.384h6.064l.156-.663h-6.47l.25.664zm-7.617 0h4.725l.07-.663h-5.155l.36.664zm25.617 0h4.728l.358-.663h-5.16l.074.664zm-8.932 0h6.064l.248-.663H45.4l.158.664zM1.446 79.09c-1.448-3.573-2.1-9.966-.034-15.785.91-2.565 2.398-4.89 4.157-6.9 3.545-4.01 8.26-6.69 13.1-7.887 4.846-1.227 9.818-.99 14.122.377 4.332 1.354 7.93 3.827 10.613 6.59.23.24.446.483.664.73.22-.246.437-.49.665-.73 2.688-2.763 6.283-5.235 10.612-6.59 4.306-1.367 9.28-1.604 14.126-.377 4.838 1.195 9.55 3.877 13.097 7.887 1.758 2.012 3.25 4.335 4.16 6.9 2.062 5.818 1.413 12.212-.035 15.785 0 0-1.26 4.103-4.1 6.793-3.86 3.662-9.296 5.332-14.164 4.172-2.43-.562-4.648-1.895-6.18-3.775-.772-.94-1.346-1.923-1.798-3.018-.444-1.074-.694-2.233-.713-3.383-.063-2.326.692-4.834 2.02-6.466 1.338-1.625 2.916-2.727 5.11-3.28 1.954-.496 4.144-.18 5.704.945 1.576 1.09 2.504 2.9 2.5 4.65-.003 1.788-.834 3.408-1.954 4.29-1.196.946-2.59 1.41-3.83 1.352-1.25-.052-2.345-.5-3.118-1.173-.66-.552-1.024-1.293-1.16-1.96-.02-.083-.03-.168-.04-.255-.007-.048-.024-.102-.024-.146-.004-.023.003-.034.003-.056 0-.023-.006-.047-.006-.07 0-1.23.994-2.228 2.227-2.228 1.227 0 2.226.997 2.226 2.227 0 .682-.89 2.02-.04 2.12.895.11 1.926-.24 2.74-.975.812-.725 1.476-1.863 1.476-3.128.024-1.256-.632-2.626-1.826-3.482-1.18-.874-2.892-1.247-4.516-.805-1.592.427-3.214 1.373-4.38 2.82-1.162 1.46-1.82 3.63-1.738 5.572.078 1.935.98 3.89 2.335 5.45 1.347 1.53 3.278 2.575 5.373 2.964 4.213.77 8.885-.97 11.856-4.212 2.155-2.357 2.942-5.885 2.942-5.885.594-2.348.64-5.655.557-6.78-.312-4.494-2.164-8.68-5.03-11.974-2.855-3.326-6.717-5.69-10.772-6.986-4.06-1.3-8.353-1.467-12.213-.568-3.877.876-7.252 2.863-9.838 5.263-.284.27-.56.535-.83.806.486.635.948 1.294 1.332 1.947.908 1.537 1.56 3.138 1.89 4.717.66 3.165.114 6.193-1.45 8.154-.918 1.148-2.266 1.64-3.193 1.64-1.058 0-2.205-.426-3.188-1.64-1.58-1.946-2.11-4.99-1.453-8.154.332-1.58.978-3.18 1.888-4.717.385-.653.848-1.312 1.333-1.947-.268-.27-.544-.537-.83-.807-2.583-2.4-5.96-4.388-9.837-5.264-3.86-.898-8.152-.732-12.212.568C15.72 53.71 11.854 56.074 9 59.4c-2.864 3.293-4.718 7.478-5.03 11.973-.078 1.125-.033 4.433.56 6.78 0 0 .785 3.526 2.94 5.885 2.974 3.243 7.643 4.98 11.855 4.21 2.093-.388 4.027-1.434 5.37-2.962 1.355-1.562 2.26-3.518 2.338-5.45.078-1.943-.58-4.113-1.74-5.572-1.166-1.45-2.786-2.396-4.378-2.82-1.626-.442-3.335-.07-4.517.804-1.195.855-1.853 2.227-1.825 3.482 0 1.265.663 2.404 1.473 3.128.814.734 1.845 1.074 2.744.976.763-.076-.05-1.438-.05-2.12 0-1.23.994-2.228 2.226-2.228 1.17 0 2.115.905 2.207 2.055.005.018.004.048.007.066.003.035.01.07.01.105v.013c0 .04.013.07.007.114-.006.098-.033.208-.052.31v.018c-.124.687-.49 1.463-1.172 2.033-.778.673-1.87 1.12-3.122 1.173-1.24.06-2.63-.403-3.827-1.352-1.12-.88-1.95-2.5-1.954-4.29-.006-1.75.92-3.56 2.497-4.65 1.563-1.125 3.753-1.44 5.708-.946 2.195.555 3.772 1.656 5.11 3.28 1.326 1.634 2.082 4.142 2.02 6.466-.02 1.148-.27 2.31-.715 3.383-.45 1.095-1.02 2.077-1.798 3.02-1.528 1.882-3.745 3.212-6.18 3.774-4.865 1.162-10.303-.51-14.166-4.172-2.84-2.69-4.1-6.792-4.1-6.792zm41.59-18.16c-.86 1.332-1.484 2.706-1.826 4.06-.694 2.68-.29 5.112.908 6.73.533.715 1.29 1.044 1.95 1.044.518 0 1.42-.33 1.95-1.045 1.2-1.623 1.605-4.05.91-6.73-.342-1.354-.96-2.727-1.825-4.06-.315-.488-.665-.95-1.035-1.41-.366.462-.718.922-1.032 1.41zM557.79 130.858h-45.787c-.353 0-.63.396-.63.895 0 .488.277.89.63.89h45.787c.35 0 .634-.4.634-.89 0-.5-.286-.895-.634-.895zM110.06 46.613h447.714c.354 0 .647-.398.647-.887 0-.5-.292-.893-.646-.893H110.06c-.36 0-.648.393-.648.893 0 .488.288.887.65.887zm43.23 84.245h-43.244c-.353 0-.635.396-.635.895 0 .488.283.89.636.89h43.244c.35 0 .634-.4.634-.89 0-.5-.285-.895-.634-.895zm10.778-6.183c.264.108.535.203.812.287.274.086.546.152.81.207v11.722c-.553.107-1.094.262-1.62.473v.576h5.417v-.575c-.622-.21-1.253-.364-1.897-.473v-11.76h3.974l1.028 2.967h.513c.04-.28.072-.59.098-.94.024-.35.045-.71.06-1.077.016-.37.024-.728.042-1.064.014-.347.02-.65.02-.913h-9.25v.57l-.007-.002zm18.353 6.207c.177.633.268 1.342.268 2.115 0 1.66-.422 2.94-1.267 3.834-.84.898-1.976 1.345-3.397 1.345-.79 0-1.475-.125-2.056-.364-.58-.243-1.062-.592-1.444-1.05-.38-.45-.667-1-.855-1.64-.19-.64-.286-1.346-.286-2.126 0-.827.106-1.56.323-2.204.22-.64.53-1.18.94-1.615.405-.442.896-.78 1.47-1.01.572-.23 1.21-.35 1.908-.35.814 0 1.52.125 2.114.376.593.253 1.077.606 1.453 1.06.374.46.65 1.002.83 1.632zm-1.634 2.116c0-.605-.057-1.166-.165-1.688-.113-.52-.287-.977-.522-1.365-.237-.39-.542-.692-.91-.918-.37-.227-.81-.335-1.326-.335-.776 0-1.4.35-1.877 1.044-.473.7-.71 1.785-.71 3.26 0 .597.055 1.155.166 1.683.114.528.293.985.535 1.372.243.39.562.697.958.92.395.222.87.338 1.422.338.713 0 1.296-.35 1.75-1.05.456-.697.68-1.782.68-3.262zm10.02 3.754c-.34.135-.744.196-1.204.196-.57 0-1.062-.11-1.492-.333-.43-.226-.783-.523-1.065-.896-.283-.378-.496-.802-.635-1.28-.137-.47-.204-.96-.204-1.46 0-1.554.24-2.657.73-3.31.485-.652 1.18-.98 2.072-.98.278 0 .478.017.594.047.118.036.23.084.315.148l.833 2.354h.53c.16-.36.292-.806.398-1.348.104-.54.177-1.027.214-1.463-.354-.185-.787-.33-1.293-.445-.51-.11-1.084-.168-1.728-.168-1.412 0-2.524.448-3.345 1.34-.813.887-1.224 2.168-1.224 3.837 0 .78.095 1.486.286 2.128.187.64.476 1.188.858 1.64.383.456.857.805 1.433 1.05.573.238 1.25.363 2.023.363.714 0 1.335-.158 1.87-.46.53-.313.918-.697 1.154-1.16l-.254-.276c-.23.185-.523.345-.866.472zm12.117-8.694h-3.38v.516c.33.236.69.396 1.086.472l-1.88 5.832-.294 1.246h-.04l-.372-1.226-2.516-5.854c.476-.145.853-.308 1.126-.494v-.49h-4.15v.514c.173.107.34.197.506.276.163.075.345.147.54.194l4.115 8.896c-.108.34-.2.625-.277.846-.08.23-.154.41-.22.558-.064.146-.126.267-.187.363-.06.1-.13.202-.207.31h-2.055l-.255.473c.077.277.175.567.287.873.108.303.238.574.383.826.344-.065.66-.17.958-.307.3-.138.587-.358.87-.662.285-.3.565-.712.85-1.234.283-.52.585-1.202.9-2.044l3.085-8.896c.473-.13.85-.285 1.125-.472v-.516h.003zm8.318 8.912h1.763c.013.63 0 1.28-.04 1.936-.037.66-.098 1.312-.18 1.958h-.485l-.875-2.923h-7.413l-.878 2.924h-.51c-.063-.646-.11-1.3-.146-1.958-.034-.655-.05-1.304-.05-1.936h1.343c.157-.186.335-.473.533-.87s.386-.906.562-1.53c.18-.63.33-1.378.454-2.253.124-.876.187-1.898.187-3.076-.276-.075-.53-.172-.75-.294-.227-.118-.43-.243-.61-.373v-.52h8.395v.52c-.355.235-.79.396-1.307.473v7.926l.006-.002zm-1.775-7.882h-2.867c0 1.18-.06 2.21-.178 3.086-.116.877-.26 1.627-.426 2.248-.162.625-.34 1.142-.52 1.56-.19.41-.354.74-.497.99h4.487v-7.884zm12.272 7.685l1.367.197v.416c-.332.17-.697.32-1.1.455-.4.132-.786.23-1.157.296h-.49c-.135-.303-.213-.633-.24-.998-.025-.364-.047-.76-.06-1.193h-.1c-.055.265-.155.53-.308.797-.15.27-.35.513-.592.724-.244.213-.53.383-.86.516-.33.13-.707.195-1.13.195-.8 0-1.458-.242-1.964-.73-.508-.483-.76-1.127-.76-1.917 0-.607.12-1.1.366-1.492.24-.387.6-.693 1.072-.92.48-.226 1.062-.384 1.763-.482.694-.102 1.508-.172 2.43-.23.053-.563.07-1.072.05-1.53-.02-.455-.092-.842-.215-1.164-.127-.324-.31-.572-.554-.756-.245-.173-.564-.262-.96-.262-.187 0-.395.008-.623.032-.23.014-.458.076-.682.162l-.93 2.375h-.512c-.133-.397-.248-.807-.35-1.228-.098-.425-.158-.84-.187-1.244.5-.304 1.057-.54 1.672-.712.61-.172 1.296-.26 2.044-.26.67 0 1.208.098 1.608.292.403.188.71.436.922.74.21.3.348.637.416 1.005.062.37.097.738.097 1.107 0 .79-.02 1.55-.05 2.286-.034.728-.048 1.43-.048 2.1 0 .288.004.544.02.75.02.217.033.438.045.675zM220 133.156c-.765 0-1.392.04-1.876.12-.488.078-.87.203-1.146.376-.28.17-.468.385-.573.646-.104.254-.16.55-.16.875 0 .563.146 1.006.437 1.314s.684.462 1.187.462c.328 0 .617-.064.868-.197.25-.127.46-.287.633-.475.173-.185.312-.37.414-.562.106-.192.182-.355.22-.484l-.004-2.076zm12.964-4.17c.646.78.97 2.04.97 3.796 0 .827-.11 1.578-.328 2.254-.217.668-.526 1.234-.926 1.698-.406.458-.89.816-1.465 1.066-.573.248-1.21.375-1.908.375-.486 0-.87-.03-1.145-.09-.277-.06-.582-.16-.91-.305v3.145c.213.023.423.072.633.146.21.073.435.182.673.324v.5h-4.388v-.5c.446-.208.882-.368 1.304-.47v-11.722l-1.304-.16v-.512c.42-.188.852-.334 1.292-.444.44-.11.875-.2 1.296-.27h.494v2.214h.02c.264-.67.633-1.21 1.108-1.61.474-.4 1.093-.604 1.854-.604 1.173.003 2.082.393 2.73 1.17zm-.93 3.795c0-.54-.044-1.036-.13-1.494-.085-.454-.222-.846-.414-1.185-.19-.332-.438-.594-.75-.78-.31-.185-.687-.275-1.137-.275-.646 0-1.16.205-1.54.613-.387.41-.655.97-.81 1.678v5.537c.236.146.504.252.8.326.3.07.682.107 1.156.107.435 0 .822-.116 1.174-.338.35-.224.646-.54.888-.95.246-.407.435-.887.565-1.434.13-.545.196-1.146.196-1.805zm10.02 3.972c-.34.135-.744.196-1.203.196-.567 0-1.06-.11-1.493-.333-.43-.226-.783-.523-1.065-.896-.282-.378-.49-.802-.633-1.28-.14-.47-.21-.96-.21-1.46 0-1.554.242-2.657.73-3.31.49-.652 1.18-.98 2.075-.98.278 0 .474.017.596.047.118.036.224.084.315.148l.833 2.354h.53c.16-.36.29-.806.396-1.348.104-.54.18-1.027.22-1.463-.355-.185-.79-.33-1.297-.445-.506-.11-1.082-.168-1.727-.168-1.413 0-2.524.448-3.343 1.34-.815.887-1.224 2.168-1.224 3.837 0 .78.094 1.486.286 2.128.187.64.475 1.188.855 1.64.386.456.86.805 1.436 1.05.573.238 1.248.363 2.024.363.714 0 1.335-.158 1.868-.46.532-.313.916-.697 1.156-1.16l-.258-.276c-.233.185-.526.345-.865.472zm2.212-7.123c.04.548.09 1.103.154 1.67h.5l.85-2.374h1.878v8.045c-.46.107-.895.268-1.303.478v.496h4.387v-.496c-.25-.158-.686-.315-1.305-.477v-8.044h1.877l.85 2.375h.5c.078-.566.13-1.132.164-1.69.03-.562.056-1.076.068-1.553h-8.696c.01.5.036 1.025.076 1.572zm18.49 4.387c.15.296.228.642.228 1.04 0 .524-.12.975-.354 1.347-.24.378-.562.688-.97.924-.4.235-.868.408-1.396.523-.527.11-1.085.167-1.67.167-.425 0-.76-.006-1.012-.012-.255-.004-.464-.015-.637-.025-.17-.018-.32-.02-.438-.03-.12-.008-.252-.01-.4-.01h-1.896v-.494c.407-.21.845-.37 1.305-.476v-7.926c-.5-.092-.935-.25-1.304-.473v-.514h1.783c.317 0 .59-.006.813-.012.223-.006.438-.014.635-.03l.6-.03c.196-.005.418-.005.654-.005 1.164 0 2.074.17 2.726.52.647.347.975.956.975 1.824 0 .317-.07.6-.2.853-.133.248-.306.47-.518.652-.21.185-.45.34-.715.462-.266.127-.526.215-.777.27.373.025.726.096 1.065.217.337.116.635.28.892.48.256.208.46.46.614.757zm-5.462-1.336l2.22-.196c.24-.116.485-.337.728-.66.25-.323.373-.748.373-1.272 0-.648-.195-1.09-.592-1.338-.393-.244-.967-.363-1.73-.363-.146 0-.313 0-.5.01-.187.006-.353.028-.5.065v3.756zm3.714 2.535c0-.646-.232-1.137-.692-1.455-.462-.323-1.054-.482-1.775-.482h-1.245v3.814c.185.037.417.06.697.06h.704c.775 0 1.355-.17 1.737-.503.383-.34.575-.816.575-1.435zm11.55-5.43c.22.48.327 1.077.327 1.787 0 .225-.01.456-.028.684-.02.234-.058.48-.106.742h-6.167c0 .555.066 1.074.204 1.553.14.48.352.897.623 1.26.28.352.627.632 1.05.84.422.198.917.3 1.48.3.46 0 .93-.063 1.404-.194.472-.13.83-.303 1.068-.513l.275.314c-.104.222-.27.435-.495.632-.227.197-.48.367-.77.517-.29.143-.607.256-.95.344-.345.087-.694.128-1.047.128-.778 0-1.463-.125-2.058-.363-.594-.244-1.086-.592-1.48-1.05-.397-.45-.697-.995-.9-1.63-.206-.63-.306-1.342-.306-2.135 0-1.686.39-2.97 1.165-3.855.78-.877 1.878-1.322 3.304-1.322.46 0 .916.062 1.363.188.447.128.844.333 1.194.624.35.286.636.672.85 1.15zm-1.53 1.676c0-.848-.16-1.52-.473-2.017-.32-.503-.812-.755-1.483-.755-.75 0-1.324.258-1.72.764-.395.51-.634 1.396-.712 2.675h4.347c.016-.115.025-.23.03-.344.006-.11.01-.222.01-.322zm9.84-2.887c.33.235.728.396 1.188.473v3.46h-4.387v-3.46c.474-.133.86-.287 1.166-.473v-.52h-4.252v.52c.187.106.392.192.614.268.225.068.455.14.688.206v7.926c-.233.065-.465.136-.688.207-.225.07-.43.16-.614.267v.496h4.252v-.496c-.146-.104-.31-.194-.495-.276-.187-.077-.408-.145-.67-.198v-3.596h4.386v3.596c-.46.08-.854.24-1.188.477v.495h4.27v-.496c-.187-.13-.39-.232-.613-.297-.22-.066-.453-.128-.688-.18v-7.927c.517-.09.943-.244 1.305-.472v-.518h-4.27l-.004.517zm12.1 0c.328.235.724.396 1.183.473v3.46h-4.385v-3.46c.478-.133.863-.287 1.164-.473v-.52h-4.25v.52c.188.106.39.192.617.268.22.068.453.14.688.206v7.926c-.235.065-.47.136-.688.207-.23.07-.432.16-.616.267v.496h4.25v-.496c-.146-.104-.31-.194-.493-.276-.185-.077-.41-.145-.672-.198v-3.596h4.386v3.596c-.458.08-.853.24-1.183.477v.495h4.266v-.496c-.182-.13-.385-.232-.607-.297-.228-.066-.457-.128-.692-.18v-7.927c.512-.09.95-.244 1.302-.472v-.518h-4.266l-.003.517zm14.742 0c.295.23.685.38 1.187.473v7.926c-.224.065-.43.138-.614.217-.184.08-.37.163-.552.257v.496h4.248v-.496c-.22-.104-.438-.194-.648-.268-.212-.073-.43-.144-.654-.208v-7.926c.265-.066.51-.138.733-.205.224-.073.412-.16.568-.267v-.52h-4.268v.52zm-1.496 4.047c.6.464.9 1.19.9 2.177 0 .528-.094.992-.288 1.396-.19.4-.456.737-.803 1.01-.34.268-.754.473-1.23.61s-.997.205-1.563.205c-.355 0-.76-.012-1.2-.037-.438-.026-.915-.038-1.417-.038h-1.842v-.496c.23-.13.447-.23.655-.296.21-.066.43-.128.648-.18v-7.927c-.25-.04-.48-.1-.688-.187-.214-.084-.415-.178-.616-.285v-.517h4.27v.518c-.305.188-.7.34-1.186.473v3.045c.225-.025.478-.062.753-.102.275-.038.684-.056 1.208-.056.997 0 1.796.228 2.4.69zm-1.073 2.158c0-.37-.058-.685-.17-.937-.112-.262-.263-.462-.455-.612-.19-.153-.41-.26-.662-.33-.25-.065-.515-.098-.79-.098-.186 0-.382.006-.59.008-.213.01-.416.033-.613.07v4.213c.17.014.34.023.514.038.174.012.35.02.534.02 1.487.002 2.233-.787 2.233-2.37zm12.036.036l-.77 1.486h-.1l.22-1.836v-5.42c.265-.076.49-.158.682-.234.19-.08.354-.16.506-.236v-.518h-4.192v.518c.355.236.788.396 1.305.472v7.926c-.224.068-.438.137-.65.21-.21.07-.425.16-.652.266v.496h2.707l4.19-6.7.754-1.48h.096l-.196 1.56v5.65c-.424.11-.816.267-1.184.477v.497h4.187v-.496c-.17-.103-.366-.193-.592-.267-.225-.073-.462-.14-.715-.207v-7.926c.45-.078.883-.235 1.306-.473v-.52h-2.67l-4.234 6.757zm0-10.907c-.277.023-.54.078-.79.157-.252.08-.484.205-.693.375 0 .304.053.603.148.9.102.29.272.553.525.78.246.224.586.403 1.01.542.42.143.963.21 1.62.21.635 0 1.154-.067 1.57-.21.414-.138.74-.318.986-.54.244-.23.42-.49.522-.782.104-.3.158-.598.158-.9-.158-.147-.356-.264-.602-.355-.244-.094-.505-.152-.78-.18l-.496.258v1.82c-.182.048-.42.09-.712.117-.29.024-.498.04-.632.04-.21 0-.444-.02-.69-.05-.25-.033-.47-.087-.65-.17v-1.76l-.492-.253zm24.666 5.138c.275-.047.518-.12.73-.195.21-.078.403-.168.573-.275v-.516h-3.735l-2.11 5.75-.418 1.38h-.06l-.378-1.36-2.035-5.77h-3.855v.514c.173.106.367.217.578.333.208.12.453.23.73.335l-.296 7.73c-.436.108-.87.265-1.304.475v.495h3.48v-.495c-.322-.17-.713-.33-1.19-.476l.297-8h.16l3.2 8.972h.53l3.24-8.973h.158l.398 8c-.29.095-.53.18-.713.26-.188.08-.346.147-.478.216v.495h4.194v-.494c-.44-.235-.872-.396-1.31-.477l-.388-7.925zm9.13-.472c.33.235.692.396 1.087.473l-1.88 5.832-.295 1.243h-.038l-.375-1.223-2.514-5.853c.475-.146.85-.31 1.127-.494v-.496h-4.15v.52c.17.105.34.196.502.275.165.073.347.147.546.194l4.112 8.896c-.107.34-.2.624-.28.847-.08.227-.145.41-.216.555-.065.146-.13.268-.19.362-.056.1-.128.204-.2.312h-2.06l-.256.476c.076.274.173.565.285.87.112.304.24.574.382.826.344-.066.665-.168.958-.305.3-.14.59-.36.872-.662.283-.3.568-.714.85-1.235.28-.52.585-1.202.898-2.043l3.084-8.896c.476-.132.85-.287 1.13-.473v-.52h-3.38v.52zm8.96 4.01c.254-.083.51-.194.766-.34.26-.145.49-.323.698-.534.202-.21.368-.446.502-.71.132-.263.2-.552.2-.867 0-.77-.293-1.342-.887-1.73-.587-.39-1.42-.584-2.49-.584-.85 0-1.55.073-2.092.217-.542.147-.95.29-1.212.438.015.423.055.85.118 1.285.066.434.17.87.317 1.304h.492l.89-2.233c.068-.025.21-.053.435-.09.222-.03.46-.05.73-.05.573 0 1.034.146 1.394.428.355.284.53.74.53 1.37 0 .278-.04.53-.11.756-.074.225-.166.417-.28.583-.11.163-.23.302-.36.414-.12.113-.242.194-.358.247h-2.032c-.065.167-.1.34-.09.515.006.18.036.353.088.516l1.847-.3c.462.083.824.23 1.094.458.268.23.4.662.4 1.3 0 .28-.05.557-.137.83-.098.27-.232.518-.418.728-.186.212-.425.387-.722.52-.295.135-.646.203-1.057.203-.515 0-.907-.06-1.188-.16-.21-.252-.42-.502-.634-.762-.207-.257-.402-.48-.57-.66h-.397l-.355 1.32c.39.35.865.63 1.44.854.577.22 1.253.333 2.02.333 1.206 0 2.17-.264 2.9-.8s1.094-1.33 1.094-2.385c0-.735-.246-1.306-.734-1.71-.493-.41-1.098-.64-1.83-.706zm12.255-2.798c.216.48.325 1.077.325 1.787 0 .225-.01.456-.028.684-.02.234-.057.48-.106.742h-6.168c0 .555.07 1.074.21 1.553.137.48.344.897.62 1.26.275.352.627.632 1.048.84.422.198.915.3 1.482.3.462 0 .93-.063 1.4-.194.474-.13.83-.303 1.067-.513l.275.314c-.104.222-.27.435-.494.632-.224.197-.48.367-.77.517-.29.143-.608.256-.95.344-.34.087-.69.128-1.05.128-.773 0-1.46-.125-2.053-.363-.596-.244-1.088-.592-1.483-1.05-.396-.45-.692-.995-.896-1.63-.21-.63-.31-1.342-.31-2.135 0-1.686.39-2.97 1.165-3.855.777-.877 1.88-1.322 3.3-1.322.466 0 .918.062 1.364.188.447.128.847.333 1.198.624.353.286.64.672.855 1.15zm-1.528 1.676c0-.848-.16-1.52-.476-2.017-.32-.503-.81-.755-1.485-.755-.753 0-1.322.258-1.72.764-.396.51-.633 1.396-.713 2.675h4.35c.014-.115.023-.23.03-.344.007-.11.012-.222.012-.322zm6.4-5.337c.248.223.585.402 1.006.54.423.144.963.21 1.62.21.635 0 1.157-.066 1.57-.21.417-.137.746-.317.99-.54.24-.23.418-.49.522-.78.106-.3.16-.6.16-.902-.16-.145-.36-.262-.603-.353-.24-.094-.504-.152-.78-.18l-.492.257v1.822c-.187.047-.422.09-.71.115-.29.026-.502.042-.64.042-.203 0-.436-.02-.687-.05-.25-.034-.47-.087-.654-.17v-1.76l-.488-.255c-.28.024-.547.078-.795.157-.253.08-.48.205-.692.375 0 .304.047.602.146.9.1.292.274.554.525.783zm.815 8.69l-.773 1.487h-.1l.218-1.836v-5.42c.263-.076.49-.158.68-.234.193-.08.358-.16.506-.236v-.518h-4.188v.518c.353.236.79.396 1.305.472v7.926c-.228.068-.44.137-.652.21-.212.07-.43.16-.65.266v.496h2.71l4.188-6.7.75-1.48h.1l-.197 1.56v5.65c-.42.11-.818.267-1.187.477v.497h4.19v-.496c-.173-.103-.37-.193-.594-.267-.228-.072-.46-.14-.713-.207v-7.926c.445-.078.883-.235 1.305-.473v-.52h-2.667l-4.23 6.757zM386.94 133h5.577v-1.226h-5.576v1.226zm12.798-.416c.25-.082.51-.193.765-.34.26-.144.49-.322.694-.533.203-.21.373-.446.51-.71.13-.263.194-.552.194-.867 0-.77-.294-1.342-.884-1.73-.59-.39-1.42-.584-2.496-.584-.85 0-1.54.073-2.087.217-.545.147-.947.29-1.212.438.01.423.052.85.118 1.285.065.434.172.87.314 1.304h.493l.894-2.233c.065-.025.212-.053.43-.09.22-.03.462-.05.728-.05.574 0 1.038.146 1.394.428.353.284.532.74.532 1.37 0 .278-.037.53-.11.756-.075.225-.17.417-.278.583-.11.163-.23.302-.356.414s-.25.194-.37.247h-2.028c-.064.167-.096.34-.088.515.004.18.034.353.088.516l1.85-.3c.46.083.82.23 1.09.458.27.23.4.662.4 1.3 0 .28-.047.557-.137.83-.093.27-.23.518-.414.728-.184.212-.428.387-.72.52-.3.135-.65.203-1.063.203-.51 0-.905-.06-1.183-.16-.213-.252-.422-.502-.634-.762-.21-.257-.4-.48-.57-.66h-.396l-.357 1.32c.385.35.865.63 1.44.854.575.22 1.247.333 2.02.333 1.203 0 2.17-.264 2.9-.8.727-.534 1.093-1.33 1.093-2.385 0-.735-.245-1.306-.735-1.71-.492-.41-1.1-.64-1.827-.706zm11.733 4.19l1.36.198v.416c-.328.17-.693.32-1.098.455-.398.132-.787.23-1.155.296h-.493c-.136-.303-.213-.633-.235-.998-.028-.364-.05-.76-.06-1.193h-.103c-.055.265-.157.53-.306.797-.15.27-.352.513-.594.724-.244.213-.53.383-.86.516-.328.13-.703.195-1.125.195-.803 0-1.46-.242-1.966-.73-.51-.483-.765-1.127-.765-1.917 0-.607.12-1.1.365-1.492.245-.387.605-.693 1.08-.92.473-.226 1.06-.384 1.757-.482.698-.102 1.507-.172 2.434-.23.05-.563.066-1.072.048-1.53-.02-.455-.098-.842-.216-1.164-.126-.324-.31-.572-.556-.756-.245-.173-.562-.262-.96-.262-.185 0-.392.008-.622.032-.23.014-.457.076-.682.162l-.93 2.375h-.514c-.134-.397-.248-.807-.345-1.228-.103-.425-.16-.84-.19-1.244.5-.304 1.06-.54 1.67-.712.614-.172 1.295-.26 2.044-.26.675 0 1.212.098 1.612.292.404.188.71.436.92.74.208.3.352.637.413 1.005.066.37.1.738.1 1.107 0 .79-.017 1.55-.05 2.286-.03.728-.05 1.43-.05 2.1 0 .288.01.544.02.75.02.217.04.438.05.675zm-1.74-3.616c-.764 0-1.393.04-1.88.12-.49.078-.87.203-1.147.376-.275.17-.467.385-.574.646-.105.254-.158.55-.158.875 0 .563.146 1.006.435 1.314.293.31.688.462 1.188.462.33 0 .618-.064.867-.197.253-.127.465-.287.634-.475.17-.185.31-.37.413-.562.106-.192.18-.355.22-.484v-2.076zm4.327-4.583c.146.09.33.178.552.255.223.078.478.15.753.218v7.926c-.197.03-.402.076-.614.147-.21.07-.44.182-.69.326v.496h4.248v-.496c-.146-.08-.31-.16-.493-.234-.185-.082-.407-.16-.67-.24v-8.045h4.366v8.045c-.288.067-.523.14-.698.218-.18.08-.337.163-.467.258v.496h4.25v-.496c-.423-.234-.857-.396-1.308-.476v-7.926c.276-.022.52-.086.733-.18.21-.09.4-.187.572-.293v-.52h-10.535v.52zm21.157 2.31c.178.632.27 1.34.27 2.114 0 1.66-.423 2.94-1.267 3.834-.847.898-1.977 1.345-3.4 1.345-.79 0-1.473-.125-2.055-.364-.582-.243-1.062-.592-1.44-1.05-.382-.45-.67-1-.858-1.64-.192-.64-.288-1.346-.288-2.126 0-.827.106-1.56.328-2.204.218-.64.528-1.18.938-1.615.406-.442.9-.78 1.47-1.01.575-.23 1.212-.35 1.905-.35.818 0 1.52.125 2.117.376.596.253 1.075.606 1.45 1.06.375.46.65 1.002.83 1.632zm-1.63 2.115c0-.605-.058-1.166-.168-1.688-.112-.52-.285-.977-.523-1.365-.235-.39-.54-.692-.91-.918-.372-.227-.808-.335-1.323-.335-.777 0-1.405.35-1.878 1.044-.474.7-.71 1.785-.71 3.26 0 .597.058 1.155.168 1.683.112.528.29.985.534 1.372.242.39.56.697.96.92.394.222.866.338 1.42.338.712 0 1.296-.35 1.745-1.05.454-.697.684-1.782.684-3.262zm12.023 1.02c.154.295.23.64.23 1.038 0 .525-.122.976-.36 1.348-.237.378-.558.688-.964.924-.403.235-.872.408-1.4.523-.527.11-1.085.167-1.67.167-.425 0-.762-.006-1.013-.012-.25-.004-.464-.015-.636-.025-.17-.018-.317-.02-.438-.03-.12-.008-.252-.01-.397-.01h-1.9v-.494c.406-.21.843-.37 1.306-.476v-7.926c-.5-.092-.936-.25-1.305-.473v-.514h1.783c.314 0 .586-.006.812-.012s.438-.014.637-.03l.598-.03c.196-.005.42-.005.656-.005 1.166 0 2.07.17 2.72.52.653.347.98.956.98 1.824 0 .317-.068.6-.2.853-.133.248-.308.47-.522.652-.212.185-.446.34-.714.462-.267.127-.523.215-.775.27.37.025.726.096 1.062.217.34.116.64.28.896.48.258.208.464.46.614.757zm-5.464-1.337l2.22-.196c.24-.116.483-.337.734-.66.243-.323.365-.748.365-1.272 0-.648-.197-1.09-.588-1.338-.396-.244-.97-.363-1.732-.363-.144 0-.31 0-.497.01-.187.006-.353.028-.502.065v3.756zm3.716 2.535c0-.646-.23-1.137-.69-1.455-.464-.323-1.056-.482-1.78-.482h-1.245v3.814c.186.037.415.06.702.06h.703c.774 0 1.354-.17 1.736-.503.384-.34.573-.816.573-1.435zm11.55-5.43c.218.48.326 1.077.326 1.787 0 .225-.008.456-.028.684-.018.234-.056.48-.105.742h-6.168c0 .555.067 1.074.208 1.553.14.48.347.897.62 1.26.276.352.626.632 1.05.84.423.198.917.3 1.482.3.46 0 .928-.063 1.4-.194.476-.13.83-.303 1.07-.513l.274.314c-.107.222-.272.435-.497.632-.223.197-.48.367-.77.517-.29.143-.605.256-.948.344-.34.087-.69.128-1.047.128-.777 0-1.463-.125-2.055-.363-.594-.244-1.09-.592-1.485-1.05-.393-.45-.69-.995-.895-1.63-.206-.63-.313-1.342-.313-2.135 0-1.686.393-2.97 1.172-3.855.775-.877 1.875-1.322 3.3-1.322.464 0 .918.062 1.362.188.447.128.85.333 1.193.624.357.286.636.672.852 1.15zm-1.53 1.676c0-.848-.157-1.52-.475-2.017-.313-.503-.81-.755-1.48-.755-.75 0-1.325.258-1.72.764-.396.51-.637 1.396-.715 2.675h4.352c.013-.115.022-.23.026-.344.008-.11.012-.222.012-.322zm11.422 5.51h1.762c.01.63 0 1.28-.04 1.936-.04.66-.1 1.312-.177 1.958h-.486l-.878-2.923h-7.41l-.88 2.924h-.508c-.066-.646-.114-1.3-.146-1.958-.03-.655-.05-1.304-.05-1.936h1.348c.153-.186.337-.473.532-.87.2-.397.387-.906.562-1.53.18-.63.33-1.378.455-2.253.123-.876.188-1.898.188-3.076-.273-.075-.524-.172-.75-.294-.226-.118-.43-.243-.613-.373v-.52h8.397v.52c-.353.235-.786.396-1.304.473v7.924zm-1.78-7.882h-2.864c0 1.18-.06 2.21-.176 3.086-.12.877-.262 1.627-.426 2.248-.164.625-.342 1.142-.52 1.56-.19.41-.353.74-.498.99h4.485v-7.884zm11.168-.515c.327.235.726.396 1.187.473v3.46h-4.388v-3.46c.476-.133.862-.287 1.163-.473v-.52h-4.247v.52c.185.106.39.192.61.268.227.068.456.14.693.206v7.926c-.238.065-.47.136-.693.207-.225.07-.43.16-.61.267v.496h4.246v-.496c-.143-.104-.31-.194-.494-.276-.185-.077-.403-.145-.67-.198v-3.596h4.387v3.596c-.46.08-.857.24-1.187.477v.495h4.27v-.496c-.183-.13-.39-.232-.613-.297-.224-.066-.452-.128-.688-.18v-7.927c.516-.09.947-.244 1.302-.472v-.518h-4.27l-.002.517zm9.467 6.24l-.77 1.487h-.095l.21-1.836v-5.42c.268-.076.496-.158.686-.234.19-.08.358-.16.506-.236v-.518h-4.188v.518c.354.236.786.396 1.305.472v7.926c-.225.068-.442.137-.655.21-.21.07-.428.16-.646.266v.496h2.706l4.19-6.7.745-1.48h.1l-.19 1.56v5.65c-.426.11-.82.267-1.188.477v.497h4.188v-.496c-.17-.103-.367-.193-.592-.267-.226-.073-.466-.14-.714-.207v-7.926c.448-.078.883-.235 1.306-.473v-.52h-2.668l-4.235 6.757zm16.467 1.05c-.328-.395-.657-.794-.99-1.204-.327-.41-.655-.807-.98-1.188-.317-.38-.63-.73-.918-1.047.557-.553 1.08-1.105 1.582-1.662.5-.553.98-1.1 1.424-1.637.313-.104.582-.203.8-.277.22-.08.395-.17.525-.277v-.52h-3.815v.52c.174.106.35.2.545.285.188.088.396.174.623.27-.408.614-.853 1.19-1.325 1.715-.475.53-.98 1.095-1.503 1.703l-.91.195v-3.694c.213-.065.396-.14.544-.215.153-.08.295-.165.426-.256v-.518h-4.05v.518c.406.228.84.382 1.305.472v7.926c-.514.106-.948.267-1.305.477v.495h4.365v-.496c-.157-.105-.344-.195-.562-.27-.217-.07-.457-.14-.724-.206v-3.72h.793c.498.69.996 1.39 1.48 2.1.487.71 1.026 1.422 1.62 2.134l.637.457h2.312v-.496l-.932-.478c-.318-.34-.64-.713-.966-1.108zm-12.06-48.818l.005.03-.006.138c-.084 14.338-10.495 24.35-25.312 24.35-14.82 0-25.23-10.012-25.314-24.35V87.045c.087-14.335 10.494-24.35 25.314-24.35 14.817 0 25.228 10.013 25.312 24.35zm-11.1-.002c0-17.445-7.73-21.103-14.21-21.103-6.482 0-14.205 3.657-14.205 21.103 0 14.197 4.645 21.104 14.203 21.105 9.558 0 14.21-6.908 14.21-21.105zm-246.45-23.487c-.074.18-2.472 8.585-2.472 10.645 0 1.236.743 1.58 1.367 1.333.12-4.465 3.633-7.613 8.27-8.07 1.343-.134 4.41-.125 5.248 0 1.264.183 1.54.354 1.97.787 1.23 1.23 1.227 3.566 1.22 6.275V99.42c0 1.907-.062 3.397-.245 4.585-.232 3.055-2.783 5.463-5.896 5.463-.188 0-.375-.014-.56-.027-.044.098-.074.206-.074.34 0 .723 1.29 1.05 2.482 1.05.268 0 .516-.016.696-.047 2.625-.46 5.29-.72 8.14-.793.077.002.372.002.453 0 2.854.072 5.517.334 8.14.793.18.03.427.046.69.046 1.197 0 2.487-.327 2.487-1.05 0-.134-.03-.242-.074-.34-.185.017-.372.028-.56.028-3.11 0-5.662-2.408-5.897-5.463-.183-1.188-.25-2.678-.25-4.584V74.526c-.005-2.71-.01-5.044 1.223-6.275.43-.433.703-.604 1.968-.787.837-.125 3.906-.134 5.25 0 4.64.458 8.15 3.605 8.272 8.07.622.248 1.366-.097 1.366-1.332 0-2.058-2.398-10.463-2.47-10.644h-40.745zm94.433 30.782c-.144 0-.26.035-.354.092.02.133.042.27.042.432 0 6.65-5.396 12.05-12.046 12.05-.033 0-7.56.27-9.895-.412-1.642-.48-2.585-1.287-3.05-2.62l.27-.19-.298.095-.02-.084c-.184-.77-.294-1.656-.347-2.738l-.038-2.14-.002-8.46c.145-1.066.675-1.714 1.47-1.843v-.027h1.043c2.052 0 3.29 0 4.844 1.557 1.262 1.258 1.865 2.332 2.31 3.12.248.443.447.794.675 1.023.472.476 1.285.33 1.285-.795 0-.66-.104-1.99-.197-3.278-.105-1.36-.213-2.77-.213-3.52 0-.745.105-2.157.213-3.522.095-1.288.197-2.62.197-3.277 0-1.124-.813-1.265-1.285-.796-.228.23-.427.58-.676 1.024-.44.783-1.047 1.86-2.31 3.117-1.558 1.562-2.793 1.562-4.843 1.562h-.73c-.968 0-1.62-.662-1.778-1.814l-.002-3.778.002-4.246c0-6.974 0-7.546 5.335-7.546h6.975c.72 0 1.354.005 1.942.048.03-.002.064-.006.097-.006 4.52 0 8.182 3.614 8.28 8.105.62.234 1.35-.12 1.35-1.34 0-2.1-.563-9.23-.573-9.297-.01-.145-.14-1.387-1.427-1.387h-17.366c-.247-.01-.438-.01-.614 0h-17.706c-.114-.007-.215-.007-.32-.007-1.205 0-2.496.327-2.496 1.052 0 .197.06.35.163.476.17-.01.348-.027.52-.027 1.93 0 3.637.927 4.72 2.354.27.326.504.704.687 1.16.29.644.462 1.347.5 2.087.152 1.144.208 2.56.208 4.332l.004 12.266-.004 12.263c0 1.897-.063 3.377-.244 4.566-.194 3.092-2.76 5.54-5.9 5.54-.197 0-.395-.013-.59-.03-.037.09-.06.188-.06.306 0 .73 1.29 1.057 2.494 1.057.266 0 .51-.018.69-.048 2.7-.474 5.547-.744 8.468-.808l.607.01c4.044.03 7.97.25 11.77.464 2.95.165 4.574.32 7.127.37.315.005.646.006.983.006 5.695 0 12.237-1.146 12.237-10.08 0-2.017-.452-3.98-1.38-6.004-.117-.25-.414-.412-.743-.412zm-160.062 15.434c0-.104-.023-.198-.054-.283-.188.02-.385.03-.58.03-3.104 0-5.644-2.392-5.896-5.43-.195-1.208-.265-2.73-.265-4.696l-.01-12.266.01-12.266c0-1.82.06-3.264.22-4.42.046-.714.215-1.39.49-2.012.14-.338.303-.63.492-.898.01-.006.01-.016.018-.023.036-.055.08-.11.12-.158 1.077-1.48 2.812-2.443 4.78-2.443.18 0 .355.01.53.023.09-.12.144-.264.144-.447 0-.708-1.265-1.042-2.43-1.053H115.07c-1.17.01-2.427.345-2.427 1.053 0 .185.054.328.14.447.18-.013.352-.024.53-.024 1.966 0 3.706.963 4.783 2.442.043.05.08.104.12.157.007.008.01.018.014.022.19.27.36.562.493.898.278.62.445 1.297.492 2.01.16 1.16.22 2.603.22 4.422l.01 12.266-.01 12.266c0 1.967-.07 3.488-.263 4.695-.25 3.038-2.793 5.43-5.896 5.43-.197 0-.387-.013-.578-.03-.034.084-.054.18-.054.282 0 .73 1.29 1.055 2.488 1.055.268 0 .516-.015.696-.046 2.722-.478 5.568-.745 8.466-.806 2.91.06 5.76.33 8.478.807.184.032.433.047.697.047 1.2 0 2.488-.326 2.488-1.055 0-.104-.02-.198-.052-.285-.193.02-.396.034-.6.034-3.162 0-5.74-2.488-5.9-5.608-.175-1.18-.238-2.646-.238-4.518l-.008-12.266.018-18.092c.064-.99.877-1.776 1.882-1.776h15.905c1.005 0 1.816.785 1.883 1.776l.015 18.092-.007 12.266c0 1.87-.062 3.34-.232 4.518-.167 3.12-2.742 5.61-5.903 5.61-.203 0-.402-.015-.6-.035-.03.087-.056.182-.056.285 0 .73 1.292 1.055 2.49 1.055.265 0 .513-.015.696-.046 2.722-.478 5.57-.745 8.48-.806 2.895.06 5.744.33 8.46.807.19.032.435.047.7.047 1.202 0 2.495-.327 2.495-1.055zm351.703-5.95c-11.445 0-18.013-6.452-18.013-17.705v-.104c0-11.25 6.565-17.704 18.01-17.704 1.833 0 3.785.166 5.812.495l.428.062c-.032-.326-.068-.64-.11-.93-.237-3.056-2.785-5.466-5.897-5.466-.188 0-.375.014-.56.03-.044-.1-.076-.205-.076-.34 0-.72 1.29-1.048 2.488-1.048.265 0 .51.015.688.047 2.625.456 5.288.716 8.143.792h.45c2.854-.077 5.52-.336 8.145-.793.182-.033.425-.048.69-.048 1.197 0 2.486.328 2.486 1.048 0 .135-.03.24-.07.34-.19-.017-.374-.03-.563-.03-3.113 0-5.662 2.41-5.896 5.467-.04.294-.08.607-.11.938l.412-.07c2.02-.33 3.98-.497 5.81-.497 11.447 0 18.01 6.453 18.01 17.704v.104c0 11.253-6.562 17.706-18.01 17.706-1.837 0-3.8-.166-5.83-.498l-.42-.072c.037.47.08.92.142 1.318.234 3.057 2.783 5.463 5.896 5.463.188 0 .374-.01.562-.027.04.1.072.21.072.338 0 .724-1.29 1.05-2.486 1.05-.268 0-.51-.015-.69-.044-2.626-.46-5.29-.72-8.145-.795-.08.004-.37.004-.45 0-2.854.076-5.517.334-8.142.795-.178.03-.424.045-.687.045-1.198 0-2.488-.327-2.488-1.05 0-.13.032-.24.076-.34.186.02.37.028.56.028 3.113 0 5.66-2.406 5.898-5.463.06-.402.104-.854.143-1.333l-.437.086c-2.038.333-4 .5-5.835.5zm15.9-3.837c0 .172.005.323.005.492l.345.053c.905.096 1.732.143 2.53.143 7.927 0 11.776-4.777 11.788-14.604-.012-9.83-3.86-14.607-11.79-14.607-.796 0-1.623.05-2.526.146l-.07.005-.27.038c-.007.288-.013.564-.013.875v27.458zm-12.428.687c.8 0 1.626-.047 2.533-.144l.354-.065c0-.16.008-.31.008-.48V72.52c0-.31-.008-.597-.008-.888l-.288-.023-.07-.007c-.906-.095-1.73-.146-2.53-.146-7.924 0-11.78 4.778-11.79 14.606.01 9.83 3.867 14.61 11.79 14.61zm-107.576 8.85c-3.163 0-5.74-2.49-5.902-5.61-.174-1.18-.236-2.646-.236-4.518v-.547l-.002-.026v-1.506l-.004-10.186.006-17.948-.002-.024.002-.024v-.09l.01-.004c.06-.992.877-1.777 1.88-1.777.022 0 .04.007.063.007l.005-.006 10.356.01c.717 0 1.35.005 1.94.047l.1-.002c4.518 0 8.185 3.613 8.28 8.104.617.233 1.347-.122 1.347-1.346 0-2.094-.564-9.225-.57-9.294-.015-.144-.142-1.39-1.43-1.39H392.75c-1.022.01-2.11.31-2.37.846-.038.078-.06.16-.06.25 0 .096.02.18.044.255.008.026.024.052.036.078.024.04.04.082.068.115.172-.013.35-.024.52-.024 1.93 0 3.633.927 4.712 2.354.01.006.02.013.02.02l.005.01c.016.02.036.033.048.06.04.048.08.103.12.156.005.01.01.02.017.023.028.038.047.08.072.12.062.084.116.174.168.266.062.108.12.227.173.35.026.06.062.11.086.176.288.644.46 1.347.5 2.086.153 1.144.208 2.56.208 4.332l.005 12.266-.005 12.262c0 1.896-.064 3.377-.244 4.566-.062 1.002-.378 1.932-.878 2.735l-.004.005c-.09.145-.187.283-.286.422-.045.06-.095.12-.146.178-.056.076-.112.15-.178.22-1.082 1.228-2.663 2.004-4.43 2.004-.19 0-.387-.013-.575-.032-.03.085-.06.18-.06.283 0 .728 1.293 1.055 2.493 1.055.268 0 .512-.016.697-.046.146-.027.3-.05.447-.07 2.586-.428 5.273-.68 8.017-.736 2.91.062 5.755.33 8.478.808.185.03.434.046.7.046.78 0 1.598-.143 2.07-.444.253-.158.414-.358.414-.61 0-.103-.02-.197-.054-.284-.193.015-.395.03-.594.03zM361.22 88.42c-.867 0-1.622-.082-2.292-.22-.104.068-.18.138-.204.19-.168.41.087.853.23.993.455.457 2.84 1.754 7.596 1.754 3.937 0 14.162-2.502 14.162-13.93 0-6.185-1.69-9.208-5.723-11.687-4.012-2.47-12.164-2.082-12.164-2.082l-22.902-.007c-1.02.012-2.11.268-2.368.804-.04.078-.06.16-.06.25 0 .096.014.18.04.255l.038.076c.02.04.04.082.067.115.172-.012.347-.023.523-.023 1.924 0 3.63.928 4.71 2.355.007.006.017.013.02.02 0 .003 0 .008.005.01.017.02.178.233.184.24.027.037.474.847.502.91.29.645.46 1.348.5 2.087.15 1.143.206 2.56.206 4.33v24.53c0 1.896-.064 3.375-.243 4.563-.062 1.003-.377 1.935-.877 2.737-.004 0-.004.003-.004.005-.09.146-.548.75-.608.818-1.08 1.228-2.664 2.004-4.432 2.004-.19 0-.388-.014-.57-.032-.033.085-.062.18-.062.283 0 .727 1.292 1.055 2.492 1.055.267 0 .512-.015.693-.046.152-.026 5.726-.75 8.463-.807 2.914.06 5.76.33 8.48.807.185.03.432.046.696.046.784 0 1.602-.144 2.074-.443.25-.16.413-.36.413-.61 0-.104-.02-.198-.053-.285-.196.02-.396.034-.604.034-3.16 0-5.735-2.49-5.897-5.61-.173-1.18-.236-2.646-.236-4.518v-.547l-.004-.026V97.31l.012-28.276c.062-.99.88-1.776 1.882-1.776h6.845c7.544 0 8.854 6.86 8.937 9.938 0 0 .047.528.047.703 0 5.813-4.71 10.52-10.517 10.52zm-178.65 15.537c-.196 3.092-2.76 5.537-5.897 5.537-.2 0-.396-.01-.59-.027-.036.09-.06.188-.06.306 0 .73 1.29 1.055 2.49 1.055.268 0 .515-.015.697-.046 2.695-.473 5.543-.745 8.464-.807l.61.01c4.04.03 7.968.25 11.764.463 2.95.166 4.58.32 7.13.37.314.005.646.006.984.006 5.698 0 12.238-1.146 12.238-10.08 0-2.016-.452-3.98-1.382-6.004-.104-.238-.405-.398-.74-.398-.14 0-.25.033-.352.09.02.134.042.27.042.433 0 6.65-5.396 12.05-12.045 12.05-.032 0-7.562.27-9.894-.413-1.643-.478-2.582-1.287-3.054-2.62l.273-.19-.302.095-.02-.084c-.186-.77-.294-1.658-.348-2.74l-.043-2.14v-8.46c.147-1.066.68-1.713 1.475-1.84v-.028h1.042c2.052 0 3.292 0 4.846 1.556 1.264 1.26 1.865 2.335 2.304 3.124.252.44.447.793.68 1.02.47.478 1.286.33 1.286-.794 0-.66-.104-1.99-.2-3.278-.106-1.362-.212-2.772-.212-3.522 0-.743.104-2.155.21-3.52.097-1.29.202-2.62.202-3.28 0-1.124-.818-1.264-1.287-.794-.23.228-.427.578-.68 1.023-.437.783-1.04 1.857-2.303 3.117-1.557 1.562-2.795 1.562-4.846 1.562h-.73c-.97 0-1.62-.663-1.78-1.817l-.006-3.777V74.87c0-6.973 0-7.545 5.34-7.545h6.978c.72 0 1.354.005 1.943.048.03-.002.06-.006.097-.006 4.516 0 8.182 3.614 8.276 8.105.62.233 1.353-.122 1.353-1.34 0-2.1-.566-9.23-.572-9.3-.012-.144-.14-1.385-1.43-1.385h-17.37c-.247-.01-.436-.01-.615 0h-17.706c-.11-.007-.214-.007-.32-.007-1.2 0-2.493.328-2.493 1.053 0 .197.06.35.16.476.175-.012.348-.028.523-.028 1.927 0 3.635.926 4.71 2.352.28.326.513.704.694 1.16.286.644.458 1.347.498 2.086.152 1.144.206 2.56.206 4.332l.007 12.266-.006 12.262c.003 1.885-.06 3.367-.24 4.557z"/></g></svg>