<svg xmlns="http://www.w3.org/2000/svg" width="558.428" height="309.631" viewBox="0 0 558.428 309.631"><path fill="#fff" d="M286.31 30.6c.917 0 1.657.738 1.657 1.66 0 .918-.74 1.66-1.656 1.66-.92 0-1.665-.742-1.665-1.66 0-.922.746-1.66 1.666-1.66zm-5.844 10.92h7.547l.307-.825h-8.045l.19.825zM557.64 295.54h-56.942c-.438 0-.79.487-.79 1.11 0 .607.353 1.104.79 1.104h56.94c.435 0 .788-.496.788-1.104.002-.623-.353-1.11-.787-1.11zM289.066 36.154c.28.22.21-.15.11-.543 0-.005 0-.005-.005-.01-.074-.33-.12-.583-.146-.788-.008-.09-.016-.18-.02-.275-.012-.237.012-.388.027-.53.008-.052.02-.102.035-.15.008-.02.016-.035.02-.055.038-.097.087-.175.15-.23 0-.002.003-.004.01-.007.06-.052.136-.08.226-.082h.03c.153.01.355.085.608.28.293.22.1-1.173 1.09-1.617.2-.09.322-.06.42 0 .812.5.152 1.836.523 1.616.732-.436.986-.31 1.012.015.002.037.002.074.002.107l-.003.018c0 .04-.006.074-.012.104-.07.28-.12.582-.646 1.5h-.003c-.053.08-.098.16-.146.244-.003.007-.01.017-.013.025-.05.08-.092.154-.123.22-.11.233-.104.343.252.08.08-.056.145-.11.225-.17.175-.126.362-.265.46-.33h.004c.285-.187 1.02-.566 1.248-.278.11.14.13.283.11.427h-.007c-.035.196-.158.467-.395.836-.256.396.957-.11 1.186.962.025.13.025.278-.088.5-.562 1.096-1.643.566-1.52.96.524 1.83-1.052 1.228-1.513.855 0 0-.89-.613-1.11-.26-.34.56-.376 1.307-.245 1.944h-2.12c.355-.64.583-1.386.44-1.943-.056-.19-.405-.095-.714.03-.26.103-.482.228-.482.228-.07.04-.156.086-.246.136-.004 0-.01 0-.014.006-.09.04-.19.08-.29.12-.005.004-.015.004-.024.01-.1.035-.197.063-.297.087-.012.003-.02.008-.037.008-.096.022-.186.033-.27.035l-.02.003c-.015 0-.022 0-.032-.003l-.064-.004h-.006c-.35-.05-.477-.357.09-1.246.26-.395-1.004.135-1.182-.962-.035-.22.016-.37.084-.5.607-1.07 1.64-.563 1.525-.96-.052-.182-.08-.34-.097-.477-.002 0-.002-.01-.002-.012-.015-.133-.01-.248 0-.342.03-.142.1-.288.26-.433.087-.075.188-.105.3-.105h.006c.008 0 .016.006.02.006.065 0 .132.01.196.03.02.004.035.01.057.015.073.024.142.055.208.09.004 0 .01.004.012.008.068.032.125.067.18.105.018.01.027.017.045.025.053.04.1.075.135.104.068.06.186.185.303.293.07.076.13.135.195.205.036.042.066.057.09.082zm.475 1.455c-.102.563.273 1.022.844 1.022.562 0 1.104-.46 1.203-1.023.1-.57-.28-1.026-.843-1.026-.567-.002-1.104.457-1.205 1.025zM273.945 8.015l.162-.17c.78-.803 1.964-.972 2.816-.972.198 0 .375.005.507.02V8.98c-1.798.507-3.127 2.145-3.127 4.103 0 2.283 1.8 4.14 4.054 4.258.57 0 1.183-.113 1.77-.282 1.603-.608 2.74-2.16 2.74-3.975 0-1.95-1.313-3.58-3.103-4.095l.02-2.094c.133-.016.312-.02.504-.02.855 0 2.043.168 2.82.97l.164.17.322-.214.02-.196V3.35l-.19-.022-.216-.08-.127.125c-.31.334-.694.54-1.097.686-.102.036-.203.092-.31.122-.15.04-.306.062-.46.09-.092.015-.19.042-.28.05-.23.03-.452.04-.663.04-.193 0-.36-.01-.502-.024-.035-.543-.118-2.594.85-3.795.06-.045.076-.174.027-.324l-.055-.205h-.043L280.53 0l-1.927.004L276.675 0l-.014.015h-.04l-.057.204c-.047.15-.032.278.027.323.97 1.2.888 3.252.848 3.795-.14.01-.304.024-.498.024-.364 0-.783-.048-1.207-.14-.573-.13-1.187-.374-1.676-.873l-.074-.046-.387.045v4.255l.02.196.33.216zm23.362 39.916h-37.46l-2.114-5.494H299.426l-2.12 5.494zm-32.75-2.797c-.03-.656-.502-1.162-1.046-1.133-.542.024-.956.582-.924 1.236.035.653.51 1.16 1.052 1.133.54-.028.958-.583.92-1.235zm9.663.05c0-.653-.528-1.187-1.186-1.187-.654 0-1.188.532-1.188 1.187 0 .653.533 1.187 1.188 1.187.656 0 1.186-.534 1.186-1.187zm11.023 0c0-.653-.53-1.187-1.186-1.187-.658 0-1.19.532-1.19 1.187 0 .653.53 1.187 1.19 1.187.655 0 1.186-.534 1.186-1.187zm9.324.054c.035-.656-.38-1.213-.922-1.238-.543-.028-1.014.478-1.047 1.134-.04.65.373 1.207.918 1.235.543.03 1.018-.477 1.05-1.13zm-34.852-3.72h5.88l.086-.825h-6.414l.45.825zm9.47 0h7.548l.19-.825h-8.044l.306.825zm31.658-4.38c.318 0 .527.177.594.425l1.23-2.98c-.04.015-.068.024-.11.05-.364.194.44-.992-.194-1.43-.076-.058-.176-.085-.367 0-.96.393-1.018 1.624-1.24 1.43-.453-.398-.738-.273-.912.032-.012.02-.02.037-.025.05-.026.043-.046.088-.062.138-.037.13-.082.262-.113.475-.016.08-.02.16-.023.243-.016.18-.018.404-.006.7v.01c.025.383.025.747-.254.407-.05-.058-.086-.114-.135-.18-.092-.1-.174-.21-.227-.265-.158-.164-.633-.504-.977-.25-.166.13-.256.266-.305.39-.03.086-.05.186-.06.305v.01c-.007.12-.007.26.007.42.02.23-.322.124-.768.283-.008 0-.014.01-.02.01-.233.09-.48.242-.726.564-.08.108-.153.244-.16.438-.02.973 1.188.504.895.857-1.348 1.62.34 1.087.93.753 0 0 1.078-.543 1.104-.23.038.49-.288 1.163-.712 1.727h1.598l1.21-2.917c-.245.21-.544.352-.83.352-.505 0-.77-.406-.583-.91.18-.502.736-.906 1.24-.906zm-14.795-9.522c0 .918.742 1.66 1.658 1.66.918 0 1.662-.742 1.662-1.66s-.744-1.66-1.662-1.66c-.916 0-1.658.742-1.658 1.66zm-15.2 6.302c.918 0 1.66-.742 1.66-1.66 0-.922-.742-1.66-1.66-1.66-.917 0-1.662.738-1.662 1.66 0 .918.745 1.66 1.663 1.66zm7.76-10.94c-1.03 0-1.866.838-1.866 1.864 0 1.034.835 1.87 1.865 1.87 1.034 0 1.87-.836 1.87-1.87 0-1.026-.835-1.864-1.87-1.864zm-9.16 6.297c.918 0 1.66-.74 1.66-1.66s-.742-1.66-1.66-1.66c-.92 0-1.662.743-1.662 1.66s.743 1.66 1.662 1.66zm5.452 6.948c-.09-.195-.152-.36-.197-.504v-.015c-.043-.14-.062-.26-.063-.363.003-.15.053-.312.195-.465.3-.312 1.02.1 1.284.3.084.065.228.194.384.312.086.08.153.147.24.22.486.403.325-.03.128-.494-.005-.006-.005-.01-.005-.01-.146-.358-.238-.623-.302-.844-.027-.097-.058-.193-.08-.296-.052-.252-.058-.41-.065-.565 0-.055.005-.108.01-.16l.016-.06c.074-.374.36-.523 1.082-.046.354.234-.117-1.25.86-1.725.194-.096.33-.063.44 0 .96.53.512 1.958.866 1.724.698-.463.997-.33 1.086.02.008.042.018.077.02.11.005.006.005.016.005.025.002.032.004.073.002.108-.02.304-.018.623-.406 1.6-.222.5-.45 1.048.073.61.074-.065.135-.124.205-.187.164-.126.336-.278.428-.35.268-.198.984-.608 1.287-.298.143.15.188.31.193.455h-.006c-.002.21-.08.502-.264.893-.197.424 1.004-.12 1.445 1.03.056.136.08.296 0 .53-.397 1.165-1.644.603-1.444 1.026.906 1.948-.883 1.306-1.45.905 0 0-1.06-.65-1.23-.27-.256.594-.153 1.39.1 2.073h-2.26c.26-.685.364-1.48.102-2.074-.167-.38-1.23.27-1.23.27-.562.4-2.357 1.044-1.447-.904.197-.424-1.047.14-1.443-1.027-.078-.234-.055-.396 0-.53.44-1.146 1.64-.602 1.443-1.025zm2.62 1.116c0 .605.484 1.098 1.088 1.098.608 0 1.097-.493 1.097-1.097 0-.603-.486-1.086-1.097-1.086-.603 0-1.087.483-1.087 1.087zm10.346-14.36c0 .917.744 1.66 1.658 1.66.92 0 1.662-.743 1.662-1.66 0-.918-.742-1.66-1.662-1.66-.914 0-1.658.742-1.658 1.66zm5.586-4.637c0-.923-.736-1.665-1.662-1.665-.916 0-1.658.742-1.658 1.665 0 .915.742 1.655 1.658 1.655.926 0 1.662-.74 1.662-1.655zm-14.845-.42c-1.227 0-2.225.998-2.225 2.226s.998 2.223 2.225 2.223c1.232 0 2.224-.994 2.224-2.224 0-1.23-.99-2.226-2.223-2.226zm0 9.306c-.928 0-1.684.752-1.684 1.686 0 .928.756 1.686 1.684 1.686.933 0 1.685-.758 1.685-1.686 0-.935-.753-1.687-1.685-1.687zm12.966 14.29h5.877l.45-.825h-6.417l.09.825zM225.49 151.66c.684 1.394 1.563 2.734 2.69 3.883 1.11 1.162 2.467 2.123 3.94 2.84 2.973 1.417 6.364 1.796 9.602 1.54 3.386-.26 6.542-1.775 9.39-3.48 5.166-3.092 11.454-10.13 15.328-15.924 4.67-6.98 9.284-16.755 11.957-21.98.008-.018.016-.03.025-.052.007.02.015.034.022.052 2.672 5.225 7.286 15 11.956 21.98 3.877 5.794 10.16 12.83 15.326 15.923 2.852 1.703 6.008 3.22 9.396 3.48 3.23.256 6.623-.123 9.596-1.54 1.477-.717 2.832-1.678 3.943-2.84 1.128-1.147 2.005-2.49 2.69-3.883.687-1.396 1.126-2.873 1.415-4.354.28-1.496.355-2.992.17-4.504-.354-2.96-1.59-5.73-3.465-7.883-1.86-2.165-4.414-3.656-7.078-4.19-2.645-.578-5.506-.154-7.713 1.242-2.212 1.38-3.772 3.535-4.374 5.85-1.37 5.29 1.54 9.678 5.068 10.78 1.916.593 3.746.345 5.232-.22 1.498-.568 3.877-2.334 3.854-6.232-.02-3.042-2.05-4.2-3.672-4.2-1.842 0-3.336 1.497-3.336 3.337s.814 2.29 1.594 2.933c.977.813.77 3.246-2.945 2.13-3.73-1.122-4.4-5.56-3.735-7.982.498-1.8 1.625-3.597 3.365-4.736 1.74-1.158 4.023-1.582 6.318-1.147 2.3.39 4.5 1.665 6.148 3.546 1.662 1.876 2.807 4.345 3.12 6.966.278 2.605-.313 5.422-1.622 7.824-1.293 2.422-3.41 4.36-5.953 5.375-2.552 1.03-5.44 1.162-8.286.74-2.744-.38-5.29-1.736-7.533-3.53-2.253-1.792-4.073-4.155-6.013-6.435-7.88-9.274-15.256-26.333-17.896-31.52-.395-.8-1.15-2.29-2.052-4.033 1.322-2.685 2.605-5.304 3.89-7.834 2.395-4.69 4.716-9.1 7.224-12.904 2.496-3.798 5.174-7.037 8.033-9.296 2.83-2.29 5.816-3.575 8.406-3.914 2.603-.34 4.69.14 5.993.643.67.25 1.107.484 1.447.674.338.185.502.29.502.29.44.298 1.037.18 1.332-.266.295-.437.18-1.03-.264-1.33-.096-.06-.19-.105-.295-.13l-.064-.015s-.78-.2-2.255-.568c-1.475-.324-3.674-.838-6.525-.65-2.844.148-6.3 1.185-9.645 3.338-3.355 2.135-6.672 5.172-9.855 8.775-3.188 3.62-6.3 7.805-9.2 12.416-.468.73-1.304 2.23-2.265 4.016-.96-1.785-1.795-3.287-2.264-4.016-2.9-4.61-6.013-8.795-9.2-12.416-3.186-3.604-6.5-6.64-9.855-8.775-3.348-2.153-6.8-3.188-9.646-3.338-2.853-.188-5.052.326-6.526.65l-2.255.568-.064.015c-.104.024-.205.07-.297.13-.44.3-.56.893-.263 1.33.294.447.89.564 1.332.268 0 0 .162-.106.496-.29.346-.19.78-.425 1.453-.675 1.303-.504 3.39-.982 5.985-.643 2.593.34 5.58 1.625 8.41 3.914 2.857 2.26 5.537 5.498 8.035 9.295 2.51 3.806 4.83 8.212 7.226 12.903 1.28 2.53 2.562 5.15 3.884 7.834-.896 1.744-1.653 3.232-2.05 4.033-2.642 5.187-10.02 22.244-17.898 31.52-1.937 2.28-3.757 4.643-6.016 6.436-2.24 1.793-4.784 3.148-7.528 3.53-2.848.42-5.733.29-8.287-.74-2.542-1.015-4.66-2.954-5.953-5.376-1.31-2.402-1.9-5.22-1.62-7.824.31-2.62 1.455-5.09 3.116-6.965 1.648-1.88 3.854-3.155 6.15-3.545 2.29-.435 4.578-.01 6.313 1.147 1.748 1.14 2.872 2.937 3.366 4.736.668 2.424-.008 6.86-3.73 7.982-3.722 1.116-3.924-1.316-2.95-2.13.78-.644 1.594-1.093 1.594-2.933s-1.492-3.336-3.333-3.336c-1.625 0-3.65 1.158-3.672 4.2-.02 3.898 2.355 5.664 3.855 6.232 1.486.562 3.314.812 5.233.22 3.523-1.103 6.44-5.49 5.07-10.78-.6-2.313-2.165-4.47-4.38-5.85-2.2-1.396-5.062-1.82-7.706-1.242-2.665.534-5.218 2.025-7.078 4.19-1.875 2.153-3.112 4.92-3.466 7.882-.19 1.512-.112 3.008.17 4.504.297 1.48.737 2.958 1.423 4.354zM.808 190.77H557.62c.44 0 .807-.5.807-1.107 0-.62-.363-1.11-.807-1.11H.807c-.444 0-.807.49-.807 1.11 0 .607.363 1.106.807 1.106zM252.895 30.653c-1.562-4.124-.825-8.128 2.188-11.893 2.483-3.096 7.115-4.536 8.86-5.075l.282-.09c1.476-.464 2.598.45 2.98 1.002.204.29.877 1.284 1.774 2.947-.03-.195-.004-.398.11-.584.333-.523 1.55-2.244 2.84-2.145.355.02 1.008.2 1.432 1.122 2.456 5.375 3.188 13.808 3.366 16.222-.488-.296-1.456.1-1.047 1.913-.104-.04-.214-.06-.326-.074-.188-1.378-.254-1.876-.262-2.04 0 0 0-.017-.002-.025l-.646.085c.14.593.26 1.177.437 1.983-1.134-.084-1.12 1.188-.974 1.785-.103.04-.205.086-.307.14-.956-5.02-2.11-8.42-3.354-11.597-2.115-5.41-4.194-8.437-4.426-8.768-.005-.004-.41-.578-1.092-.357l-.292.09c-.546.17-1.414.438-2.396.827 1.342 2.18 5.174 8.932 7.388 18.29-.175.01-.34.046-.496.105.007-.234-.013-.41-.028-.536l-.01-.056v-.03l-.005-.03c-.018-.084-.036-.16-.07-.27l-.027-.074c-.195-.52-.614-.83-1.13-.83-.08 0-.164.008-.244.02-.08-.208-.198-.433-.358-.646-.478-1.653-.997-3.215-1.528-4.656-.62.238-1.72.735-3.054 1.636.476 1.156.957 2.403 1.423 3.72-.29.105-.51.34-.618.66-.483-1.388-.98-2.694-1.474-3.905-.92.683-1.93 1.55-2.96 2.65.64 1.467 1.256 3.008 1.824 4.554-.142-.064-.276-.115-.396-.143-.015-.165-.045-.31-.092-.45l-.01-.02-.007-.018c-.11-.282-.3-.522-.563-.723-.112-.09-.242-.15-.37-.19-.32-.797-.645-1.585-.98-2.353-.255.29-.512.608-.767.93-.177-.102-.37-.162-.58-.162-.08 0-.16.007-.24.025-.01-.025-.025-.045-.038-.063.424-.556.843-1.078 1.267-1.548-.71-1.6-1.42-3.096-2.06-4.394-.506.732-.973 1.54-1.38 2.425.006.004.006.01.008.02.26.685.584 1.513.938 2.395-.156-.06-.31-.09-.453-.09-.22 0-.422.06-.606.186-.242.17-.396.38-.48.595-.367-.92-.706-1.778-.972-2.49zm22.056-.484l-.934.13c.087.313.156.63.234.942l.785-.1c-.015-.27-.046-.593-.084-.972zm-.19-1.775l-1.232.215c.095.306.182.613.27.924l1.073-.15c-.03-.31-.066-.64-.11-.99zm-.24-1.745l-1.532.283c.104.305.21.61.305.913l1.36-.24c-.04-.307-.085-.627-.134-.956zm-.295-1.76l-1.828.358c.115.31.23.624.337.928l1.66-.31c-.05-.318-.11-.647-.17-.976zm-.344-1.736l-2.078.505c.008.02.015.033.023.06.104.266.19.518.29.782l1.964-.393c-.065-.317-.13-.636-.2-.956zm-2.77-1.18c.127.306.26.618.392.94l2.203-.533c-.077-.327-.157-.657-.243-.987l-2.352.58zm1.837-2.38l-2.612.646c.15.316.3.65.454.994l2.47-.606c-.104-.35-.202-.694-.313-1.034zm-2.102-2.183l1.194-.294c-.063-.158-.136-.318-.21-.48-.02-.048-.045-.09-.06-.118-.215.1-.59.468-.925.893zm-1.328 1.147c.148.3.31.62.47.947l2.712-.668c-.115-.332-.23-.658-.355-.978l-2.828.7zM261.49 28.74c-.774-1.84-1.537-3.432-2.24-4.787-.957.77-1.957 1.744-2.877 2.937.653 1.307 1.388 2.833 2.124 4.483 1.046-1.094 2.065-1.96 2.992-2.634zm1.577-7.146c-.684.31-1.855.902-3.17 1.867.704 1.364 1.477 2.966 2.265 4.813 1.334-.885 2.436-1.374 3.087-1.62-.734-1.923-1.484-3.624-2.183-5.06zM257.27 18.9c.47.72 1.272 2.014 2.24 3.825 1.314-.95 2.486-1.54 3.206-1.854-.982-1.98-1.812-3.376-2.234-4.063-1.123.547-2.268 1.233-3.21 2.093zm-2.83 4.265c.317.59.86 1.602 1.532 2.928.935-1.172 1.932-2.117 2.895-2.877-.923-1.736-1.693-2.992-2.17-3.73-.103.11-.204.22-.296.334-.88 1.094-1.532 2.214-1.96 3.345zm-.326 5.76c.403-.774.843-1.49 1.312-2.14-.53-1.05-.982-1.92-1.332-2.568-.402 1.543-.395 3.116.02 4.707zm-28.51 69.434c-1.797-4.444-2.61-12.397-.04-19.632 1.13-3.19 2.98-6.08 5.172-8.577 4.41-4.99 10.27-8.32 16.288-9.807 6.023-1.526 12.212-1.232 17.567.463 5.386 1.686 9.855 4.762 13.192 8.203.287.293.56.597.83.895.274-.3.544-.604.83-.896 3.34-3.442 7.812-6.52 13.195-8.204 5.354-1.695 11.543-1.99 17.564-.463 6.02 1.484 11.882 4.816 16.29 9.808 2.188 2.5 4.04 5.39 5.174 8.578 2.566 7.234 1.756 15.188-.045 19.63 0 0-1.565 5.105-5.1 8.453-4.798 4.55-11.56 6.633-17.612 5.188-3.023-.695-5.78-2.354-7.684-4.696-.965-1.168-1.676-2.39-2.236-3.746-.555-1.34-.863-2.78-.89-4.213-.073-2.89.864-6.01 2.517-8.038 1.664-2.024 3.625-3.39 6.355-4.08 2.426-.617 5.148-.228 7.096 1.173 1.96 1.358 3.11 3.61 3.11 5.785-.01 2.23-1.042 4.237-2.435 5.34-1.487 1.174-3.22 1.755-4.76 1.68-1.558-.063-2.92-.622-3.886-1.46-.818-.684-1.27-1.605-1.438-2.438-.025-.1-.04-.205-.053-.314-.01-.06-.03-.124-.03-.18-.005-.03.003-.044.003-.07 0-.027-.008-.058-.008-.09 0-1.525 1.236-2.766 2.77-2.766 1.523 0 2.766 1.238 2.766 2.767 0 .85-1.107 2.516-.05 2.64 1.116.14 2.397-.298 3.41-1.212 1.01-.9 1.835-2.322 1.835-3.894.028-1.562-.786-3.27-2.272-4.33-1.467-1.086-3.596-1.55-5.615-1.002-1.98.528-3.996 1.71-5.447 3.512-1.44 1.814-2.264 4.513-2.16 6.93.1 2.404 1.225 4.833 2.908 6.772 1.67 1.905 4.074 3.206 6.676 3.69 5.24.956 11.05-1.197 14.744-5.238 2.684-2.937 3.66-7.317 3.66-7.317.736-2.922.797-7.034.69-8.432-.388-5.59-2.687-10.795-6.257-14.89-3.545-4.14-8.354-7.082-13.395-8.688-5.05-1.62-10.387-1.824-15.188-.707-4.822 1.086-9.02 3.56-12.238 6.54-.352.335-.69.67-1.027 1.01.6.786 1.18 1.6 1.655 2.417 1.13 1.91 1.94 3.9 2.352 5.87.818 3.935.14 7.704-1.81 10.14-1.14 1.427-2.813 2.033-3.97 2.033-1.32 0-2.744-.524-3.972-2.033-1.962-2.422-2.625-6.205-1.807-10.14.41-1.97 1.224-3.96 2.35-5.87.48-.816 1.06-1.63 1.655-2.418-.33-.34-.677-.674-1.028-1.008-3.214-2.98-7.412-5.455-12.236-6.54-4.8-1.118-10.142-.914-15.19.706-5.037 1.605-9.846 4.55-13.394 8.688-3.563 4.095-5.867 9.3-6.255 14.89-.1 1.396-.044 5.51.694 8.433 0 0 .975 4.384 3.66 7.318 3.693 4.04 9.504 6.194 14.743 5.237 2.603-.483 5.01-1.784 6.68-3.69 1.685-1.938 2.807-4.367 2.904-6.77.105-2.418-.717-5.115-2.156-6.93-1.453-1.802-3.473-2.982-5.45-3.513-2.02-.548-4.146-.084-5.617 1.003-1.483 1.062-2.3 2.768-2.27 4.33.004 1.568.824 2.99 1.832 3.893 1.01.914 2.294 1.332 3.41 1.213.946-.1-.063-1.79-.063-2.64 0-1.525 1.24-2.766 2.768-2.766 1.456 0 2.638 1.127 2.745 2.553.008.023.005.057.01.085.007.04.017.084.017.13 0 .006-.005.01-.005.016.005.05.016.088.01.145-.005.12-.04.254-.064.385v.02c-.15.854-.604 1.82-1.46 2.528-.963.838-2.32 1.396-3.88 1.46-1.54.075-3.27-.505-4.763-1.68-1.392-1.103-2.423-3.11-2.428-5.34-.006-2.175 1.146-4.426 3.105-5.785 1.944-1.398 4.67-1.79 7.1-1.17 2.728.687 4.69 2.055 6.353 4.078 1.65 2.03 2.593 5.148 2.513 8.038-.022 1.432-.334 2.872-.89 4.213-.556 1.355-1.27 2.577-2.234 3.745-1.9 2.343-4.658 4-7.684 4.696-6.05 1.446-12.817-.638-17.617-5.186-3.52-3.35-5.088-8.455-5.088-8.455zm51.723-22.585c-1.07 1.656-1.845 3.37-2.267 5.053-.872 3.332-.363 6.353 1.127 8.366.663.894 1.605 1.302 2.427 1.302.645 0 1.763-.408 2.423-1.302 1.49-2.015 2-5.034 1.133-8.366-.426-1.682-1.195-3.396-2.27-5.053-.392-.604-.826-1.182-1.287-1.754-.457.574-.892 1.152-1.286 1.755zm-20.348-36.82c-.29 0-.592-.143-.833-.353l1.21 2.917h1.59c-.42-.563-.748-1.237-.708-1.726.023-.314 1.103.23 1.103.23.592.333 2.274.866.93-.754-.29-.354.913.114.894-.858-.005-.192-.075-.328-.158-.438-.245-.322-.497-.477-.73-.564-.006 0-.014-.01-.02-.01-.44-.158-.79-.055-.77-.283.016-.162.016-.3.01-.42v-.01c-.014-.12-.028-.22-.06-.305-.05-.124-.136-.26-.305-.39-.342-.253-.815.085-.978.25-.052.056-.135.165-.227.265-.045.062-.085.123-.135.18-.28.34-.28-.025-.252-.408v-.01c.013-.296.008-.52-.007-.7l-.02-.244c-.033-.212-.08-.344-.118-.474-.018-.05-.037-.095-.057-.138-.012-.012-.02-.03-.027-.05-.177-.307-.46-.432-.915-.032-.224.195-.28-1.037-1.236-1.432-.192-.082-.297-.056-.37 0-.637.438.173 1.627-.19 1.432-.043-.024-.076-.035-.113-.05.345.837.784 1.917 1.228 2.98.07-.248.272-.424.593-.424.505 0 1.06.403 1.243.903.186.507-.073.915-.574.915zm10.653-14.314c.918 0 1.66-.742 1.66-1.66 0-.917-.742-1.66-1.66-1.66-.917 0-1.663.743-1.663 1.66 0 .917.746 1.66 1.663 1.66zm-4.594 11.92c-.233-.37-.355-.64-.396-.837h-.005c-.02-.143 0-.287.106-.426.23-.29.967.09 1.252.28.102.062.284.2.46.326.076.062.146.115.223.17h.004c.354.265.366.154.254-.08l-.13-.228-.154-.26h-.003c-.527-.92-.574-1.222-.645-1.5-.012-.03-.017-.066-.017-.105 0-.006-.003-.013-.003-.02-.002-.03 0-.068.003-.105.024-.323.284-.448 1.02-.015.368.22-.292-1.117.52-1.616.1-.06.218-.09.418 0 .994.444.797 1.836 1.092 1.616.256-.194.453-.27.608-.28h.032c.09.004.165.03.225.08.005.006.01.008.016.017.058.055.108.13.145.225.008.02.01.035.02.055.018.05.03.1.04.148.018.146.038.295.03.53-.005.1-.015.19-.022.277-.022.205-.067.46-.147.788v.01c-.002.012-.005.014-.005.022v-.006c-.096.39-.16.748.113.528.025-.024.055-.04.09-.08.067-.07.125-.13.192-.204.12-.11.24-.234.306-.293.04-.03.086-.07.142-.105.015-.01.024-.016.034-.025.115-.074.257-.154.404-.203l.055-.016c.066-.02.135-.03.2-.03.007 0 .014-.005.02-.005h.005c.11 0 .214.03.3.105.158.145.23.29.26.434.016.094.016.21.006.342 0 .002-.005.012-.008.012-.015.136-.042.295-.1.476-.112.396.923-.11 1.526.962.07.13.12.278.087.5-.18 1.096-1.44.566-1.183.96.566.89.438 1.197.09 1.248l-.07.004c-.01.003-.015.003-.032.003l-.02-.004c-.083-.002-.176-.014-.272-.034-.013 0-.02-.005-.035-.008-.1-.02-.197-.052-.3-.087-.007-.006-.017-.006-.022-.01-.102-.04-.2-.08-.29-.12-.004-.005-.006-.005-.01-.005-.093-.05-.18-.095-.248-.136 0 0-.21-.116-.454-.22-.32-.13-.688-.233-.738-.04-.15.56.08 1.307.435 1.945h-2.114c.127-.638.093-1.386-.25-1.944-.223-.354-1.108.26-1.108.26-.46.375-2.035.98-1.506-.853.114-.394-.958.134-1.526-.962-.107-.22-.113-.368-.085-.498.21-1.073 1.423-.567 1.17-.963zm2.527 1.05c.1.563.64 1.022 1.202 1.022.565 0 .944-.46.845-1.023-.1-.57-.64-1.026-1.205-1.026-.564-.002-.94.457-.843 1.025zm1.457-19.267c0-.923-.742-1.665-1.66-1.665s-1.66.742-1.66 1.665c0 .915.742 1.655 1.66 1.655s1.66-.74 1.66-1.655zM54.574 295.54H.787c-.434 0-.788.487-.788 1.11 0 .607.354 1.104.788 1.104h53.784c.434 0 .786-.496.786-1.104 0-.623-.352-1.11-.785-1.11zm206.59-244.577h35.05l.76-2.188h-36.7l.89 2.188zm19.333-18.803c.182-2.413.906-10.846 3.365-16.22.418-.924 1.076-1.103 1.432-1.123 1.285-.1 2.51 1.62 2.844 2.145.107.186.14.39.107.584.898-1.663 1.57-2.658 1.775-2.947.387-.554 1.506-1.467 2.98-1.003l.28.09c1.743.54 6.376 1.98 8.858 5.076 3.018 3.765 3.756 7.77 2.19 11.893-.267.714-.604 1.57-.976 2.488-.086-.215-.236-.424-.48-.594-.187-.125-.388-.185-.606-.185-.146 0-.295.03-.453.09.355-.883.678-1.71.94-2.395.005-.01.005-.016.007-.02-.412-.885-.875-1.69-1.38-2.424-.642 1.297-1.353 2.793-2.06 4.393.42.468.842.99 1.268 1.546-.018.02-.03.04-.04.064-.083-.02-.157-.025-.24-.025-.208 0-.403.06-.583.162-.254-.32-.508-.64-.762-.93-.336.768-.662 1.556-.98 2.354-.135.04-.258.1-.37.19-.263.198-.452.438-.56.723l-.012.016-.005.02c-.047.14-.072.284-.094.45-.12.027-.253.078-.395.144.57-1.546 1.188-3.087 1.826-4.554-1.032-1.102-2.038-1.97-2.962-2.65-.492 1.21-.986 2.518-1.473 3.903-.107-.32-.322-.554-.615-.658.463-1.315.94-2.563 1.42-3.72-1.336-.9-2.434-1.397-3.053-1.636-.537 1.44-1.055 3-1.53 4.654-.16.215-.27.44-.356.648-.083-.014-.16-.02-.243-.02-.516 0-.934.31-1.13.83l-.026.073c-.034.11-.054.186-.07.27l-.003.03-.006.03-.005.057c-.014.127-.033.303-.03.536-.15-.06-.32-.095-.49-.104 2.214-9.358 6.044-16.11 7.384-18.29-.983-.39-1.853-.658-2.4-.827l-.292-.09c-.676-.22-1.082.354-1.088.357-.23.33-2.31 3.356-4.426 8.77-1.244 3.175-2.396 6.574-3.352 11.597-.104-.055-.207-.1-.307-.14.145-.6.158-1.87-.973-1.784.17-.81.295-1.393.434-1.984l-.646-.085v.025c-.012.163-.074.66-.266 2.038-.107.017-.22.035-.324.074.412-1.814-.555-2.21-1.043-1.914zm16.834-8.7c-1.31-.964-2.483-1.56-3.173-1.866-.69 1.436-1.44 3.137-2.18 5.06.654.246 1.756.735 3.09 1.62.79-1.848 1.56-3.45 2.264-4.813zm3.524 3.43c-.918-1.192-1.918-2.165-2.877-2.938-.695 1.355-1.46 2.946-2.236 4.786.93.674 1.946 1.54 2.993 2.633.738-1.648 1.47-3.175 2.12-4.48zm2.283-2.673c-.35.646-.81 1.52-1.332 2.568.463.647.906 1.364 1.31 2.14.41-1.592.42-3.165.022-4.708zm-2.6-4.733c-.48.738-1.257 1.994-2.175 3.73.957.76 1.96 1.705 2.895 2.877.674-1.325 1.217-2.338 1.533-2.927-.434-1.13-1.082-2.25-1.96-3.347-.097-.112-.193-.222-.294-.332zm-3.79-2.677c-.422.688-1.252 2.084-2.232 4.064.72.314 1.89.904 3.205 1.855.97-1.812 1.77-3.105 2.236-3.825-.94-.86-2.086-1.546-3.21-2.093zm-11.56.31l1.198.294c-.334-.424-.713-.792-.928-.893-.016.03-.033.07-.064.12l-.207.48zm-.657 1.72l2.713.667c.154-.328.316-.648.47-.947l-2.827-.697c-.124.318-.24.644-.356.976zm-.557 1.79l2.47.606c.153-.344.302-.678.452-.994l-2.613-.647c-.105.34-.213.684-.31 1.034zm-.45 1.754l2.204.535c.133-.323.26-.637.39-.942l-2.35-.58c-.087.33-.165.66-.243.988zm-.374 1.73l1.964.392c.102-.266.186-.518.29-.782.01-.025.02-.04.026-.06l-2.08-.506c-.072.32-.134.64-.2.955zm-.313 1.758l1.658.31c.105-.305.227-.618.334-.93l-1.823-.357c-.063.33-.12.658-.17.978zm-.266 1.74l1.366.238c.096-.304.203-.608.305-.913l-1.53-.283c-.05.33-.094.65-.14.957zm-.214 1.775l1.074.15c.088-.312.178-.62.27-.925l-1.23-.215c-.04.352-.08.68-.114.99zm-.166 1.76l.783.1c.082-.312.15-.628.234-.94l-.938-.132c-.03.38-.064.703-.08.973zM67.978 287.853c.327.135.663.25 1.004.357.346.104.683.188 1.008.254v14.578c-.685.13-1.36.325-2.012.588v.715h6.732v-.715c-.77-.263-1.56-.457-2.358-.588v-14.625h4.94l1.276 3.688h.637c.052-.348.09-.734.125-1.166.03-.437.06-.886.074-1.345.018-.455.03-.898.05-1.322.016-.43.025-.807.025-1.133H67.977v.713zm22.82 7.713c.224.79.332 1.664.332 2.633 0 2.065-.524 3.653-1.572 4.768-1.05 1.117-2.455 1.674-4.228 1.674-.985 0-1.835-.152-2.558-.45-.723-.308-1.32-.74-1.793-1.308-.48-.562-.835-1.244-1.07-2.04-.238-.792-.354-1.673-.354-2.645 0-1.03.137-1.943.404-2.738.27-.797.66-1.47 1.167-2.015.506-.555 1.118-.97 1.83-1.258.714-.288 1.503-.435 2.374-.435 1.02 0 1.895.16 2.63.47.74.312 1.338.753 1.81 1.315.464.567.804 1.243 1.03 2.026zM88.77 298.2c0-.757-.07-1.456-.208-2.1-.142-.65-.358-1.216-.65-1.698-.294-.48-.672-.863-1.13-1.143-.46-.28-1.007-.417-1.65-.417-.965 0-1.742.434-2.333 1.3-.59.866-.886 2.22-.886 4.056 0 .737.07 1.437.21 2.085.14.66.36 1.23.663 1.71.303.487.7.868 1.193 1.145.486.28 1.082.42 1.77.42.883 0 1.608-.432 2.176-1.3.562-.872.844-2.223.844-4.06zm12.462 4.67c-.426.165-.927.243-1.497.243-.708 0-1.324-.137-1.86-.416-.53-.274-.974-.65-1.324-1.116-.353-.467-.613-.995-.79-1.586-.167-.592-.257-1.194-.257-1.82 0-1.936.305-3.303.91-4.114.608-.81 1.466-1.213 2.582-1.213.344 0 .59.018.74.057.145.045.277.103.39.188l1.03 2.924h.664c.197-.445.363-1.002.494-1.672.13-.672.22-1.28.268-1.816-.438-.23-.978-.418-1.607-.555-.633-.14-1.354-.213-2.15-.213-1.753 0-3.138.56-4.156 1.666-1.013 1.104-1.522 2.696-1.522 4.776 0 .97.117 1.85.354 2.644.236.795.59 1.477 1.068 2.04.474.564 1.066 1 1.78 1.306.713.3 1.553.45 2.52.45.887 0 1.66-.19 2.323-.575.662-.387 1.143-.863 1.437-1.438l-.314-.35c-.297.23-.66.43-1.084.59zm15.067-10.814h-4.205v.64c.41.294.863.49 1.354.587l-2.337 7.254-.366 1.552h-.053l-.463-1.524-3.123-7.28c.59-.177 1.057-.38 1.4-.61v-.614h-5.16v.64c.212.13.42.243.625.344.203.1.43.184.676.243l5.116 11.06c-.14.425-.247.78-.35 1.056-.1.28-.187.506-.268.693-.085.18-.162.33-.234.45-.075.123-.16.252-.26.385h-2.557l-.32.586c.1.345.22.708.36 1.087.137.375.3.713.478 1.027.424-.08.823-.203 1.19-.38.368-.172.73-.444 1.083-.827.352-.367.7-.886 1.058-1.53.35-.645.728-1.495 1.117-2.546l3.835-11.06c.59-.163 1.06-.355 1.4-.587v-.645h.004zm10.347 11.082h2.188c.017.79 0 1.592-.05 2.412-.05.817-.12 1.63-.214 2.434h-.607l-1.092-3.64h-9.22l-1.09 3.64h-.636c-.08-.803-.14-1.615-.18-2.434-.04-.82-.06-1.62-.06-2.412h1.67c.192-.23.42-.584.663-1.078.243-.494.48-1.127.7-1.906.223-.776.41-1.71.565-2.8.157-1.09.234-2.362.234-3.825-.346-.097-.658-.222-.937-.366-.276-.146-.53-.305-.76-.467v-.64h10.443v.64c-.44.293-.982.49-1.623.586v9.855h.007zm-2.21-9.803h-3.564c0 1.467-.072 2.748-.22 3.838-.146 1.092-.323 2.026-.528 2.803-.204.77-.424 1.418-.65 1.93-.233.52-.44.926-.614 1.232h5.58l-.002-9.803zm15.263 9.56l1.695.243v.52c-.41.212-.868.397-1.366.563-.5.167-.98.29-1.44.372h-.61c-.165-.38-.266-.79-.3-1.244-.03-.45-.056-.945-.07-1.484h-.124c-.065.33-.194.658-.38.992-.188.338-.435.637-.737.898-.305.26-.66.473-1.068.64-.413.163-.877.245-1.4.245-1 0-1.816-.304-2.447-.91-.628-.605-.947-1.4-.947-2.382 0-.758.15-1.373.454-1.86.305-.48.75-.86 1.34-1.142.59-.277 1.32-.48 2.19-.604.865-.123 1.877-.217 3.02-.278.066-.705.087-1.34.063-1.902-.022-.57-.112-1.053-.27-1.453-.154-.405-.385-.71-.69-.937-.303-.224-.697-.328-1.19-.328-.23 0-.487.01-.77.035-.288.02-.572.094-.853.21l-1.15 2.945h-.643c-.168-.49-.31-.998-.43-1.522-.125-.527-.205-1.04-.234-1.547.62-.375 1.316-.672 2.077-.888.762-.217 1.608-.32 2.545-.32.833 0 1.5.122 2 .36.503.235.883.542 1.146.917.26.377.432.797.514 1.254.08.465.122.917.122 1.38 0 .978-.02 1.93-.062 2.84-.04.91-.062 1.773-.062 2.61 0 .362.008.68.025.94.015.262.034.54.05.834zm-2.164-4.497c-.95 0-1.728.045-2.334.146-.608.098-1.082.254-1.426.47-.344.208-.584.476-.713.796-.13.316-.194.684-.194 1.092 0 .707.173 1.252.535 1.637.36.383.854.575 1.476.575.412 0 .772-.08 1.085-.242.312-.16.57-.36.783-.594.214-.23.384-.46.518-.697.132-.24.222-.44.27-.604v-2.582zm16.12-5.188c.81.97 1.208 2.54 1.208 4.72 0 1.032-.135 1.966-.407 2.804-.267.832-.653 1.537-1.15 2.11-.503.573-1.11 1.015-1.82 1.33-.713.31-1.506.466-2.374.466-.606 0-1.08-.035-1.424-.11-.347-.068-.726-.202-1.13-.384v3.912c.26.033.52.092.784.186.26.088.54.224.833.4v.615h-5.453v-.616c.556-.26 1.097-.457 1.62-.586v-14.574l-1.62-.2v-.634c.52-.234 1.062-.418 1.606-.56.548-.14 1.084-.247 1.61-.333h.618v2.756h.02c.332-.834.79-1.504 1.38-2.002.587-.5 1.358-.753 2.31-.753 1.46 0 2.59.485 3.39 1.453zm-1.15 4.72c0-.67-.056-1.288-.158-1.856-.11-.565-.28-1.055-.52-1.477-.238-.414-.55-.738-.934-.97-.39-.228-.858-.346-1.414-.346-.805 0-1.44.26-1.917.768-.478.506-.812 1.203-1.005 2.088v6.883c.292.18.626.313.99.403.372.092.853.135 1.44.135.54 0 1.026-.14 1.46-.42.434-.273.805-.67 1.107-1.176.304-.51.534-1.103.7-1.783.168-.68.25-1.43.25-2.25zm12.462 4.94c-.43.165-.927.243-1.502.243-.7 0-1.317-.137-1.854-.416-.53-.274-.973-.65-1.327-1.116-.354-.467-.613-.995-.788-1.586-.17-.592-.257-1.194-.257-1.82 0-1.936.302-3.303.91-4.114.603-.81 1.466-1.213 2.58-1.213.342 0 .59.018.734.057.15.045.28.103.396.188l1.037 2.924h.66c.194-.445.355-1.002.492-1.672.13-.672.22-1.28.27-1.816-.442-.23-.98-.418-1.61-.555-.632-.14-1.348-.213-2.148-.213-1.755 0-3.14.56-4.154 1.666-1.017 1.104-1.523 2.696-1.523 4.776 0 .97.117 1.85.356 2.644.238.795.594 1.477 1.07 2.04.474.564 1.065 1 1.778 1.306.71.3 1.555.45 2.52.45.885 0 1.663-.19 2.32-.575.667-.387 1.145-.863 1.44-1.438l-.317-.35c-.298.23-.66.43-1.082.59zm2.753-8.86c.046.683.108 1.372.19 2.075h.624l1.057-2.95h2.334v10.003c-.573.133-1.114.332-1.623.594v.613h5.46v-.613c-.313-.2-.855-.393-1.624-.594v-10.002h2.336l1.055 2.95h.626c.095-.704.162-1.4.202-2.104.038-.695.067-1.334.083-1.928H167.62c.02.623.05 1.276.1 1.957zm22.993 5.462c.188.363.282.795.282 1.285 0 .655-.145 1.217-.442 1.684-.3.47-.698.85-1.202 1.147-.5.29-1.08.508-1.737.647-.66.137-1.354.207-2.077.207-.527 0-.946-.003-1.26-.01-.316-.01-.578-.022-.792-.036-.212-.02-.396-.027-.543-.037-.146-.008-.31-.014-.495-.014h-2.36v-.613c.51-.262 1.05-.46 1.622-.594v-9.855c-.624-.105-1.16-.308-1.623-.585v-.64h2.22c.393 0 .73-.005 1.01-.013.282-.01.544-.02.792-.04.247-.014.496-.026.743-.034s.518-.01.812-.01c1.45 0 2.58.213 3.388.646.808.438 1.21 1.195 1.21 2.277 0 .396-.083.747-.246 1.058-.165.307-.38.584-.645.812-.263.23-.562.422-.894.575-.327.156-.648.27-.965.334.465.028.9.122 1.326.27.42.146.787.35 1.108.6.324.255.58.567.77.942zm-6.798-1.666l2.764-.25c.298-.14.603-.414.906-.82.31-.397.457-.926.457-1.582 0-.803-.242-1.354-.73-1.66-.49-.303-1.208-.455-2.15-.455-.185 0-.39.008-.624.016-.23.008-.437.037-.624.084v4.666zm4.622 3.147c0-.803-.29-1.405-.858-1.807-.577-.404-1.313-.604-2.212-.604h-1.553v4.743c.232.052.523.072.873.072h.873c.97 0 1.69-.207 2.168-.623.47-.416.71-1.008.71-1.78zm14.366-6.748c.272.603.41 1.343.41 2.226 0 .28-.016.562-.04.85-.026.288-.07.596-.136.923h-7.67c0 .69.09 1.334.258 1.927.172.604.432 1.12.776 1.565.345.44.776.79 1.302 1.045.526.252 1.142.377 1.845.377.573 0 1.157-.08 1.745-.24.59-.163 1.032-.38 1.33-.64l.34.393c-.13.278-.333.54-.613.784-.28.248-.6.46-.96.644-.356.174-.752.318-1.18.432-.427.104-.86.154-1.302.154-.97 0-1.82-.152-2.56-.45-.738-.308-1.352-.74-1.84-1.308-.494-.562-.868-1.238-1.122-2.027-.252-.788-.38-1.67-.38-2.655 0-2.098.485-3.692 1.45-4.795.97-1.094 2.34-1.646 4.104-1.646.574 0 1.14.08 1.695.23.56.16 1.052.415 1.486.778.44.36.795.833 1.063 1.433zm-1.905 2.078c0-1.05-.193-1.887-.59-2.508-.393-.623-1.006-.938-1.844-.938-.933 0-1.646.32-2.14.95-.488.632-.785 1.74-.883 3.328h5.406c.02-.147.03-.293.04-.43.007-.135.012-.27.012-.402zm12.242-3.588c.41.293.903.49 1.478.586v4.31h-5.46v-4.31c.593-.16 1.073-.353 1.452-.585v-.64h-5.284v.64c.23.13.484.24.76.328.28.092.564.176.863.258v9.856c-.3.086-.584.174-.864.264-.274.086-.53.2-.76.33v.613h5.284v-.613c-.182-.13-.387-.246-.614-.344-.23-.1-.508-.183-.837-.25v-4.474h5.46v4.474c-.574.098-1.068.297-1.48.594v.613h5.31v-.613c-.228-.164-.482-.29-.76-.37-.278-.08-.565-.155-.86-.224v-9.855c.642-.105 1.18-.308 1.62-.585v-.64h-5.31v.64zm15.043 0c.41.293.903.49 1.478.586v4.31h-5.454v-4.31c.588-.16 1.068-.353 1.444-.585v-.64h-5.28v.64c.228.13.478.24.762.328.274.092.56.176.86.258v9.856c-.3.086-.586.174-.86.264-.282.086-.534.2-.763.33v.613h5.28v-.613c-.18-.13-.384-.246-.61-.344-.23-.1-.51-.183-.834-.25v-4.474h5.455v4.474c-.572.098-1.066.297-1.477.594v.613h5.31v-.613c-.23-.164-.48-.29-.762-.37-.276-.08-.565-.155-.854-.224v-9.855c.633-.105 1.174-.308 1.618-.585v-.64h-5.31v.64zm18.335 0c.364.277.853.48 1.48.586v9.856c-.28.086-.535.174-.767.272-.228.1-.457.203-.687.32v.613h5.285v-.612c-.28-.13-.548-.244-.812-.33-.262-.09-.533-.178-.812-.264v-9.855c.33-.083.633-.167.912-.26.277-.087.514-.198.713-.327v-.64h-5.313v.642zm-1.857 5.035c.75.576 1.123 1.475 1.123 2.705 0 .654-.117 1.234-.36 1.734-.236.494-.567.915-.99 1.25-.43.337-.94.593-1.532.767-.587.17-1.238.254-1.944.254-.443 0-.944-.01-1.49-.046-.552-.033-1.14-.05-1.764-.05h-2.29v-.614c.28-.164.55-.29.813-.37.262-.08.534-.155.812-.224v-9.855c-.312-.048-.598-.122-.86-.228-.263-.106-.516-.23-.763-.355v-.64h5.31v.64c-.378.23-.872.424-1.475.586v3.787c.276-.03.59-.076.937-.123.346-.05.85-.07 1.505-.07 1.228-.003 2.218.28 2.97.853zm-1.336 2.68c0-.457-.067-.848-.207-1.164-.14-.32-.33-.575-.565-.764-.24-.188-.514-.324-.825-.406-.312-.084-.64-.12-.98-.12-.228 0-.478.006-.737.012-.265.01-.517.04-.763.086v5.233c.214.02.426.035.638.054.214.013.434.02.666.02 1.85 0 2.774-.98 2.774-2.95zm14.97.052l-.96 1.844h-.12l.27-2.29v-6.733c.323-.096.605-.19.85-.293.234-.098.44-.194.623-.293v-.64h-5.21v.64c.44.293.982.49 1.625.586v9.855c-.282.086-.554.174-.813.264-.265.086-.53.2-.813.33v.613h3.37l5.21-8.332.934-1.844h.12l-.243 1.94v7.026c-.52.133-1.018.332-1.47.594v.613h5.207v-.613c-.212-.13-.456-.244-.738-.33-.276-.09-.57-.178-.885-.264v-9.855c.56-.095 1.098-.292 1.624-.585v-.64h-3.318l-5.263 8.407zm0-13.566c-.345.027-.675.096-.983.19-.31.103-.598.257-.86.472 0 .373.063.744.186 1.12.124.364.344.687.652.968.31.277.73.504 1.252.676.524.176 1.2.258 2.02.258.785 0 1.438-.082 1.955-.258.518-.172.92-.396 1.23-.676.303-.28.518-.604.647-.97.132-.374.197-.745.197-1.118-.198-.187-.447-.33-.75-.44-.304-.115-.628-.19-.972-.222l-.613.312v2.268c-.23.06-.526.113-.888.143-.358.032-.62.053-.788.053-.258 0-.547-.02-.858-.062-.31-.042-.58-.105-.81-.208v-2.188l-.62-.318zm30.673 6.385c.346-.06.648-.144.908-.243.264-.1.504-.213.713-.342v-.64h-4.646l-2.63 7.148-.515 1.722h-.072l-.47-1.695-2.532-7.176h-4.792v.64c.215.13.452.272.717.42.264.145.565.284.91.413l-.37 9.61c-.54.132-1.08.33-1.622.593v.613h4.325v-.613c-.394-.21-.883-.408-1.47-.594l.365-9.95h.192l3.985 11.157h.66l4.03-11.158h.196l.494 9.95c-.36.118-.662.224-.885.323-.232.098-.428.188-.592.27v.614h5.21v-.613c-.54-.298-1.08-.497-1.62-.595l-.488-9.854zm11.36-.585c.405.293.856.49 1.35.586l-2.335 7.255-.37 1.552h-.046l-.465-1.523-3.122-7.28c.588-.177 1.057-.382 1.4-.61v-.614h-5.166v.64c.215.13.424.243.63.344.202.1.43.184.677.243l5.11 11.062c-.135.423-.244.778-.344 1.058-.102.275-.188.502-.27.69-.086.18-.162.33-.234.45-.074.123-.16.252-.26.385h-2.555l-.32.588c.098.343.217.706.357 1.085.14.377.297.713.473 1.027.43-.08.828-.203 1.197-.38.367-.172.73-.444 1.082-.827.354-.367.705-.886 1.055-1.53.355-.645.728-1.495 1.12-2.546l3.834-11.063c.592-.16 1.06-.354 1.402-.586v-.64h-4.2v.635h.002zm11.142 4.984c.313-.102.63-.237.952-.417.32-.18.605-.404.865-.666.254-.262.463-.553.627-.88.166-.33.248-.69.248-1.083 0-.95-.367-1.664-1.102-2.15-.734-.48-1.77-.727-3.102-.727-1.06 0-1.926.092-2.598.274-.682.184-1.186.358-1.514.542.02.525.066 1.056.15 1.597.078.54.21 1.08.393 1.622h.612l1.107-2.777c.08-.033.26-.068.53-.113.277-.04.578-.06.91-.06.717 0 1.29.177 1.73.525.44.355.662.927.662 1.71 0 .348-.05.66-.137.938-.094.274-.21.52-.348.723-.14.205-.287.383-.447.52-.152.14-.307.242-.455.308h-2.52c-.083.207-.12.418-.11.64.01.223.045.436.11.643l2.294-.372c.573.102 1.022.285 1.356.566.334.28.498.82.498 1.614 0 .353-.057.69-.168 1.03-.115.34-.29.642-.52.907s-.53.48-.896.645c-.365.166-.805.25-1.31.25-.644 0-1.134-.065-1.48-.196-.263-.312-.522-.625-.784-.945-.264-.317-.504-.597-.715-.82h-.49l-.44 1.645c.48.426 1.07.774 1.79 1.055.72.275 1.557.418 2.508.418 1.502 0 2.697-.332 3.605-.998.908-.66 1.36-1.652 1.36-2.963 0-.91-.308-1.627-.913-2.127-.6-.508-1.355-.8-2.26-.88zm15.24-3.475c.27.603.405 1.343.405 2.226 0 .28-.016.562-.037.85-.023.288-.068.596-.133.923h-7.672c0 .69.088 1.334.262 1.927.17.604.43 1.12.77 1.565.345.44.778.79 1.302 1.045.523.252 1.14.377 1.848.377.572 0 1.15-.08 1.742-.24.592-.163 1.033-.38 1.326-.64l.348.393c-.134.278-.337.54-.616.784-.275.248-.598.46-.96.644-.358.174-.753.318-1.18.432-.42.104-.856.154-1.3.154-.967 0-1.818-.152-2.56-.45-.74-.308-1.35-.74-1.843-1.308-.49-.562-.862-1.238-1.116-2.027-.258-.788-.38-1.67-.38-2.655 0-2.098.48-3.692 1.446-4.795.967-1.094 2.34-1.646 4.104-1.646.578 0 1.145.08 1.7.23.554.16 1.05.415 1.487.778.438.36.792.833 1.06 1.433zm-1.905 2.078c0-1.05-.2-1.887-.588-2.508-.396-.623-1.01-.938-1.846-.938-.937 0-1.647.32-2.14.95-.492.632-.785 1.74-.885 3.328h5.408l.04-.43c.008-.135.012-.27.012-.402zm7.963-6.637c.312.277.73.504 1.252.676.53.18 1.197.258 2.018.258.787 0 1.438-.08 1.953-.258.52-.172.93-.396 1.23-.676s.52-.604.65-.97c.134-.374.196-.745.196-1.118-.195-.187-.447-.33-.746-.44-.31-.115-.63-.19-.975-.222l-.613.312v2.268c-.23.06-.52.113-.883.143-.364.032-.626.053-.794.053-.258 0-.543-.02-.855-.062-.31-.042-.58-.105-.81-.208v-2.188l-.612-.312c-.344.027-.676.096-.982.19-.314.103-.602.257-.86.472 0 .373.06.744.185 1.12.123.36.337.683.648.962zm1.008 10.816l-.96 1.844h-.12l.27-2.29v-6.733c.328-.096.613-.19.848-.293.238-.098.445-.194.63-.293v-.64h-5.212v.64c.443.293.984.49 1.623.586v9.855c-.28.086-.55.174-.814.264-.263.086-.532.2-.808.33v.613h3.37l5.208-8.332.936-1.844h.12l-.243 1.94v7.026c-.523.133-1.02.332-1.48.594v.613h5.212v-.613c-.21-.13-.46-.244-.73-.33-.28-.09-.576-.178-.893-.264v-9.855c.56-.095 1.102-.292 1.623-.585v-.64h-3.314l-5.264 8.407zm11.28-2.263h6.937v-1.525h-6.938v1.524zm15.915-.52c.315-.102.636-.237.954-.417s.607-.404.865-.666c.25-.262.462-.553.628-.88.162-.33.246-.69.246-1.083 0-.95-.367-1.664-1.104-2.15-.732-.48-1.766-.727-3.105-.727-1.05 0-1.914.092-2.592.274-.676.184-1.18.358-1.508.542.014.525.062 1.056.146 1.597s.214 1.08.394 1.622h.613l1.107-2.777c.086-.033.264-.068.537-.113.272-.04.573-.06.907-.06.715 0 1.293.177 1.73.525.438.355.662.927.662 1.71 0 .348-.05.66-.142.938-.088.274-.203.52-.346.723-.137.205-.29.383-.445.52-.154.14-.31.242-.457.308h-2.523c-.08.207-.117.418-.107.64.008.223.043.436.107.643l2.3-.372c.57.102 1.022.285 1.354.566.335.28.503.82.503 1.614 0 .353-.06.69-.174 1.03-.114.34-.286.642-.515.907s-.533.48-.9.645c-.37.166-.805.25-1.312.25-.64 0-1.13-.065-1.473-.196-.27-.312-.523-.625-.79-.945-.263-.317-.5-.597-.708-.82h-.5l-.438 1.645c.48.426 1.076.774 1.79 1.055.718.275 1.558.418 2.51.418 1.5 0 2.7-.332 3.608-.998.904-.66 1.357-1.652 1.357-2.963 0-.91-.306-1.627-.913-2.127-.604-.504-1.36-.8-2.266-.88zm14.59 5.214l1.698.244v.52c-.41.212-.863.397-1.367.563-.497.167-.976.29-1.437.372h-.61c-.167-.38-.265-.79-.298-1.244-.03-.45-.057-.945-.07-1.484h-.125c-.066.33-.19.658-.38.992-.187.338-.435.637-.737.898-.305.262-.66.473-1.068.64-.408.163-.877.245-1.402.245-.998 0-1.812-.304-2.443-.91-.63-.605-.945-1.4-.945-2.382 0-.758.146-1.373.453-1.86.305-.48.754-.86 1.342-1.142.588-.277 1.32-.48 2.184-.604.873-.123 1.88-.217 3.027-.278.063-.705.087-1.34.06-1.902-.02-.57-.113-1.053-.27-1.453-.154-.405-.38-.71-.688-.937-.305-.224-.697-.328-1.19-.328-.23 0-.485.01-.772.035-.29.02-.574.094-.854.21l-1.148 2.945h-.64c-.167-.49-.31-.998-.433-1.522-.125-.527-.2-1.04-.232-1.547.623-.375 1.312-.672 2.078-.888.76-.217 1.606-.32 2.54-.32.838 0 1.506.122 2.006.36.502.235.88.542 1.14.917.267.377.44.797.522 1.254.078.465.125.917.125 1.38 0 .978-.02 1.93-.066 2.84-.037.91-.06 1.773-.06 2.61 0 .362.01.68.024.94.008.262.027.54.04.834zm-2.163-4.496c-.945 0-1.725.045-2.338.146-.605.098-1.077.254-1.425.47-.342.208-.58.476-.71.796-.132.316-.2.684-.2 1.092 0 .707.182 1.252.545 1.637.36.383.854.575 1.477.575.406 0 .768-.08 1.078-.242.312-.16.576-.36.787-.594.213-.23.385-.46.514-.697.137-.24.225-.44.27-.604v-2.582zm5.385-5.703c.184.115.412.224.69.318.272.1.587.186.93.268v9.856c-.243.035-.495.098-.76.188-.263.088-.55.228-.86.406v.613h5.28v-.613c-.177-.102-.382-.2-.61-.297-.23-.096-.508-.2-.838-.297v-10.002h5.436v10.002c-.36.086-.652.174-.87.272-.224.1-.415.203-.58.32v.613h5.286v-.612c-.53-.297-1.062-.496-1.623-.594v-9.855c.34-.03.646-.105.91-.222.258-.113.498-.236.713-.365v-.64h-13.104v.642zm26.312 2.87c.217.79.332 1.665.332 2.634 0 2.065-.523 3.653-1.576 4.768-1.053 1.117-2.453 1.674-4.23 1.674-.98 0-1.83-.152-2.56-.45-.717-.308-1.314-.74-1.79-1.308-.474-.562-.833-1.244-1.065-2.04-.238-.792-.36-1.673-.36-2.645 0-1.03.136-1.943.41-2.738.27-.797.66-1.47 1.165-2.015.506-.555 1.12-.97 1.83-1.258.715-.288 1.504-.435 2.37-.435 1.02 0 1.894.16 2.634.47.738.312 1.336.753 1.805 1.315.47.567.81 1.243 1.034 2.026zm-2.03 2.634c0-.757-.07-1.456-.212-2.1-.135-.65-.354-1.216-.646-1.698-.293-.48-.672-.863-1.13-1.143-.464-.28-1.01-.417-1.65-.417-.964 0-1.747.434-2.333 1.3-.588.866-.885 2.22-.885 4.056 0 .737.068 1.437.21 2.085.144.66.356 1.23.665 1.71.303.487.7.868 1.19 1.145.49.28 1.08.42 1.77.42.888 0 1.61-.432 2.173-1.3.57-.872.85-2.223.85-4.06zm14.958 1.272c.19.363.28.795.28 1.285 0 .655-.145 1.217-.442 1.684-.297.47-.693.85-1.197 1.147-.504.29-1.082.508-1.74.647-.662.137-1.352.207-2.074.207-.53 0-.952-.003-1.27-.01-.31-.01-.57-.022-.786-.036-.215-.02-.396-.027-.54-.037-.153-.008-.315-.014-.497-.014h-2.363v-.613c.51-.262 1.047-.46 1.62-.594v-9.855c-.622-.105-1.165-.308-1.62-.585v-.64h2.213c.396 0 .732-.005 1.018-.013.28-.01.543-.02.79-.04.25-.014.493-.026.743-.034.242-.008.52-.01.814-.01 1.45 0 2.578.213 3.387.646.81.438 1.21 1.195 1.21 2.277 0 .396-.084.747-.246 1.058-.166.307-.38.584-.646.812-.264.23-.56.422-.89.575-.33.156-.653.27-.966.334.463.028.902.122 1.32.27.422.146.793.35 1.11.6.323.255.58.567.77.942zm-6.797-1.666l2.764-.25c.294-.14.6-.414.905-.82.31-.397.46-.926.46-1.582 0-.803-.245-1.354-.733-1.66-.488-.303-1.205-.455-2.152-.455-.18 0-.385.008-.62.016-.23.008-.437.037-.622.084l-.003 4.666zm4.617 3.147c0-.803-.287-1.405-.854-1.807-.576-.404-1.314-.604-2.213-.604h-1.55v4.743c.228.052.52.072.872.072h.87c.97 0 1.69-.207 2.163-.623.478-.416.712-1.008.712-1.78zm14.37-6.748c.27.603.405 1.343.405 2.226 0 .28-.012.562-.035.85-.023.288-.072.596-.135.923h-7.668c0 .69.083 1.334.26 1.927.167.604.427 1.12.77 1.565.347.44.78.79 1.306 1.045.52.252 1.14.377 1.84.377.576 0 1.156-.08 1.748-.24.59-.163 1.033-.38 1.328-.64l.344.393c-.13.278-.334.54-.615.784-.274.248-.6.46-.96.644-.36.174-.752.318-1.176.432-.424.104-.863.154-1.31.154-.962 0-1.81-.152-2.55-.45-.74-.308-1.354-.74-1.848-1.308-.488-.562-.863-1.238-1.113-2.027-.258-.788-.387-1.67-.387-2.655 0-2.098.48-3.692 1.453-4.795.964-1.094 2.33-1.646 4.103-1.646.572 0 1.14.08 1.693.23.557.16 1.055.415 1.484.778.44.36.792.833 1.063 1.433zm-1.903 2.078c0-1.05-.202-1.887-.59-2.508-.396-.623-1.01-.938-1.85-.938-.933 0-1.645.32-2.138.95-.49.632-.785 1.74-.885 3.328h5.408c.016-.147.03-.293.035-.43.013-.135.02-.27.02-.402zm14.204 6.855h2.19c.01.79 0 1.592-.052 2.412-.05.817-.12 1.63-.22 2.434h-.605l-1.096-3.64h-9.216l-1.092 3.64h-.63c-.083-.803-.144-1.615-.185-2.434-.037-.82-.062-1.62-.062-2.412h1.676c.194-.23.415-.584.663-1.078s.48-1.127.7-1.906c.224-.776.41-1.71.565-2.8.154-1.09.232-2.362.232-3.825-.342-.097-.656-.222-.936-.366-.28-.146-.533-.305-.762-.467v-.64h10.443v.64c-.438.293-.98.49-1.62.586v9.855h.01zm-2.213-9.803h-3.56c0 1.467-.076 2.748-.227 3.838-.145 1.092-.32 2.026-.527 2.803-.203.77-.426 1.418-.648 1.93-.234.52-.434.926-.615 1.232h5.578v-9.803zm13.89-.64c.406.293.9.49 1.477.586v4.31h-5.455v-4.31c.59-.16 1.07-.353 1.447-.585v-.64h-5.284v.64c.23.13.482.24.758.328.285.092.568.176.863.258v9.856c-.295.086-.578.174-.863.264-.273.086-.527.2-.758.33v.613h5.283v-.613c-.18-.13-.39-.246-.616-.344-.23-.1-.506-.183-.832-.25v-4.474h5.455v4.474c-.574.098-1.068.297-1.477.594v.613h5.31v-.613c-.228-.164-.485-.29-.763-.37-.28-.08-.562-.155-.857-.224v-9.855c.64-.105 1.18-.308 1.62-.585v-.64h-5.31v.64zm11.775 7.767l-.96 1.844h-.122l.268-2.29v-6.733c.33-.096.614-.19.853-.293.24-.098.445-.194.63-.293v-.64h-5.218v.64c.445.293.982.49 1.625.586v9.855c-.277.086-.547.174-.812.264-.258.086-.533.2-.81.33v.613h3.37l5.213-8.332.93-1.844h.124l-.242 1.94v7.026c-.527.133-1.018.332-1.477.594v.613h5.21v-.613c-.214-.13-.458-.244-.737-.33-.28-.09-.574-.178-.885-.264v-9.855c.557-.095 1.094-.292 1.623-.585v-.64h-3.318l-5.263 8.407zm20.475 1.3c-.406-.49-.816-.987-1.23-1.495-.408-.508-.812-1.002-1.217-1.48-.398-.474-.78-.906-1.143-1.298.688-.69 1.34-1.38 1.97-2.066.618-.687 1.212-1.367 1.767-2.04.395-.13.73-.247.998-.346.268-.1.486-.213.65-.342v-.64h-4.74v.64c.21.13.434.25.674.355.23.105.49.22.77.33-.51.77-1.058 1.48-1.646 2.142-.588.658-1.217 1.357-1.87 2.11l-1.132.247v-4.602c.264-.082.486-.168.676-.268.188-.1.367-.203.53-.318v-.64h-5.038v.64c.506.277 1.045.48 1.623.586v9.855c-.643.133-1.184.332-1.623.594v.613h5.434v-.613c-.2-.13-.43-.244-.703-.33-.27-.09-.567-.178-.895-.264v-4.62h.982c.62.853 1.24 1.724 1.846 2.605.605.886 1.28 1.77 2.014 2.656l.793.564h2.87v-.613l-1.155-.594c-.397-.418-.797-.873-1.205-1.367zm-14.992-60.713V241.255c-.105 17.83-13.057 30.283-31.484 30.285-18.43 0-31.377-12.454-31.482-30.284v-.207c.105-17.83 13.055-30.28 31.482-30.28s31.376 12.45 31.484 30.28zm-13.815-.005c0-21.692-9.61-26.24-17.672-26.24-8.058 0-17.66 4.548-17.66 26.24 0 17.662 5.776 26.248 17.66 26.25 11.894-.002 17.673-8.588 17.673-26.25zm-306.5-29.207c-.09.222-3.07 10.677-3.07 13.238 0 1.53.922 1.965 1.698 1.654.153-5.56 4.52-9.473 10.29-10.04 1.67-.167 5.486-.155 6.525 0 1.57.23 1.915.44 2.446.98 1.532 1.53 1.524 4.435 1.524 7.804v30.96c0 2.376-.085 4.226-.31 5.704-.292 3.8-3.46 6.793-7.336 6.793-.232 0-.464-.015-.69-.032-.063.12-.098.258-.098.422 0 .9 1.604 1.303 3.09 1.303.333 0 .64-.018.864-.057 3.266-.57 6.574-.896 10.122-.984h.563c3.544.09 6.853.414 10.12.984.224.04.53.057.86.057 1.49 0 3.095-.4 3.095-1.303 0-.164-.04-.303-.097-.422-.23.02-.458.033-.69.033-3.876 0-7.044-2.993-7.336-6.792-.227-1.48-.312-3.328-.312-5.703v-30.96c-.005-3.37-.007-6.272 1.52-7.806.537-.54.878-.75 2.45-.98 1.035-.155 4.856-.167 6.524 0 5.77.567 10.138 4.48 10.29 10.04.773.31 1.698-.125 1.698-1.654 0-2.562-2.982-13.018-3.072-13.238h-50.666zm117.447 38.285c-.182 0-.32.043-.444.113.03.164.055.33.055.54 0 8.27-6.71 14.978-14.978 14.978-.045 0-9.404.34-12.305-.508-2.042-.596-3.215-1.602-3.794-3.262l.336-.232-.373.12-.027-.105c-.225-.963-.364-2.062-.43-3.408l-.056-2.665v-10.52c.187-1.33.847-2.13 1.83-2.293v-.03l1.296-.003c2.56 0 4.096 0 6.026 1.936 1.573 1.563 2.32 2.903 2.864 3.88.312.554.56.99.846 1.277.586.59 1.598.406 1.598-.99 0-.817-.125-2.478-.244-4.08-.13-1.694-.265-3.446-.265-4.378 0-.93.135-2.685.265-4.38.12-1.6.244-3.26.244-4.077 0-1.4-1.012-1.572-1.598-.992-.287.29-.53.725-.846 1.28-.543.976-1.29 2.31-2.867 3.878-1.935 1.938-3.47 1.938-6.023 1.938h-.903c-1.207 0-2.017-.828-2.22-2.26l-.004-4.7v-5.275c0-8.675 0-9.386 6.64-9.386h8.68c.89 0 1.68.003 2.41.06.044-.005.084-.01.123-.01 5.615 0 10.178 4.496 10.297 10.085.77.29 1.68-.15 1.68-1.673 0-2.608-.704-11.473-.712-11.562-.014-.18-.17-1.728-1.772-1.728h-21.602c-.307-.012-.544-.012-.764 0h-22.024c-.14-.004-.265-.01-.396-.01-1.496 0-3.104.414-3.104 1.312 0 .244.075.435.2.592.213-.014.433-.032.652-.032 2.396 0 4.518 1.15 5.864 2.922.342.408.63.877.854 1.442.356.802.576 1.68.623 2.595.19 1.424.258 3.188.258 5.394l.005 15.25-.005 15.252c0 2.357-.082 4.2-.302 5.677-.244 3.844-3.438 6.89-7.34 6.89-.247 0-.49-.015-.73-.038-.05.11-.08.235-.08.382 0 .9 1.608 1.31 3.104 1.31.33 0 .636-.02.858-.056 3.355-.592 6.896-.928 10.53-1.006l.76.016c5.025.033 9.907.312 14.63.576 3.67.2 5.693.396 8.865.457.396.007.805.01 1.23.01 7.085 0 15.218-1.425 15.218-12.53 0-2.516-.562-4.956-1.717-7.477-.13-.3-.5-.5-.913-.5zm-199.068 19.19c0-.13-.027-.245-.067-.35-.232.02-.477.036-.72.036-3.858 0-7.02-2.98-7.33-6.757-.24-1.5-.33-3.394-.33-5.843l-.01-15.252.01-15.25c0-2.27.076-4.06.277-5.5.056-.885.265-1.73.606-2.498.17-.422.375-.788.612-1.118.008-.01.013-.02.02-.03.048-.07.1-.138.148-.196 1.34-1.838 3.5-3.037 5.946-3.037.223 0 .438.013.657.032.11-.15.178-.332.178-.562 0-.882-1.564-1.296-3.02-1.308H7.04c-1.454.012-3.018.426-3.018 1.308 0 .23.063.41.177.562.216-.02.433-.033.654-.033 2.444 0 4.608 1.198 5.948 3.036.053.06.103.127.148.195l.02.032c.233.33.44.696.61 1.118.343.77.553 1.613.61 2.498.2 1.44.275 3.23.275 5.5l.01 15.25-.01 15.252c0 2.45-.09 4.343-.328 5.843-.312 3.78-3.472 6.757-7.328 6.757-.248 0-.483-.02-.725-.037-.038.104-.063.22-.063.352 0 .9 1.604 1.31 3.095 1.31.334 0 .64-.02.868-.058 3.382-.594 6.922-.928 10.53-1.002 3.616.074 7.158.408 10.54 1.002.23.04.534.06.867.06 1.492 0 3.096-.408 3.096-1.312 0-.135-.027-.246-.066-.354-.243.022-.492.04-.744.04-3.934 0-7.137-3.094-7.34-6.976-.215-1.465-.296-3.295-.296-5.623l-.006-15.25.02-22.5c.08-1.23 1.093-2.21 2.34-2.21h19.78c1.252 0 2.263.98 2.34 2.21l.022 22.5-.006 15.25c0 2.33-.08 4.16-.293 5.624-.205 3.882-3.413 6.976-7.345 6.976-.252 0-.5-.02-.744-.04-.036.107-.063.22-.063.355 0 .9 1.603 1.31 3.093 1.31.333 0 .643-.02.87-.058 3.38-.594 6.924-.928 10.544-1.002 3.604.074 7.144.408 10.525 1.002.227.04.535.06.868.06 1.487-.004 3.094-.412 3.094-1.313zm437.402-7.395c-14.236 0-22.398-8.028-22.398-22.02v-.132c0-13.994 8.162-22.02 22.398-22.02 2.28 0 4.71.212 7.23.618l.532.074c-.043-.402-.09-.79-.145-1.152-.29-3.803-3.46-6.8-7.33-6.8-.24 0-.472.017-.7.038-.055-.123-.094-.26-.094-.422 0-.896 1.604-1.307 3.096-1.307.332 0 .637.02.86.06 3.267.567 6.573.894 10.122.987.1-.002.465-.002.562 0 3.547-.096 6.86-.42 10.123-.986.222-.04.532-.06.86-.06 1.49 0 3.094.407 3.094 1.306 0 .162-.037.3-.092.422-.232-.02-.463-.04-.697-.04-3.875 0-7.04 3-7.33 6.802-.06.363-.104.75-.145 1.168l.514-.09c2.512-.406 4.945-.617 7.225-.617 14.233 0 22.395 8.02 22.395 22.02v.13c0 13.992-8.162 22.02-22.396 22.02-2.288 0-4.728-.208-7.25-.62l-.522-.096c.047.587.1 1.15.18 1.647.29 3.8 3.455 6.793 7.33 6.793.234 0 .465-.013.697-.035.055.12.092.26.092.422 0 .897-1.604 1.308-3.094 1.308-.328 0-.64-.02-.86-.062-3.265-.57-6.577-.89-10.124-.983-.1.002-.466.002-.563 0-3.55.098-6.855.414-10.12.983-.228.04-.53.062-.862.062-1.49 0-3.096-.406-3.096-1.308 0-.16.038-.3.093-.422.23.022.46.035.7.035 3.87 0 7.04-2.994 7.33-6.793.077-.504.134-1.062.18-1.656l-.546.107c-2.526.412-4.965.62-7.253.62zm19.784-4.778c0 .217.004.4.004.608l.426.068c1.133.12 2.16.18 3.152.18 9.854 0 14.646-5.94 14.658-18.162-.012-12.225-4.807-18.164-14.658-18.164-.992 0-2.02.06-3.146.177l-.09.012-.34.042c-.002.354-.008.703-.008 1.09V250.49c.002 2.92.002 5.336.002 6.65zm-15.457.858c.99 0 2.022-.062 3.147-.182l.45-.08c0-.203.003-.387.003-.598V222.99c0-.39-.004-.744-.01-1.106l-.355-.025-.088-.013c-1.127-.117-2.154-.175-3.146-.175-9.854 0-14.645 5.94-14.66 18.162.012 12.222 4.803 18.164 14.66 18.164zM377.55 269c-3.938 0-7.143-3.094-7.344-6.975-.22-1.465-.293-3.295-.293-5.623v-.678l-.006-.033v-1.872l-.004-12.668.01-22.32c0-.012-.006-.02-.006-.028 0-.01.006-.02.006-.03v-.11l.012-.005c.078-1.232 1.092-2.212 2.338-2.212.023 0 .05.01.074.01l.012-.01 12.882.015c.885 0 1.674.002 2.41.055.04 0 .08-.004.12-.004 5.614 0 10.177 4.5 10.296 10.085.77.293 1.682-.148 1.682-1.672 0-2.607-.71-11.473-.715-11.562-.014-.177-.174-1.724-1.773-1.724l-44.867-.006c-1.273.014-2.627.39-2.95 1.057-.046.096-.07.2-.07.31 0 .118.02.222.052.317.014.035.033.062.053.096.02.053.047.104.082.146.213-.02.432-.03.646-.03 2.396 0 4.52 1.15 5.857 2.926.01.012.02.02.023.026 0 .006.006.008.006.01.02.025.047.046.062.074.05.062.096.13.145.196.01.01.013.023.022.03.035.046.06.102.096.147.068.105.14.217.203.328.08.135.147.285.216.438.035.077.08.138.11.22.358.802.57 1.68.622 2.595.188 1.424.256 3.188.256 5.394l.006 15.25-.006 15.25c0 2.36-.08 4.2-.305 5.68-.08 1.245-.472 2.4-1.095 3.4 0 .007 0 .007-.006.01-.108.18-.23.353-.355.52-.057.08-.117.147-.182.227-.068.09-.143.182-.223.27-1.344 1.525-3.31 2.49-5.506 2.49-.24 0-.482-.02-.713-.037-.044.104-.075.218-.075.354 0 .9 1.605 1.31 3.102 1.31.33 0 .64-.02.863-.058.186-.035.373-.058.562-.09 3.215-.525 6.56-.84 9.963-.913 3.62.074 7.162.408 10.547 1.003.225.038.533.057.867.057.974 0 1.987-.176 2.58-.553.31-.19.517-.443.517-.757 0-.135-.03-.245-.07-.354-.24.012-.49.03-.737.03zm-64.377-26.242c-1.08 0-2.018-.1-2.854-.27-.13.085-.228.167-.255.24-.21.51.105 1.06.285 1.23.566.568 3.53 2.185 9.44 2.185 4.903 0 17.618-3.113 17.618-17.326 0-7.69-2.104-11.45-7.117-14.533-4.987-3.067-15.126-2.594-15.126-2.594l-28.482-.004c-1.27.012-2.625.332-2.945.998-.05.096-.074.2-.074.31 0 .118.02.222.057.317.01.036.027.063.047.097.02.053.05.104.082.146.214-.02.43-.03.645-.03 2.396 0 4.52 1.15 5.86 2.926.005.01.02.018.022.025.004.006.006.008.006.01.02.025.22.296.23.304.032.044.59 1.048.624 1.13.355.803.574 1.68.62 2.596.19 1.422.257 3.188.257 5.393v30.5c0 2.358-.082 4.2-.303 5.68-.08 1.245-.468 2.4-1.09 3.4-.003.007-.003.007-.007.01-.11.18-.678.93-.756 1.02-1.348 1.524-3.316 2.49-5.512 2.49-.24 0-.477-.02-.71-.037-.042.104-.075.217-.075.353 0 .9 1.605 1.31 3.104 1.31.328 0 .633-.02.86-.058.187-.035 7.12-.93 10.526-1.002 3.62.073 7.16.407 10.547 1.002.23.04.535.057.867.057.975 0 1.99-.176 2.58-.553.312-.19.514-.443.514-.756 0-.136-.027-.246-.064-.354-.248.02-.494.038-.746.038-3.934 0-7.14-3.094-7.338-6.975-.22-1.466-.293-3.296-.293-5.623v-.68l-.008-.034v-1.87l.017-35.166c.078-1.232 1.092-2.212 2.338-2.212h8.512c9.38 0 11.012 8.533 11.11 12.363 0 0 .06.65.06.873 0 7.216-5.854 13.072-13.074 13.072zM90.987 262.082c-.243 3.845-3.432 6.89-7.337 6.89-.247 0-.492-.015-.734-.037-.043.11-.075.235-.075.383 0 .9 1.608 1.31 3.104 1.31.332 0 .637-.02.864-.058 3.354-.59 6.895-.926 10.525-1.004l.76.015c5.028.033 9.91.312 14.632.577 3.67.202 5.692.397 8.864.456.395.01.804.01 1.228.01 7.085 0 15.22-1.423 15.22-12.53 0-2.514-.563-4.953-1.72-7.475-.133-.293-.505-.492-.92-.492-.173 0-.313.043-.435.112.022.164.05.33.05.54 0 8.27-6.712 14.98-14.98 14.98-.045 0-9.404.34-12.307-.51-2.04-.594-3.21-1.6-3.794-3.26l.34-.233-.375.12-.03-.106c-.222-.964-.362-2.063-.426-3.41l-.052-2.663V245.18c.182-1.33.843-2.132 1.83-2.296v-.027l1.297-.004c2.553 0 4.094 0 6.024 1.936 1.567 1.563 2.318 2.903 2.864 3.88.31.552.556.988.843 1.277.588.588 1.603.406 1.603-.99 0-.82-.13-2.48-.25-4.08-.13-1.696-.266-3.448-.266-4.38 0-.93.137-2.683.266-4.378.12-1.6.25-3.26.25-4.08 0-1.398-1.017-1.57-1.603-.99-.287.288-.534.723-.843 1.278-.546.976-1.296 2.312-2.865 3.88-1.938 1.937-3.48 1.937-6.025 1.937h-.908c-1.207 0-2.017-.828-2.216-2.26l-.002-4.7v-5.275c0-8.675 0-9.386 6.642-9.386h8.67c.896 0 1.685.002 2.42.058.037-.004.08-.006.12-.006 5.613 0 10.176 4.493 10.295 10.082.773.29 1.68-.15 1.68-1.673 0-2.608-.707-11.473-.712-11.562-.015-.18-.174-1.727-1.775-1.727h-21.6c-.31-.014-.547-.014-.767 0H86.34c-.14-.006-.268-.01-.397-.01-1.496 0-3.104.412-3.104 1.312 0 .244.074.435.197.59.217-.012.436-.03.654-.03 2.395 0 4.518 1.15 5.86 2.922.347.408.633.877.857 1.442.358.802.57 1.68.622 2.595.187 1.422.256 3.188.256 5.394l.006 15.25-.006 15.25c.004 2.353-.076 4.194-.3 5.672z"/></svg>