<svg xmlns="http://www.w3.org/2000/svg" width="558.426" height="304.422" viewBox="0 0 558.426 304.422"><path fill="#fff" d="M280.477 24.82c0 1.03-.836 1.87-1.87 1.87-1.03 0-1.866-.84-1.866-1.87 0-1.027.836-1.87 1.866-1.87 1.034 0 1.87.842 1.87 1.87zm5.57 2.77c0 .918.74 1.66 1.658 1.66s1.66-.742 1.66-1.66-.742-1.666-1.66-1.666-1.658.748-1.658 1.666zm-7.442-.386c-.928 0-1.684.752-1.684 1.686 0 .928.757 1.68 1.685 1.68.933 0 1.686-.752 1.686-1.68 0-.934-.752-1.686-1.685-1.686zm0-9.306c-1.227 0-2.225.998-2.225 2.225 0 1.228.998 2.224 2.225 2.224 1.23 0 2.223-.996 2.223-2.224 0-1.227-.99-2.225-2.223-2.225zm9.26 5.05c0 .92.742 1.667 1.658 1.667.92 0 1.662-.748 1.662-1.666 0-.915-.742-1.66-1.662-1.66-.915 0-1.658.745-1.658 1.66zm5.584-4.636c0-.918-.737-1.66-1.66-1.66-.92 0-1.66.742-1.66 1.66s.74 1.66 1.66 1.66c.923 0 1.66-.742 1.66-1.66zM274.897 36.2c-.09-.195-.152-.36-.197-.504v-.017c-.042-.147-.06-.266-.062-.37.003-.146.053-.31.195-.46.3-.312 1.02.102 1.284.3.085.062.23.195.385.313.086.08.153.146.24.222.486.4.325-.03.128-.494-.005-.005-.005-.01-.005-.01-.146-.353-.238-.63-.302-.844-.027-.1-.058-.192-.08-.3-.052-.25-.058-.407-.065-.56 0-.063.005-.116.01-.16.006-.022.01-.046.016-.064.074-.37.36-.52 1.082-.04.354.24-.117-1.253.86-1.727.194-.096.33-.062.44 0 .96.53.512 1.966.866 1.726.7-.462.998-.327 1.087.022.007.04.015.074.02.108.002.005.002.015.002.02.004.04.006.08.004.116-.02.3-.018.623-.406 1.597h-.004c-.22.502-.45 1.05.076.612.074-.065.133-.125.203-.187.164-.13.338-.283.43-.35.266-.2.984-.613 1.285-.3.143.15.188.306.195.456h-.008c-.002.21-.078.498-.264.893-.197.424 1.006-.12 1.447 1.03.055.136.078.296 0 .53-.4 1.166-1.646.604-1.447 1.02.908 1.955-.883 1.312-1.45.912 0 0-1.06-.652-1.228-.273-.257.588-.154 1.39.1 2.074h-2.26c.258-.684.363-1.485.1-2.073-.166-.38-1.228.272-1.228.272-.563.396-2.358 1.042-1.448-.912.195-.418-1.05.145-1.445-1.02-.078-.235-.055-.396 0-.53.44-1.15 1.64-.604 1.443-1.028zm2.62 1.114c0 .604.484 1.1 1.088 1.1.608 0 1.097-.495 1.097-1.1 0-.6-.486-1.092-1.097-1.092-.602 0-1.087.493-1.087 1.092zm-16.355 13.632h35.05l.76-2.195h-36.7l.89 2.196zm23.482-18.712c0 .912.746 1.66 1.666 1.66.915 0 1.655-.748 1.655-1.66 0-.918-.74-1.666-1.654-1.666-.92 0-1.665.748-1.665 1.666zm12.66 15.673h-37.458l-2.114-5.494h41.694l-2.122 5.494zm-32.75-2.798c-.03-.654-.502-1.17-1.046-1.134-.544.024-.958.578-.926 1.235.035.65.51 1.16 1.052 1.135.54-.03.958-.584.92-1.236zm9.664.05c0-.653-.53-1.188-1.187-1.188-.654 0-1.188.532-1.188 1.187 0 .652.533 1.187 1.188 1.187.655-.002 1.186-.535 1.186-1.188zm11.022 0c0-.653-.533-1.188-1.188-1.188-.658 0-1.188.532-1.188 1.187 0 .652.527 1.187 1.188 1.187.657-.002 1.188-.535 1.188-1.188zm9.325.05c.035-.656-.38-1.21-.922-1.234-.545-.035-1.016.48-1.047 1.133-.04.65.373 1.206.916 1.235.545.027 1.017-.483 1.053-1.134zm6.275-8.098c.316 0 .525.18.594.428.438-1.062.885-2.144 1.23-2.986-.04.02-.07.03-.108.055-.367.194.44-.997-.197-1.433-.073-.055-.173-.084-.366 0-.96.396-1.016 1.627-1.24 1.432-.453-.4-.736-.274-.91.028-.014.02-.02.035-.025.05-.026.052-.046.09-.063.14-.037.13-.082.26-.11.47-.02.085-.022.165-.026.25-.015.18-.017.397-.003.698v.01c.023.384.023.748-.256.408-.048-.06-.083-.115-.134-.184-.092-.096-.174-.205-.225-.26-.157-.164-.634-.504-.978-.25-.164.13-.254.264-.305.39-.03.085-.05.185-.06.298v.012c-.007.123-.007.258.01.424.02.23-.323.123-.77.283-.007 0-.015.006-.02.01-.232.087-.482.24-.725.564-.084.11-.156.245-.162.44-.02.972 1.188.503.896.855-1.348 1.617.338 1.082.93.754 0 0 1.076-.544 1.102-.23.04.488-.287 1.156-.71 1.725h1.597c.223-.53.686-1.656 1.21-2.922-.245.21-.544.354-.83.354-.503 0-.767-.403-.58-.9.176-.508.733-.915 1.237-.915zm-20.348-4.98c.182-2.417.908-10.85 3.367-16.22.42-.928 1.077-1.102 1.43-1.127 1.288-.096 2.51 1.625 2.847 2.148.107.18.14.39.107.582.896-1.658 1.57-2.656 1.775-2.95.384-.548 1.505-1.462 2.978-.997l.283.084c1.743.545 6.376 1.984 8.858 5.082 3.018 3.764 3.754 7.764 2.19 11.893-.267.713-.605 1.57-.976 2.488-.088-.22-.236-.424-.48-.594-.188-.124-.39-.188-.605-.188-.146 0-.297.035-.453.095.354-.882.678-1.71.938-2.394.006-.01.006-.016.008-.02-.41-.883-.875-1.69-1.38-2.424-.642 1.296-1.35 2.792-2.06 4.392.422.475.842.992 1.268 1.547-.016.02-.03.044-.04.058-.08-.014-.155-.02-.237-.02-.21 0-.403.06-.583.16-.254-.324-.51-.64-.764-.928-.334.768-.66 1.555-.98 2.348-.134.045-.26.105-.368.195-.264.2-.453.44-.562.72l-.012.02-.003.02c-.05.142-.074.29-.096.45-.118.027-.253.078-.394.145.568-1.548 1.186-3.093 1.824-4.554-1.03-1.103-2.04-1.972-2.96-2.65-.495 1.21-.99 2.517-1.474 3.896-.107-.313-.322-.55-.617-.658.464-1.312.942-2.56 1.42-3.715-1.335-.9-2.433-1.4-3.054-1.636-.535 1.442-1.055 3.004-1.527 4.657-.163.215-.274.44-.358.648-.086-.014-.162-.025-.244-.025-.516 0-.936.314-1.133.828l-.025.08c-.033.105-.055.186-.068.27l-.006.03-.004.024-.006.06c-.016.13-.035.305-.03.538-.15-.06-.32-.094-.493-.104 2.215-9.36 6.045-16.117 7.387-18.29-.982-.39-1.852-.66-2.398-.83l-.295-.09c-.676-.22-1.082.355-1.086.36-.228.323-2.308 3.356-4.425 8.768-1.244 3.176-2.396 6.576-3.354 11.598-.1-.055-.206-.1-.306-.14.145-.6.16-1.87-.973-1.79.17-.803.296-1.39.437-1.98l-.648-.084v.025c-.01.158-.075.662-.267 2.04-.107.015-.22.034-.324.07.41-1.81-.557-2.205-1.046-1.91zm16.834-8.7c-1.31-.962-2.482-1.557-3.174-1.864-.69 1.436-1.44 3.137-2.178 5.058.652.244 1.754.738 3.088 1.62.79-1.846 1.56-3.453 2.264-4.813zm3.526 3.432c-.918-1.19-1.918-2.165-2.88-2.937-.694 1.354-1.46 2.95-2.235 4.78.93.68 1.944 1.545 2.99 2.638.74-1.65 1.47-3.177 2.124-4.48zm2.28-2.673c-.347.648-.806 1.518-1.33 2.568.464.648.907 1.36 1.31 2.14.412-1.592.42-3.166.02-4.707zm-2.6-4.732c-.478.738-1.255 1.994-2.173 3.73.958.758 1.96 1.705 2.896 2.87.672-1.32 1.217-2.333 1.533-2.92-.435-1.133-1.083-2.256-1.964-3.348-.093-.113-.19-.224-.29-.332zm-3.788-2.677c-.422.69-1.252 2.085-2.232 4.062.72.318 1.89.91 3.203 1.854.97-1.81 1.77-3.107 2.238-3.82-.94-.863-2.088-1.552-3.21-2.095zm-11.56.308l1.2.295c-.335-.424-.714-.793-.93-.893-.017.03-.034.066-.063.12-.07.16-.14.32-.207.478zm-.656 1.722l2.713.668c.154-.332.316-.652.47-.947l-2.827-.7c-.126.322-.24.652-.356.98zm-.56 1.79l2.47.607c.154-.344.305-.678.453-.996l-2.613-.646c-.106.344-.21.686-.31 1.037zm-.448 1.75l2.205.533c.133-.323.26-.633.39-.938l-2.35-.584c-.087.337-.167.66-.245.99zm-.373 1.73l1.962.395c.102-.265.188-.52.293-.78.008-.022.02-.042.025-.063l-2.08-.504c-.072.32-.135.64-.2.953zm-.314 1.76l1.658.31c.104-.305.227-.616.334-.922l-1.824-.37c-.06.335-.117.66-.168.982zm-.267 1.74l1.366.235c.094-.295.2-.604.305-.908l-1.53-.283c-.052.33-.096.65-.14.957zm-.214 1.777l1.074.146c.086-.305.176-.613.27-.918l-1.23-.215c-.042.347-.08.677-.114.987zm-.168 1.76l.783.1c.083-.31.15-.628.237-.94l-.938-.13c-.03.376-.065.7-.082.97zm-25.21 7.807c-.29 0-.592-.145-.833-.354.523 1.266.99 2.393 1.21 2.922h1.59c-.42-.568-.748-1.236-.708-1.725.024-.314 1.104.23 1.104.23.593.327 2.275.862.932-.755-.292-.354.912.115.893-.856-.005-.193-.075-.328-.158-.438-.244-.324-.496-.48-.728-.564-.008-.004-.016-.01-.022-.01-.44-.16-.79-.055-.77-.283.016-.165.016-.3.01-.423v-.012c-.014-.113-.028-.213-.06-.3-.05-.124-.136-.257-.305-.388-.342-.254-.815.086-.978.25-.052.055-.135.164-.227.26-.045.068-.085.123-.135.184-.28.34-.28-.023-.252-.407v-.01c.014-.3.01-.52-.006-.7l-.02-.25c-.033-.208-.08-.337-.118-.468-.018-.05-.037-.088-.057-.14-.014-.015-.022-.028-.03-.05-.176-.303-.46-.428-.914-.03-.224.196-.28-1.036-1.236-1.43-.192-.085-.297-.056-.37 0-.637.435.173 1.626-.19 1.43-.043-.024-.076-.034-.113-.054.346.845.785 1.92 1.23 2.987.07-.248.27-.43.592-.43.503 0 1.057.41 1.24.913.187.5-.072.904-.573.904zm12.47-9.674c.917 0 1.66-.742 1.66-1.66s-.743-1.666-1.66-1.666c-.92 0-1.663.748-1.663 1.666s.742 1.66 1.662 1.66zm1.4 4.644c.916 0 1.66-.748 1.66-1.66 0-.918-.744-1.666-1.66-1.666-.92 0-1.664.748-1.664 1.666 0 .912.745 1.66 1.663 1.66zm-3.216-9.28c.918 0 1.66-.747 1.66-1.665 0-.915-.742-1.66-1.66-1.66-.917 0-1.663.745-1.663 1.66 0 .917.745 1.665 1.662 1.665zm-4.594 11.92c-.232-.37-.354-.646-.395-.838h-.005c-.02-.142 0-.285.107-.42.23-.294.967.086 1.252.273v-.007.006c.102.063.284.202.46.323l.223.174h.003c.354.26.366.154.254-.08l-.13-.233c-.05-.08-.104-.17-.154-.26h-.003c-.528-.912-.575-1.218-.646-1.496-.012-.028-.017-.067-.017-.104l-.003-.02c-.002-.03 0-.066.003-.105.024-.325.284-.454 1.02-.017.368.22-.292-1.12.52-1.615.1-.06.218-.09.418 0 .994.443.797 1.836 1.092 1.615.256-.193.453-.273.608-.28.01 0 .015-.003.02-.003.007 0 .007.004.012.004.09 0 .165.03.225.08.005.006.01.006.016.01.06.056.11.13.146.23.008.014.01.035.02.05.018.05.03.1.04.153.018.146.038.295.03.535-.005.094-.015.184-.022.273-.022.205-.067.46-.147.787v.012c-.002.004-.005.01-.005.014 0 0 0 .006 0 0-.097.39-.162.748.112.53v-.007c.025-.014.055-.038.09-.073.067-.07.125-.13.192-.205.12-.11.24-.234.306-.293.04-.032.085-.07.14-.106.016-.01.025-.02.035-.025.115-.074.257-.154.404-.204.02-.006.03-.01.054-.01.066-.024.135-.035.2-.035.007 0 .014-.005.02-.005h.005c.108 0 .213.03.298.11.16.134.23.284.262.43.015.093.015.208.005.337 0 .006-.005.017-.008.017-.015.134-.042.294-.1.475-.112.393.923-.11 1.526.967.07.125.12.272.087.494-.182 1.092-1.44.567-1.184.96.566.89.438 1.197.09 1.25-.025 0-.045.003-.07.003H270.394c-.083-.005-.176-.01-.272-.036-.013 0-.02-.004-.035-.01-.1-.02-.197-.05-.3-.084-.007-.006-.017-.006-.022-.01-.102-.042-.2-.08-.29-.126-.004 0-.006 0-.01-.006-.093-.045-.18-.084-.248-.135 0 0-.21-.113-.454-.214-.32-.132-.688-.24-.738-.042-.15.556.08 1.308.435 1.945h-2.115c.127-.64.093-1.39-.25-1.945-.223-.354-1.108.255-1.108.255-.46.38-2.035.98-1.506-.85.115-.392-.957.132-1.525-.96-.107-.22-.113-.37-.085-.494.21-1.08 1.422-.576 1.168-.966zm2.527 1.05c.1.56.64 1.022 1.202 1.022.566 0 .945-.465.846-1.023-.1-.567-.64-1.026-1.205-1.026-.564 0-.94.458-.843 1.026zm1.457-19.272c0-.918-.742-1.66-1.66-1.66s-1.66.742-1.66 1.66.742 1.66 1.66 1.66 1.66-.742 1.66-1.66zm-231.7 224.33c-1.082 0-2.015-.1-2.85-.27-.126.08-.226.165-.254.24-.207.503.107 1.056.28 1.23.572.563 3.534 2.178 9.44 2.178 4.895 0 17.6-3.11 17.6-17.308 0-7.687-2.106-11.444-7.11-14.52-4.984-3.068-15.11-2.595-15.11-2.595l-28.458-.004c-1.27.016-2.627.327-2.947.997-.045.1-.072.2-.072.31 0 .12.022.226.058.315.013.037.03.062.047.1.024.055.05.102.08.147.22-.02.432-.032.652-.032 2.39 0 4.51 1.15 5.854 2.924.005.008.018.02.022.026.005.005.005.005.01.005.016.03.22.295.228.305.032.045.586 1.054.62 1.134.355.797.57 1.676.624 2.59.186 1.424.254 3.185.254 5.383v30.478c0 2.354-.084 4.2-.306 5.67-.077 1.246-.47 2.397-1.09 3.4l-.002.01c-.112.18-.68.93-.757 1.02-1.345 1.52-3.312 2.482-5.506 2.482-.24 0-.48-.017-.712-.034-.04.104-.075.213-.075.354 0 .9 1.608 1.312 3.1 1.312.33 0 .638-.024.86-.063.188-.037 7.117-.93 10.522-.998 3.614.073 7.15.407 10.53.997.23.04.534.062.87.062.975 0 1.986-.187 2.574-.556.313-.197.516-.447.516-.758 0-.14-.025-.25-.066-.354-.242.02-.49.034-.743.034-3.927 0-7.13-3.088-7.333-6.967-.216-1.462-.294-3.292-.294-5.616V253.693l.014-35.136c.076-1.228 1.09-2.203 2.335-2.203h8.503c9.373 0 11.004 8.52 11.102 12.35 0 0 .062.648.062.872-.005 7.217-5.856 13.066-13.07 13.066zm275.395 53.997c0-1.054-.066-1.92-.213-2.605-.146-.682-.363-1.227-.662-1.62-.307-.4-.684-.683-1.14-.843-.458-.152-.997-.234-1.616-.234-.996 0-1.826.285-2.502.852-.662.564-1.145 1.31-1.447 2.225-.098-.63-.256-1.146-.473-1.55-.22-.397-.486-.71-.803-.94-.315-.225-.657-.38-1.02-.46-.372-.083-.753-.124-1.15-.124-.954 0-1.747.276-2.39.823-.645.555-1.104 1.223-1.365 2h-.025v-2.822h-.627c-.53.087-1.078.196-1.637.34-.56.14-1.107.33-1.637.56v.652l1.647.2v9.823c-.3.09-.588.18-.877.273-.285.104-.543.215-.77.328v.63h5.374v-.63c-.23-.13-.47-.242-.713-.34-.237-.09-.495-.174-.763-.264v-7.346c.104-.355.236-.686.414-1.002.175-.318.38-.6.624-.86.244-.243.52-.44.828-.593.307-.147.643-.224 1.012-.224.482 0 .875.096 1.172.285.307.194.533.47.693.83.155.356.263.802.323 1.335.06.533.084 1.13.084 1.8v5.774c-.334.09-.623.183-.86.292-.24.104-.448.21-.616.31v.628h5.356v-.627c-.504-.234-1.04-.43-1.625-.604v-7.097c.2-.855.52-1.555.964-2.11.443-.544 1.062-.82 1.865-.82.49 0 .894.087 1.194.263.3.18.535.43.7.75.17.326.28.723.34 1.19.058.464.09 1 .09 1.6v6.224c-.49.14-.98.338-1.48.604v.627h5.376v-.626c-.527-.3-1.082-.49-1.646-.604l.003-6.27zm-22.88-5.302h-.624c-.533.1-1.082.227-1.643.375-.56.152-1.096.324-1.617.523v.65l1.633.2v6.876c-.287.867-.684 1.57-1.19 2.113-.51.545-1.136.812-1.888.812-.52 0-.943-.096-1.273-.287-.338-.193-.596-.467-.787-.814-.193-.348-.326-.78-.402-1.3-.074-.517-.115-1.105-.115-1.75 0-1.218.026-2.444.08-3.677.046-1.23.07-2.476.07-3.728h-.623c-.533.098-1.074.227-1.64.375-.56.152-1.103.324-1.64.523v.65l1.655.2c0 .997-.026 2.005-.078 3.01-.052 1.017-.072 2.042-.072 3.095 0 1.03.09 1.885.27 2.562.188.672.452 1.21.806 1.61.352.4.776.683 1.286.84.512.157 1.098.237 1.766.237.504 0 .96-.098 1.39-.28.42-.18.808-.42 1.138-.708.338-.295.604-.615.81-.973.21-.363.356-.72.442-1.072h.102l.174 2.99h.625c.534-.093 1.044-.218 1.54-.388.488-.164.977-.357 1.463-.572v-.527l-1.648-.195v-11.375h-.006v.005zm44.886-19.658c2.844 0 5.57-.494 7.436-1.604.74-.44 2.036-1.02 3.216-2.604.77-1.037.598-1.604.436-1.896-.062-.104-.34-.328-.432-.375-.01-.003-.184.222-.47.46-1.58 1.312-6.796 2.668-11.33-1.562-1.587-1.478-7.026-7.017-7.026-7.017L313.75 245.46c.733-.07 1.5-.32 1.833-.43 5.422-1.804 11.678-6.232 11.678-16.2 0-3.66-.483-6.43-1.524-8.65-1.145-2.45-2.967-4.254-5.582-5.86-3.06-1.884-8.047-2.43-11.45-2.57-2.142-.09-3.663-.02-3.663-.02l-28.457-.01c-1.27.015-2.625.333-2.942 1-.044.097-.068.194-.068.31 0 .046.015.08.02.12.01.07.01.135.03.196.013.03.028.058.05.092.023.054.048.1.078.15.222-.023.437-.033.653-.033 2.392 0 4.508 1.153 5.85 2.924.01.007.02.017.024.024l.008.01.23.3c.032.053.587 1.055.622 1.135.355.797.572 1.67.623 2.588.188 1.426.258 3.187.258 5.392v30.473c0 2.354-.088 4.193-.31 5.668-.08 1.248-.468 2.404-1.09 3.4l-.003.006c-.113.18-.682.933-.758 1.02-1.345 1.522-3.312 2.485-5.504 2.485-.24 0-.48-.016-.713-.035-.04.105-.07.22-.07.352 0 .047.02.092.03.133.143.732 1.387 1.105 2.678 1.164.61.048 1.188.022 1.55-.042.532-.094 1.063-.164 1.598-.244 1.686-.203 4.198-.48 6.346-.64.78-.038 1.564-.073 2.346-.09 3.426.07 6.85.38 10.283.974.407.072 1.063.1 1.745.025.02 0 .045-.006.066-.01.167-.016.327-.04.487-.07.34-.06.67-.15.967-.27l.09-.045c.096-.04.193-.08.27-.125.046-.03.083-.064.128-.094.234-.18.387-.4.387-.667 0-.123-.026-.23-.063-.326-.006-.008-.006-.016-.006-.025-.157.016-.323.018-.487.025-3.8-.145-6.857-3.172-7.057-6.957-.22-1.465-.295-3.29-.295-5.613v-2.585l.013-35.134c.08-1.227 1.09-2.203 2.336-2.203h7.97c9.375 0 11.006 8.52 11.105 12.346 0 0 .057.655.057.874 0 4.21-1.996 7.938-5.088 10.324-1.342 1.035-2.887 1.812-4.564 2.266-1.014.275-2.066.445-3.154.47-.955-.02-2.61-.105-3.365-.265-.038.024-.25-.105-.532 0-.104.04-.156.118-.203.173-.02.025-.043.05-.055.07-.066.16-.066.312-.05.465.015.14.054.264.1.373.09.26.224.48.354.61l18.807 19.904s6.767 7.473 14.198 7.588c.05-.005.104.008.165.008zm-59.246 22.15c.27.614.412 1.362.412 2.263 0 .285-.016.568-.034.863-.032.295-.077.604-.145.938h-7.8c0 .7.09 1.354.264 1.967.175.606.437 1.138.788 1.587.35.453.786.803 1.322 1.06.533.27 1.16.394 1.875.394.585 0 1.175-.08 1.773-.25.602-.17 1.05-.386 1.352-.647l.354.395c-.136.283-.345.55-.63.8-.28.253-.607.468-.978.65-.363.187-.763.33-1.195.442-.433.107-.88.162-1.323.162-.985 0-1.854-.156-2.605-.465-.75-.31-1.375-.742-1.876-1.326-.5-.573-.878-1.26-1.135-2.06-.263-.803-.39-1.7-.39-2.7 0-2.138.49-3.763 1.474-4.878.984-1.117 2.38-1.678 4.176-1.678.586 0 1.16.082 1.73.234.565.16 1.068.424 1.515.793.438.363.795.85 1.072 1.46zm-1.94 2.114c0-1.068-.2-1.92-.604-2.555-.396-.636-1.022-.948-1.872-.948-.95 0-1.677.318-2.176.96-.5.646-.803 1.776-.905 3.394h5.504c.02-.154.03-.3.04-.443.005-.138.013-.274.013-.41zm-67.57-2.115c.27.614.406 1.362.406 2.263 0 .285-.01.568-.033.863-.025.295-.075.604-.142.938h-7.804c0 .7.087 1.354.264 1.967.175.606.436 1.138.786 1.587.353.453.795.803 1.326 1.06.536.27 1.16.394 1.877.394.583 0 1.174-.08 1.77-.25.608-.17 1.06-.386 1.356-.647l.35.395c-.133.283-.345.55-.63.8-.276.253-.605.468-.972.65-.365.187-.767.33-1.2.442-.435.107-.876.162-1.327.162-.98 0-1.845-.156-2.6-.465-.747-.31-1.375-.742-1.876-1.326-.5-.573-.875-1.26-1.137-2.06-.26-.803-.393-1.7-.393-2.7 0-2.138.496-3.763 1.478-4.878.985-1.117 2.38-1.678 4.18-1.678.584 0 1.158.082 1.724.234.567.16 1.07.424 1.517.793.44.363.798.85 1.08 1.46zm-1.943 2.114c0-1.068-.202-1.92-.603-2.555-.398-.636-1.02-.948-1.872-.948-.95 0-1.677.318-2.18.96-.5.646-.8 1.776-.9 3.394h5.506c.015-.154.027-.3.035-.443.007-.138.014-.274.014-.41zm23.53 2.072l-.85 2.623h-.027l-.85-2.57-4.353-11.433h-5.124v.727c.336.135.67.26 1.012.36.342.114.69.194 1.037.27v14.804c-.348.064-.696.154-1.038.258-.342.11-.673.23-.985.365v.728h5.223v-.727c-.314-.134-.628-.25-.947-.354-.317-.094-.633-.174-.953-.248v-11.25l-.02-3.176h.22l.903 2.922 4.88 12.834h.645l5.128-12.834.823-2.674h.2l-.1 2.928v11.25c-.353.09-.692.174-1.024.264-.334.096-.666.205-1.002.34v.73h6.153v-.73c-.284-.135-.58-.244-.89-.34-.31-.09-.636-.166-.988-.234v-14.854c.333-.07.66-.15.974-.266.32-.104.626-.23.927-.363v-.723h-4.477l-4.498 11.374zm33.582 0c-.45-.334-.932-.635-1.438-.895-.51-.27-.992-.542-1.438-.817-.45-.277-.825-.572-1.114-.902-.292-.317-.44-.702-.44-1.155 0-.22.04-.434.13-.648.08-.22.2-.414.36-.576.154-.17.35-.31.578-.413.225-.11.486-.16.79-.16.265 0 .52.012.77.035s.48.078.68.158l.947 2.555h.622c.174-.566.3-1.12.39-1.66.096-.543.17-1.076.237-1.615-.53-.18-1.087-.33-1.663-.424-.573-.104-1.312-.15-2.216-.15-.53 0-1.03.082-1.495.234-.47.16-.876.38-1.23.645-.35.28-.622.61-.837.992-.207.38-.31.8-.31 1.248 0 .69.146 1.262.437 1.73.292.468.663.882 1.115 1.237.446.357.927.67 1.436.94.516.267.992.542 1.44.825.45.277.82.584 1.11.912.297.327.44.716.44 1.187 0 .568-.226 1.053-.68 1.445-.45.402-1.037.604-1.774.604-.218 0-.457-.004-.714-.02-.26-.02-.48-.1-.663-.228l-1.097-2.727h-.628c-.187.515-.334 1.052-.45 1.614-.113.56-.193 1.137-.224 1.738.646.23 1.274.41 1.875.535.602.13 1.263.19 1.976.19.64 0 1.23-.09 1.79-.27.56-.17 1.048-.417 1.477-.735.426-.318.762-.703 1-1.15.236-.445.36-.957.36-1.527 0-.607-.142-1.137-.438-1.584-.29-.44-.663-.83-1.11-1.164zm-14.376-27.613c7.08 0 15.2-1.423 15.2-12.52 0-2.507-.56-4.888-1.714-7.398-.135-.295-.504-.555-.918-.555-.177 0-.438.108-.438.108s.147.522.217 1.502c.62 8.646-6.866 14.002-15.13 14.002-.04 0-9.395.334-12.293-.515-2.04-.588-3.21-1.596-3.79-3.252l-.062-.226c-.227-.957-.36-2.056-.43-3.404l-.05-2.653v-10.51c.18-1.33.842-2.126 1.824-2.29v-.034h1.3c2.55 0 4.09 0 6.02 1.93 1.566 1.565 2.313 2.9 2.862 3.878.31.552.553.988.842 1.273.583.593 1.598.408 1.598-.987 0-.817-.127-2.476-.25-4.073-.126-1.695-.26-3.445-.26-4.373 0-.93.134-2.685.26-4.373.123-1.604.25-3.256.25-4.08 0-1.394-1.014-1.565-1.598-.985-.29.288-.53.723-.842 1.275-.55.972-1.296 2.31-2.867 3.873-1.93 1.937-3.47 1.937-6.015 1.937h-.908c-1.204 0-2.012-.82-2.216-2.254V225.73c0-8.662 0-9.375 6.635-9.375h8.667c.892 0 1.678.01 2.406.062.047-.006.087-.008.13-.008 5.606 0 10.164 4.488 10.28 10.068.774.293 1.68-.15 1.68-1.666 0-2.606-.7-11.46-.71-11.553-.017-.178-.176-1.723-1.776-1.723h-21.577c-.31-.017-.543-.017-.765 0h-22.002c-.137-.01-.264-.01-.397-.01-1.49 0-3.098.407-3.098 1.307 0 .248.072.438.2.59.214-.018.43-.03.653-.03 2.394 0 4.513 1.15 5.857 2.922.34.402.628.878.857 1.438.353.8.566 1.673.615 2.59.19 1.427.257 3.187.257 5.386l.007 15.238-.008 15.23c0 2.36-.08 4.206-.302 5.677-.242 3.84-3.43 6.882-7.333 6.882-.25 0-.49-.013-.73-.035-.045.108-.078.233-.078.382 0 .904 1.604 1.31 3.098 1.31.33 0 .64-.02.86-.06 3.357-.59 6.894-.924 10.522-.998l.758.01c5.02.035 9.9.31 14.615.574 3.665.205 5.688.396 8.854.46.4 0 .81.003 1.233.003zm44.307-234.28v.007c.28.22.21-.15.11-.543 0 0 0-.006-.005-.012-.076-.328-.12-.582-.146-.787-.008-.09-.016-.18-.02-.273-.013-.24.013-.39.028-.535.006-.055.02-.104.035-.154l.02-.05c.035-.1.084-.175.146-.23 0-.003.006-.003.01-.01.062-.048.137-.08.227-.08.006 0 .006-.003.01-.003.008 0 .016.004.02.004.153.006.355.086.61.28.29.22.1-1.173 1.09-1.616.2-.09.32-.058.418 0 .813.495.153 1.837.524 1.616.732-.438.988-.31 1.012.016.004.04.004.074.004.105 0 .004-.004.014-.004.02 0 .035-.004.074-.012.104-.07.28-.12.585-.646 1.497h-.002c-.053.086-.098.166-.145.244-.005.013-.01.018-.015.025-.05.086-.092.16-.12.226-.114.234-.106.34.25.08.08-.06.146-.114.224-.174.175-.12.362-.26.458-.323l.006-.007v.007c.283-.188 1.02-.568 1.246-.274.11.134.13.277.11.42h-.005c-.035.19-.16.468-.396.837-.255.393.956-.11 1.185.967.025.125.025.272-.088.494-.562 1.092-1.64.567-1.52.96.524 1.827-1.05 1.228-1.51.85 0 0-.892-.608-1.112-.255-.338.555-.375 1.307-.246 1.945h-2.12c.355-.64.584-1.392.44-1.945-.056-.193-.405-.094-.714.03-.262.1-.484.224-.484.224-.07.05-.154.09-.244.135-.006 0-.01.006-.016.006-.09.045-.188.084-.29.125-.003.004-.015.004-.024.01-.1.035-.197.064-.297.084-.01.006-.02.01-.036.01-.094.025-.184.03-.27.035H286.712c-.023 0-.045-.004-.064-.004h-.004c-.35-.05-.477-.365.09-1.248.258-.393-1.006.13-1.182-.96-.035-.222.014-.37.084-.495.605-1.078 1.64-.573 1.523-.967-.054-.18-.083-.34-.1-.475v-.016c-.017-.13-.01-.244 0-.338.028-.147.1-.296.26-.43.087-.08.188-.11.298-.11h.008c.006 0 .014.006.02.006.064 0 .133.01.197.035.02 0 .035.005.055.01.074.024.145.056.21.09.005 0 .01 0 .013.005.067.035.124.07.18.105.017.01.028.02.044.03.053.038.1.072.135.103.07.06.185.185.304.293l.193.204c.035.033.064.06.09.074zm.474 1.46c-.103.56.274 1.023.845 1.023.56 0 1.102-.465 1.2-1.023.105-.567-.278-1.026-.84-1.026-.565 0-1.104.458-1.204 1.026zm45.697 265.21l1.365.723v.63h-3.045l-.953-.702c-.465-.582-.895-1.15-1.275-1.71-.38-.563-.74-1.126-1.073-1.702s-.648-1.16-.938-1.748c-.298-.602-.59-1.22-.89-1.895h-2.36v6.427c.386.09.75.174 1.105.264.348.097.69.206 1.023.34v.728h-6.58v-.727c.367-.165.72-.294 1.05-.374.34-.084.673-.154 1.005-.23v-14.825c-.44-.085-.818-.18-1.15-.29-.334-.11-.637-.22-.902-.338v-.725h2.206c.664 0 1.398-.033 2.193-.1.792-.07 1.563-.1 2.315-.1.816 0 1.58.09 2.297.27.703.187 1.318.478 1.84.874.518.405.924.907 1.217 1.526.292.617.437 1.36.437 2.23 0 1.216-.32 2.218-.97 3.028-.644.797-1.517 1.377-2.616 1.725.712 1.126 1.47 2.26 2.25 3.376.783 1.122 1.6 2.226 2.447 3.327zm-4.625-8.595c.678-.73 1.016-1.688 1.016-2.883 0-1.23-.363-2.13-1.076-2.707-.723-.578-1.646-.873-2.775-.873-.402 0-.73.016-.992.03-.258.013-.49.05-.71.095v7.43h1.8c1.147 0 2.06-.366 2.737-1.092zm77.216-69.04l-.01 10.968c.002.035.01.065.01.104.004.064.04.127.057.188v.096l-.002 4.623.002 3.205c-.035.104-.078.2-.086.31l.007 11.68v.218c.004.505.008.988.016 1.45.002.2.014.386.02.58.007.313.02.622.03.91.012.202.025.38.037.57.02.26.035.524.06.763.02.18.04.344.058.514.03.273.062.55.104.8.033.327.068.657.148.972l.002.017c.53 2.48 2.31 4.49 4.64 5.36.02 0 .03.01.052.015.334.123.688.21 1.047.277.09.02.177.04.267.056.385.06.775.1 1.178.1.23 0 .465-.014.69-.035h.026c.024.062.028.122.038.187.002.02.012.03.016.05.002.03.016.06.016.097 0 0-.004.006-.004.012s.004.01.004.016c0 .064-.02.125-.043.184-.06.24-.23.434-.484.6-.22.14-.516.244-.83.328-.064.02-.14.025-.205.04-.006.003-.016.003-.02.003-.123.027-.242.05-.37.066-.362.06-.735.107-1.122.11-.305-.003-.588-.02-.797-.056-.024-.004-.044-.004-.063-.012-.104-.012-.197-.02-.28-.04-.427-.07-.856-.132-1.286-.192-.114-.02-.23-.03-.347-.045.627.092 1.254.18 1.875.29.227.032.535.06.87.06.007 0 .02-.006.028-.006.023 0 .04.006.06.006.35 0 .698-.025 1.036-.07-.355.06-.72.1-1.098.1-.334 0-.643-.02-.867-.06-3.38-.59-6.916-.927-10.53-1.003-3.032.068-6.01.33-8.896.764-.425.063-.853.118-1.282.194-.084.014-.18.03-.283.033-.02.006-.037.012-.06.012-.228.038-.532.058-.862.058-1.13 0-2.326-.234-2.838-.748-.188-.164-.295-.363-.295-.594 0-.01.01-.02.01-.03.006-.118.03-.228.066-.322h.004c.006-.005.006-.02.008-.024.178.018.363.02.547.024h.004c.067.007.14.007.208.01.398 0 .785-.044 1.162-.103.072-.01.148-.03.225-.044.324-.062.635-.146.94-.25.052-.017.104-.03.155-.05.334-.124.652-.27.963-.436.03-.022.068-.033.104-.056.326-.185.637-.394.932-.623.08-.06.15-.124.228-.187.234-.192.457-.407.66-.633.014-.017.027-.03.043-.04l.15-.18c.185-.22.356-.45.52-.692.095-.146.18-.29.263-.442.12-.205.234-.42.334-.644.062-.142.115-.285.172-.437.073-.21.144-.424.202-.647.04-.147.084-.293.115-.45.016-.066.02-.138.033-.208.04-.254.08-.504.096-.762.223-1.476.307-3.316.307-5.675l.004-11.545c-.004-.07-.004-.135-.004-.135-.064-.857-.77-1.535-1.646-1.535h-21.15c-.806 0-1.446.582-1.595 1.34v11.875c0 2.356.082 4.2.305 5.675.078 1.245.47 2.4 1.092 3.4l.005.01c.107.174.23.35.354.52.056.076.12.146.18.223.07.097.144.19.224.27.39.452.842.85 1.338 1.183.02.02.045.035.074.05.22.15.45.286.688.41.29.15.58.294.896.397.123.05.242.09.367.125.102.03.2.06.307.086.557.134 1.135.214 1.734.214.084-.004.168-.004.25-.01.168-.004.336-.01.496-.025.006.005.006.02.008.03.018-.006.037-.006.06-.006.036.096.06.205.063.324 0 .01.008.02.008.03 0 .31-.215.558-.533.753-.02.017-.027.028-.05.04-.02.014-.046.02-.067.033-.06.03-.125.062-.19.092-.13.06-.272.113-.423.15-.05.02-.094.035-.146.055-.008 0-.02.004-.03.004-.062.012-.118.02-.177.033-.143.03-.297.057-.44.08-.356.06-.724.102-1.097.102-.334 0-.646-.022-.87-.063-3.378-.59-6.915-.928-10.53-1.004-3.03.068-6.01.33-8.893.768-.428.062-.86.118-1.287.192-.084.018-.182.03-.28.033-.02.006-.042.012-.063.012-.225.04-.533.062-.86.062-1.134 0-2.325-.235-2.84-.75-.157-.153-.26-.343-.26-.56 0-.016.01-.02.01-.033 0-.014-.01-.018-.01-.023s.007-.01.007-.016c.002-.115.027-.22.06-.314v-.025c.056.005.112.005.16.01.124.01.25.01.374.018v-.003c.074.008.146.008.217.012.836-.004 1.64-.154 2.39-.414.02-.01.042-.016.063-.02.344-.126.672-.278.988-.446.03-.023.07-.033.102-.055.342-.19.664-.402.967-.645.062-.052.115-.102.176-.148.25-.21.483-.437.704-.675.06-.062.113-.135.17-.197.188-.223.357-.45.52-.693.096-.145.18-.29.266-.443.12-.205.232-.42.332-.643.06-.142.115-.286.172-.437.076-.21.145-.426.2-.648.044-.148.09-.293.118-.45.012-.067.023-.138.03-.208.046-.254.083-.504.1-.762.222-1.477.306-3.316.306-5.674l.004-11.663V236.534l.03-.115-.007-10.522c0-.08-.006-.142-.006-.22 0-.504-.003-.992-.017-1.45-.002-.205-.01-.39-.018-.585-.01-.31-.018-.622-.03-.904-.013-.2-.024-.38-.042-.57-.016-.26-.035-.52-.055-.768-.016-.18-.04-.347-.06-.51-.032-.283-.062-.567-.105-.828 0-.022-.008-.05-.012-.067-.034-.256-.06-.504-.118-.748-.006-.024-.01-.057-.01-.087-.01-.043-.018-.084-.025-.125-.193-.883-.56-1.693-1.047-2.43-1.312-1.988-3.55-3.314-6.113-3.314-.188 0-.373.018-.562.024-.047.01-.104.01-.16.01-.027-.09-.05-.19-.055-.305 0-.015-.006-.02-.006-.032 0-.006-.004-.013-.004-.013 0-.107.027-.21.068-.303.023-.04.05-.078.084-.115.02-.028.035-.062.06-.09.335-.38 1.022-.62 1.82-.728.29-.045.6-.066.897-.074.017 0 .032-.006.054-.006l11.518.006 11.52-.006c.017 0 .032.006.052.006.104 0 .21.02.312.024.035.005.07.005.104.005.018 0 .025.01.04.01.212.018.415.035.614.076.232.04.463.09.668.152.012.003.02.005.03.012.02.004.034.01.058.02.242.08.455.18.63.296.272.188.44.428.44.717 0 .135-.027.246-.07.354-.24-.023-.488-.04-.742-.04-2.56 0-4.812 1.325-6.127 3.32-.005.005-.01.017-.01.022-.01.014-.022.033-.032.055-.672 1.042-1.096 2.26-1.16 3.57-.193 1.312-.273 2.933-.29 4.923l-.01 10.97c.003.034.01.065.01.103.007.066.042.127.058.187.062.34.21.647.447.884.295.284.697.467 1.146.467h21.147c.876 0 1.58-.676 1.647-1.533.004-.036.008-.067.008-.103v.354c.004 0 .006-.005.006-.01l-.01-11.313c-.016-1.99-.1-3.61-.29-4.922-.005-.142-.03-.28-.05-.424-.025-.198-.045-.395-.096-.587-.006-.025-.008-.052-.012-.08-.02-.086-.043-.177-.062-.267-.08-.324-.19-.644-.314-.946-.033-.084-.06-.168-.094-.248-.17-.386-.363-.754-.6-1.1-1.312-1.99-3.55-3.313-6.107-3.314-.256 0-.496.016-.74.04-.037-.108-.064-.22-.064-.354 0-.65.847-1.047 1.874-1.21.027-.007.05-.007.072-.01.03-.007.062-.01.096-.018.293-.045.604-.067.9-.073.02 0 .04-.007.057-.007l11.517.007 11.52-.007c.018 0 .035.007.055.007.05 0 .098.01.148.01.22.01.438.03.646.055.086.018.166.03.248.046.02 0 .04.006.06.008.003.003.005.003.005.003.21.04.413.086.6.146.01 0 .02 0 .03.007.01.002.02.004.027.01.02.005.035.01.06.02.026.01.042.026.07.034.153.058.29.128.415.197.04.022.104.04.14.063.087.062.142.13.204.203.004 0 .006 0 .006.006.068.073.12.16.156.25l.004.002c.027.08.072.16.072.256 0 .135-.027.246-.062.354-.244-.024-.492-.037-.74-.04-.398 0-.785.04-1.166.103-.102.017-.197.034-.3.056-.3.063-.593.145-.876.24-.08.022-.164.043-.238.075-.354.138-.693.287-1.02.48-.044.022-.085.054-.132.08-.273.162-.537.347-.787.544-.08.06-.154.124-.23.187-.24.21-.465.424-.674.658-.042.043-.083.08-.118.125-.246.277-.465.578-.664.896-.05.08-.094.17-.145.257-.145.254-.273.508-.39.77-.038.09-.075.182-.108.275-.127.334-.236.668-.312 1.02l-.02.075c-.056.225-.077.455-.106.69-.014.147-.043.286-.05.433-.223 1.277-.303 2.9-.32 4.89zm-14.634 45.075c-.115.016-.232.023-.352.045-.43.062-.855.123-1.285.193-.08.022-.18.03-.283.04-.016.008-.035.008-.055.012-.216.033-.5.053-.804.055.012 0 .02.006.03.006.335 0 .642-.025.87-.06.622-.11 1.25-.198 1.878-.29zm1.685 22.055c.2.14.417.25.642.35.22.105.47.19.74.254l-2.67 7.5-.373 1.58h-.058l-.498-1.555-2.887-7.525c.287-.084.537-.184.762-.29.226-.11.448-.218.66-.333v-.63h-5.247v.648c.398.234.844.434 1.326.604l4.876 11.555 1.127-.3 4.43-11.255c.293-.084.566-.174.807-.273.244-.1.443-.214.613-.33v-.65h-4.256l.002.648zm15.542 1.54c.273.616.408 1.364.408 2.265 0 .285-.014.568-.03.863-.028.295-.073.604-.145.938h-7.8c0 .7.087 1.354.267 1.967.176.606.436 1.138.787 1.587.347.453.784.803 1.32 1.06.538.27 1.16.394 1.88.394.584 0 1.172-.08 1.775-.25.596-.17 1.047-.386 1.352-.647l.344.395c-.128.283-.34.55-.622.8-.283.253-.61.468-.973.65-.37.187-.768.33-1.2.442-.435.107-.876.162-1.327.162-.984 0-1.852-.156-2.602-.465-.75-.31-1.373-.742-1.877-1.326-.497-.573-.882-1.26-1.138-2.06-.264-.803-.39-1.7-.39-2.7 0-2.138.487-3.763 1.476-4.878.986-1.117 2.38-1.678 4.182-1.678.576 0 1.154.082 1.723.234.568.16 1.068.424 1.514.793.44.363.798.85 1.075 1.46zm-1.94 2.116c0-1.068-.2-1.92-.6-2.555s-1.022-.948-1.88-.948c-.947 0-1.674.318-2.17.96-.504.646-.803 1.776-.9 3.394h5.502c.018-.154.025-.3.035-.443.01-.138.013-.274.013-.41zm149.155-.432H427.492c-.44 0-.79.494-.79 1.11 0 .61.35 1.106.79 1.106h130.146c.434 0 .787-.494.787-1.105 0-.617-.354-1.11-.788-1.11zm-199.342 2.504c-.45-.334-.93-.635-1.44-.895-.507-.27-.983-.542-1.435-.817-.45-.277-.822-.572-1.11-.902-.298-.317-.442-.702-.442-1.155 0-.22.04-.434.127-.648.082-.22.2-.414.363-.576.158-.17.354-.31.576-.413.22-.11.486-.16.785-.16.26 0 .524.012.772.035.254.023.477.078.678.158l.947 2.555h.625c.168-.566.293-1.12.39-1.66.093-.543.173-1.076.235-1.615-.53-.18-1.09-.33-1.66-.424-.574-.104-1.312-.15-2.217-.15-.533 0-1.03.082-1.498.234-.47.16-.875.38-1.23.645-.35.28-.626.61-.833.992-.21.38-.315.8-.315 1.248 0 .69.146 1.262.44 1.73.282.468.66.882 1.106 1.237.452.357.93.67 1.44.94.508.267.986.542 1.438.825.45.277.824.584 1.11.912.292.327.442.716.442 1.187 0 .568-.227 1.053-.68 1.445-.45.402-1.037.604-1.773.604-.22 0-.455-.004-.713-.02-.262-.02-.48-.1-.666-.228l-1.1-2.727h-.625c-.186.515-.334 1.052-.447 1.614-.117.56-.195 1.137-.225 1.738.647.23 1.272.41 1.874.535.604.13 1.256.19 1.977.19.634 0 1.23-.09 1.792-.27.56-.17 1.05-.417 1.47-.735.427-.318.767-.703 1.005-1.15.236-.445.36-.957.36-1.527 0-.607-.145-1.137-.437-1.584-.286-.44-.658-.83-1.105-1.164zm25.29-6.678c-.448-.05-.89 0-1.313.135-.426.143-.814.352-1.18.613-.355.27-.672.566-.947.902-.275.33-.486.664-.635 1.002h-.1v-2.652h-.625c-.52.086-1.064.195-1.63.34-.565.14-1.12.328-1.647.56v.65l1.648.2v9.824c-.268.074-.54.146-.8.23-.272.078-.552.21-.85.375v.627h5.895v-.627c-.327-.182-.66-.32-1-.41-.33-.096-.66-.148-.993-.193v-7.426c.21-.6.457-1.047.732-1.36.272-.304.503-.515.687-.616h3.33v-.648c-.084-.28-.174-.55-.264-.812-.088-.26-.194-.49-.31-.714zm-35.448 2.49c.27.616.41 1.364.41 2.265 0 .285-.014.568-.037.863-.025.295-.07.604-.14.938h-7.804c0 .7.088 1.354.26 1.967.182.606.44 1.138.79 1.587.353.453.794.803 1.327 1.06.535.27 1.16.394 1.877.394.584 0 1.172-.08 1.773-.25.604-.17 1.053-.386 1.354-.647l.35.395c-.137.283-.344.55-.62.8-.29.253-.614.468-.98.65-.368.187-.77.33-1.204.442-.432.107-.875.162-1.322.162-.98 0-1.853-.156-2.6-.465-.753-.31-1.38-.742-1.876-1.326-.502-.573-.883-1.26-1.14-2.06-.26-.803-.392-1.7-.392-2.7 0-2.138.492-3.763 1.48-4.878.98-1.117 2.372-1.678 4.177-1.678.58 0 1.153.082 1.728.234.562.16 1.07.424 1.516.793.432.363.8.85 1.073 1.46zm-1.945 2.116c0-1.068-.197-1.92-.596-2.555-.4-.636-1.025-.948-1.873-.948-.953 0-1.676.318-2.174.96-.51.646-.806 1.776-.907 3.394h5.504c.014-.154.033-.3.04-.443.005-.138.005-.274.005-.41zm26.445-2.115c.27.614.408 1.362.408 2.263 0 .285-.016.568-.033.863-.027.295-.068.604-.145.938h-7.8c0 .7.09 1.354.263 1.967.18.606.438 1.138.785 1.587.352.453.795.803 1.332 1.06.527.27 1.15.394 1.87.394.585 0 1.177-.08 1.774-.25.605-.17 1.056-.386 1.355-.647l.346.395c-.13.283-.337.55-.624.8-.277.253-.605.468-.97.65-.37.187-.77.33-1.204.442-.436.107-.877.162-1.324.162-.982 0-1.852-.156-2.6-.465-.754-.31-1.377-.742-1.875-1.326-.502-.573-.877-1.26-1.14-2.06-.263-.803-.39-1.7-.39-2.7 0-2.138.49-3.763 1.475-4.878.986-1.117 2.373-1.678 4.178-1.678.584 0 1.158.082 1.723.234.57.16 1.075.424 1.515.793.445.363.805.85 1.082 1.46zm-1.943 2.114c0-1.068-.2-1.92-.598-2.555-.402-.636-1.023-.948-1.875-.948-.948 0-1.675.318-2.18.96-.5.646-.798 1.776-.896 3.394h5.502c.012-.154.03-.3.037-.443.01-.138.01-.274.01-.41zm-122.838-4.606h-.63c-.53.1-1.075.227-1.634.375-.562.152-1.102.324-1.613.523v.65l1.625.2v6.876c-.29.867-.684 1.57-1.188 2.113-.513.545-1.14.812-1.892.812-.517 0-.938-.096-1.276-.287-.333-.193-.593-.467-.785-.814-.194-.348-.33-.78-.398-1.3-.08-.517-.112-1.105-.112-1.75 0-1.218.022-2.444.07-3.677.057-1.23.077-2.476.077-3.728h-.625c-.534.098-1.077.227-1.638.375-.56.152-1.108.324-1.638.523v.65l1.65.2c0 .997-.025 2.005-.07 3.01-.055 1.017-.08 2.042-.08 3.095 0 1.03.09 1.885.272 2.562.185.672.456 1.21.8 1.61.354.4.78.683 1.292.84.51.157 1.097.237 1.76.237.504 0 .963-.098 1.39-.28.428-.18.807-.42 1.14-.708.335-.295.603-.615.81-.973.213-.363.355-.72.44-1.072h.1l.177 2.99h.625c.53-.093 1.045-.218 1.54-.388.488-.164.977-.357 1.46-.572v-.527l-1.648-.195v-11.375h-.003v.005zm-107.852-79.66c-.095.22-3.068 10.664-3.068 13.228 0 1.524.92 1.96 1.697 1.65.148-5.55 4.514-9.467 10.277-10.034 1.666-.164 5.482-.147 6.52 0 1.568.233 1.907.445 2.446.98 1.525 1.532 1.52 4.436 1.517 7.796v30.93c0 2.376-.08 4.227-.31 5.7-.29 3.795-3.456 6.786-7.325 6.786-.233 0-.463-.016-.692-.028-.056.12-.095.254-.095.42 0 .895 1.604 1.302 3.092 1.302.332 0 .636-.02.862-.062 3.26-.566 6.566-.893 10.112-.98h.56c3.545.09 6.852.414 10.112.98.228.04.532.062.86.062 1.487 0 3.09-.404 3.09-1.303 0-.165-.038-.3-.092-.42-.23.016-.46.03-.693.03-3.867 0-7.034-2.992-7.323-6.787-.23-1.476-.31-3.324-.31-5.7V225.3c-.01-3.36-.014-6.264 1.52-7.797.528-.533.874-.745 2.44-.978 1.04-.147 4.854-.164 6.52 0 5.768.567 10.128 4.483 10.28 10.033.774.31 1.697-.125 1.697-1.65 0-2.56-2.98-13.008-3.065-13.228h-50.628zm112.89-181.05c-1.563-4.13-.826-8.13 2.187-11.894 2.484-3.098 7.116-4.537 8.86-5.082l.283-.084c1.476-.465 2.598.45 2.98.996.204.295.877 1.293 1.774 2.95-.03-.192-.003-.4.112-.58.33-.524 1.547-2.245 2.84-2.15.353.026 1.006.2 1.43 1.128 2.456 5.37 3.188 13.803 3.366 16.22-.488-.294-1.456.102-1.047 1.91-.106-.034-.216-.054-.328-.068-.188-1.377-.254-1.88-.262-2.04 0-.005 0-.016-.002-.023l-.646.085c.14.59.26 1.178.437 1.98-1.136-.08-1.12 1.19-.976 1.788-.103.04-.205.086-.307.142-.955-5.02-2.11-8.423-3.353-11.6-2.115-5.41-4.194-8.442-4.426-8.768-.005-.004-.41-.578-1.092-.36l-.292.092c-.546.17-1.414.437-2.396.827 1.342 2.174 5.174 8.933 7.388 18.29-.175.01-.34.046-.496.105.007-.234-.013-.408-.028-.537l-.01-.062v-.023l-.005-.03c-.017-.083-.035-.163-.07-.27l-.026-.08c-.194-.514-.613-.827-1.13-.827-.08 0-.163.012-.243.024-.08-.21-.197-.435-.357-.647-.478-1.654-.997-3.215-1.528-4.656-.62.234-1.72.732-3.054 1.635.476 1.155.957 2.403 1.423 3.714-.29.11-.51.344-.617.658-.483-1.38-.98-2.688-1.474-3.898-.923.682-1.933 1.55-2.962 2.652.64 1.46 1.256 3.006 1.824 4.553-.142-.065-.276-.116-.396-.146-.015-.16-.045-.31-.092-.45l-.01-.02-.007-.02c-.11-.278-.3-.52-.562-.72-.112-.09-.242-.15-.37-.194-.32-.793-.645-1.58-.98-2.35-.255.29-.512.606-.767.93-.177-.1-.37-.16-.58-.16-.08 0-.16.007-.24.02-.01-.013-.025-.038-.038-.058.424-.556.843-1.072 1.267-1.548-.708-1.6-1.418-3.096-2.06-4.394-.505.732-.972 1.54-1.378 2.425.004.004.004.01.006.02.26.685.584 1.513.938 2.394-.156-.06-.31-.095-.453-.095-.22 0-.42.063-.605.188-.242.17-.396.373-.48.595-.366-.918-.705-1.778-.972-2.49zm22.056-.484l-.935.13c.087.313.156.628.234.94l.784-.1c-.016-.267-.047-.59-.084-.97zm-.192-1.774l-1.23.215c.094.305.18.613.27.918l1.072-.146c-.032-.31-.068-.64-.112-.987zm-.24-1.746l-1.532.283c.104.305.21.613.305.908l1.362-.234c-.04-.307-.086-.626-.135-.956zm-.295-1.765l-1.828.368c.115.306.23.617.337.922l1.66-.31c-.05-.323-.11-.647-.17-.98zm-.343-1.733l-2.08.504c.01.022.016.04.024.063.104.264.19.518.29.78l1.964-.393c-.065-.313-.13-.633-.198-.953zm-2.772-1.18c.127.305.26.613.392.938l2.203-.533c-.077-.33-.157-.654-.243-.988l-2.352.583zm1.837-2.383l-2.612.647c.15.32.3.653.454.997l2.47-.606c-.102-.35-.2-.692-.312-1.036zm-2.1-2.18l1.193-.296c-.062-.157-.135-.317-.21-.48-.02-.052-.044-.09-.06-.118-.215.1-.59.47-.924.893zm-1.33 1.147c.148.296.31.616.47.948l2.712-.668c-.114-.328-.23-.658-.354-.98l-2.828.7zm-8.028 10.178c-.773-1.83-1.536-3.426-2.24-4.78-.956.77-1.956 1.743-2.876 2.937.654 1.307 1.39 2.832 2.125 4.48 1.047-1.093 2.065-1.96 2.992-2.637zm1.578-7.14c-.684.31-1.855.902-3.17 1.865.704 1.36 1.477 2.967 2.265 4.812 1.334-.88 2.436-1.375 3.087-1.62-.733-1.92-1.483-3.623-2.182-5.057zm-5.796-2.694c.468.713 1.27 2.01 2.238 3.82 1.314-.943 2.486-1.535 3.206-1.854-.982-1.977-1.812-3.373-2.234-4.06-1.123.544-2.267 1.233-3.21 2.094zm-2.833 4.264c.318.588.862 1.602 1.533 2.922.935-1.166 1.932-2.113 2.895-2.87-.923-1.737-1.693-2.993-2.17-3.73-.103.106-.204.22-.296.333-.88 1.09-1.533 2.213-1.963 3.345zm-.325 5.76c.403-.776.843-1.49 1.312-2.14-.53-1.053-.982-1.92-1.332-2.567-.402 1.542-.394 3.116.02 4.708zM225.49 151.636c.683 1.39 1.562 2.73 2.688 3.885 1.11 1.16 2.468 2.12 3.94 2.833 2.974 1.425 6.365 1.8 9.603 1.545 3.387-.256 6.543-1.776 9.39-3.48 5.167-3.09 11.455-10.126 15.33-15.923 4.67-6.98 9.283-16.754 11.956-21.98l.025-.05.023.05c2.673 5.227 7.285 15 11.955 21.98 3.877 5.797 10.16 12.832 15.326 15.924 2.852 1.702 6.01 3.224 9.398 3.478 3.23.255 6.62-.12 9.596-1.545 1.475-.713 2.832-1.672 3.94-2.832 1.128-1.15 2.005-2.492 2.69-3.884.688-1.396 1.127-2.873 1.416-4.354.277-1.496.354-2.992.17-4.502-.355-2.963-1.592-5.734-3.467-7.885-1.86-2.164-4.412-3.65-7.078-4.193-2.646-.574-5.505-.15-7.712 1.246-2.21 1.383-3.77 3.535-4.373 5.85-1.37 5.29 1.54 9.68 5.066 10.775 1.92.596 3.75.35 5.233-.21 1.5-.577 3.877-2.343 3.854-6.24-.02-3.038-2.047-4.196-3.67-4.196-1.842 0-3.336 1.492-3.336 3.337 0 1.84.813 2.288 1.593 2.935.98.806.77 3.244-2.943 2.128-3.732-1.123-4.4-5.564-3.738-7.984.5-1.8 1.627-3.598 3.367-4.742 1.74-1.15 4.022-1.574 6.315-1.14 2.3.388 4.5 1.663 6.15 3.544 1.662 1.88 2.807 4.348 3.117 6.967.28 2.602-.31 5.416-1.62 7.822-1.294 2.418-3.41 4.358-5.954 5.373-2.553 1.028-5.44 1.164-8.287.74-2.74-.38-5.29-1.734-7.53-3.525-2.256-1.795-4.074-4.158-6.014-6.44-7.88-9.276-15.256-26.33-17.896-31.52-.396-.797-1.152-2.29-2.055-4.032 1.324-2.682 2.605-5.3 3.89-7.83 2.395-4.696 4.716-9.1 7.226-12.903 2.495-3.8 5.173-7.034 8.034-9.295 2.828-2.284 5.816-3.573 8.406-3.914 2.6-.34 4.688.142 5.99.64.672.254 1.11.488 1.447.678.34.18.504.29.504.29.44.294 1.038.18 1.333-.265.293-.438.178-1.034-.266-1.33-.094-.06-.19-.105-.293-.134l-.064-.017s-.78-.196-2.258-.564c-1.473-.324-3.672-.84-6.525-.652-2.844.148-6.3 1.182-9.643 3.34-3.355 2.133-6.672 5.166-9.855 8.775-3.19 3.62-6.302 7.804-9.202 12.417-.47.727-1.304 2.223-2.265 4.008-.96-1.785-1.795-3.28-2.264-4.008-2.903-4.613-6.015-8.797-9.2-12.418-3.188-3.61-6.503-6.645-9.857-8.776-3.348-2.158-6.8-3.19-9.646-3.34-2.852-.187-5.05.328-6.525.652l-2.255.563-.063.016c-.104.028-.205.073-.297.133-.438.296-.558.892-.262 1.33.294.443.89.56 1.332.265 0 0 .163-.11.497-.29.346-.188.78-.423 1.453-.677 1.304-.498 3.39-.98 5.986-.64 2.593.34 5.58 1.63 8.41 3.914 2.857 2.26 5.537 5.496 8.035 9.295 2.51 3.806 4.83 8.207 7.226 12.904 1.28 2.53 2.562 5.148 3.884 7.83-.896 1.744-1.653 3.236-2.05 4.033-2.642 5.19-10.02 22.244-17.898 31.52-1.937 2.282-3.757 4.646-6.016 6.44-2.24 1.79-4.784 3.146-7.528 3.525-2.848.424-5.733.288-8.287-.74-2.544-1.015-4.663-2.955-5.955-5.373-1.31-2.406-1.9-5.22-1.62-7.822.31-2.62 1.455-5.088 3.116-6.967 1.65-1.88 3.855-3.156 6.152-3.545 2.29-.434 4.577-.01 6.312 1.142 1.748 1.145 2.872 2.943 3.366 4.742.668 2.42-.008 6.86-3.73 7.984-3.722 1.116-3.924-1.322-2.95-2.13.78-.645 1.594-1.094 1.594-2.934 0-1.845-1.492-3.337-3.333-3.337-1.624 0-3.65 1.158-3.67 4.197-.02 3.896 2.353 5.662 3.853 6.238 1.486.56 3.314.807 5.233.21 3.523-1.097 6.44-5.483 5.07-10.774-.6-2.313-2.165-4.467-4.38-5.85-2.2-1.396-5.062-1.82-7.706-1.246-2.665.543-5.218 2.03-7.078 4.193-1.875 2.15-3.112 4.922-3.466 7.885-.19 1.51-.112 3.006.17 4.502.297 1.48.737 2.96 1.424 4.354zM273.943 7.99l.162-.17c.78-.807 1.964-.98 2.816-.98.2 0 .376.012.508.026V8.95c-1.798.508-3.127 2.146-3.127 4.104 0 2.282 1.802 4.14 4.055 4.26.57-.002 1.183-.117 1.77-.285 1.604-.614 2.74-2.16 2.74-3.976 0-1.95-1.314-3.58-3.104-4.095l.022-2.095c.133-.016.31-.025.504-.025.855 0 2.04.17 2.82.98l.164.17.32-.216.02-.2V3.323l-.192-.023-.213-.08-.13.135c-.31.324-.694.526-1.095.678-.104.04-.205.094-.31.125-.15.04-.306.06-.462.09-.092.015-.19.04-.28.05-.23.03-.452.034-.66.034-.196 0-.362-.004-.505-.02-.035-.543-.117-2.6.85-3.795.062-.045.078-.18.027-.324l-.055-.205h-.04l-.02-.014-1.926.004-1.93-.004-.013.014h-.04l-.058.205c-.048.145-.033.28.026.324.97 1.196.888 3.252.848 3.795-.14.01-.304.02-.498.02-.364 0-.783-.043-1.207-.135-.574-.13-1.188-.373-1.677-.873l-.074-.045-.388.044v4.254l.02.2.33.212zm-4.76 33.505h7.548l.192-.828h-8.045l.307.828zm-9.47 0h5.88l.087-.828h-6.415l.45.828zm31.86 0h5.877l.447-.828h-6.414l.09.828zm-11.108 0h7.547l.307-.828h-8.048l.193.828zM.805 190.74h556.812c.44 0 .81-.493.81-1.103 0-.617-.366-1.11-.81-1.11H.805c-.444 0-.806.493-.806 1.11 0 .61.36 1.104.805 1.104zm224.798-92.406c-1.798-4.44-2.61-12.396-.042-19.63 1.133-3.187 2.983-6.08 5.174-8.577 4.41-4.99 10.27-8.328 16.288-9.81 6.023-1.53 12.212-1.23 17.567.464 5.384 1.687 9.853 4.763 13.19 8.2.287.3.56.602.83.902.274-.3.544-.604.83-.902 3.338-3.438 7.81-6.514 13.194-8.2 5.354-1.694 11.545-1.993 17.566-.462 6.018 1.48 11.88 4.816 16.287 9.81 2.19 2.497 4.04 5.39 5.174 8.577 2.57 7.232 1.76 15.188-.044 19.63 0 0-1.564 5.102-5.096 8.446-4.8 4.554-11.564 6.638-17.615 5.192-3.02-.7-5.78-2.354-7.684-4.697-.964-1.168-1.675-2.39-2.235-3.744-.553-1.34-.863-2.788-.887-4.214-.076-2.893.86-6.01 2.516-8.037 1.662-2.026 3.625-3.392 6.354-4.083 2.426-.615 5.15-.227 7.096 1.174 1.96 1.358 3.11 3.612 3.11 5.786-.01 2.223-1.04 4.238-2.433 5.336-1.49 1.176-3.222 1.754-4.763 1.68-1.555-.06-2.916-.618-3.883-1.457-.818-.682-1.27-1.604-1.44-2.438-.024-.1-.038-.205-.052-.314-.01-.06-.03-.127-.03-.184-.005-.026.003-.046.003-.065 0-.03-.008-.06-.008-.09 0-1.53 1.238-2.768 2.77-2.768 1.525 0 2.766 1.236 2.766 2.768 0 .85-1.107 2.508-.047 2.638 1.113.135 2.396-.3 3.408-1.216 1.01-.897 1.834-2.32 1.834-3.89.03-1.562-.785-3.267-2.27-4.33-1.466-1.087-3.595-1.556-5.614-1-1.98.526-3.998 1.704-5.45 3.51-1.44 1.813-2.263 4.512-2.157 6.926.1 2.407 1.223 4.838 2.906 6.778 1.67 1.897 4.074 3.204 6.678 3.684 5.24.963 11.05-1.192 14.745-5.233 2.682-2.932 3.658-7.32 3.658-7.32.738-2.917.797-7.032.693-8.427-.39-5.59-2.69-10.795-6.258-14.896-3.547-4.134-8.355-7.07-13.396-8.683-5.05-1.62-10.387-1.824-15.188-.71-4.822 1.09-9.02 3.56-12.236 6.548-.352.332-.69.666-1.027 1 .6.787 1.18 1.605 1.657 2.418 1.13 1.914 1.938 3.904 2.35 5.87.818 3.938.14 7.702-1.807 10.143-1.143 1.426-2.814 2.032-3.97 2.032-1.323 0-2.746-.522-3.974-2.032-1.962-2.427-2.625-6.203-1.807-10.144.41-1.966 1.223-3.956 2.35-5.87.48-.812 1.058-1.63 1.654-2.418-.33-.334-.677-.668-1.028-1-3.214-2.99-7.412-5.46-12.236-6.547-4.8-1.115-10.14-.91-15.188.71-5.038 1.61-9.847 4.548-13.395 8.682-3.563 4.1-5.867 9.305-6.255 14.896-.1 1.395-.045 5.51.693 8.428 0 0 .975 4.39 3.66 7.32 3.693 4.042 9.504 6.197 14.743 5.234 2.603-.48 5.01-1.785 6.68-3.683 1.685-1.94 2.807-4.37 2.904-6.777.104-2.414-.718-5.11-2.157-6.927-1.453-1.805-3.473-2.98-5.45-3.51-2.02-.555-4.146-.086-5.617 1.002-1.483 1.062-2.3 2.77-2.27 4.328.004 1.57.824 2.992 1.832 3.89 1.01.917 2.295 1.335 3.41 1.217.947-.1-.062-1.79-.062-2.638 0-1.53 1.24-2.768 2.768-2.768 1.456 0 2.638 1.127 2.745 2.553.01.02.006.055.01.084.008.04.018.08.018.13 0 .005-.005.007-.005.016.005.05.016.086.01.142-.005.125-.04.254-.064.39v.02c-.15.853-.605 1.813-1.462 2.526-.962.838-2.32 1.396-3.88 1.457-1.54.074-3.27-.504-4.762-1.68-1.392-1.1-2.423-3.113-2.428-5.336-.006-2.176 1.146-4.43 3.105-5.786 1.944-1.4 4.67-1.79 7.1-1.174 2.728.69 4.69 2.057 6.353 4.082 1.65 2.026 2.593 5.145 2.513 8.036-.023 1.427-.335 2.873-.89 4.216-.557 1.354-1.272 2.575-2.235 3.743-1.9 2.345-4.658 3.998-7.684 4.697-6.05 1.444-12.816-.64-17.616-5.19-3.522-3.347-5.09-8.45-5.09-8.45zm51.723-22.585c-1.07 1.66-1.845 3.37-2.267 5.054-.873 3.332-.364 6.354 1.126 8.37.663.886 1.605 1.3 2.427 1.3.645 0 1.764-.414 2.422-1.3 1.492-2.017 2-5.038 1.135-8.37-.426-1.684-1.197-3.395-2.27-5.055-.392-.604-.826-1.18-1.287-1.75-.46.57-.894 1.146-1.287 1.75zm-121.24 219.82c-.625-.454-1.288-.855-2-1.192-.714-.344-1.382-.693-2-1.062-.622-.365-1.14-.783-1.546-1.252-.417-.465-.62-1.037-.62-1.725 0-.85.262-1.517.785-1.99.52-.47 1.21-.714 2.068-.714.52 0 1.013.035 1.477.1.464.076.847.17 1.148.3l1 3.43h.65c.064-.282.133-.612.197-.98.07-.384.13-.77.188-1.173.06-.395.106-.783.148-1.158.04-.373.063-.703.063-.986-.48-.235-1.146-.435-1.987-.587-.842-.162-1.77-.236-2.792-.236-.78 0-1.485.104-2.123.31-.636.208-1.177.507-1.636.892-.46.378-.814.847-1.062 1.4-.254.548-.376 1.173-.376 1.87 0 .967.202 1.773.61 2.418.408.64.92 1.186 1.525 1.65.608.453 1.272.857 1.99 1.188.715.336 1.378.68 1.985 1.02.608.356 1.12.753 1.523 1.202.41.45.615 1.008.615 1.676 0 .504-.1.947-.303 1.344-.2.39-.474.723-.812.994-.34.28-.743.482-1.21.623-.47.146-.97.217-1.503.217-.633 0-1.108-.068-1.426-.217-.314-.14-.573-.31-.773-.508l-1.027-3.68h-.647c-.066.29-.135.63-.204 1.023-.066.4-.126.814-.184 1.238-.062.43-.11.842-.15 1.242-.04.398-.07.742-.092 1.02.35.285.947.553 1.78.805.83.252 1.77.377 2.82.377.95 0 1.8-.115 2.552-.354.753-.23 1.384-.564 1.902-1.002.52-.432.913-.957 1.185-1.566.277-.625.417-1.31.417-2.06 0-.917-.204-1.685-.62-2.304-.4-.617-.914-1.152-1.535-1.597zm11.432 7.26c-.45.044-.83.065-1.122.065-.636 0-1.112-.213-1.432-.62-.314-.413-.476-1.12-.476-2.118v-7.215h3.752v-1.305h-3.752v-3.273h-.623c-.283.115-.57.254-.862.414-.294.16-.546.316-.764.482v2.13c-.703.17-1.37.464-2 .878v.674h2v7.918c0 1.262.264 2.176.787 2.736.523.562 1.287.85 2.29.85.383 0 .757-.045 1.123-.156.37-.096.706-.22 1.015-.367.31-.148.58-.31.826-.48.243-.163.432-.323.563-.476l-.172-.375c-.314.12-.7.196-1.152.237zm355.28-84.143c.08-1.228 1.09-2.203 2.34-2.203.022 0 .044.007.07.007l.01-.006 12.868.017c.89 0 1.68 0 2.41.057.04 0 .082-.007.125-.007 5.608 0 10.165 4.488 10.282 10.072.068.02.137.035.207.053.228.043.458.033.667-.057.453-.193.803-.722.803-1.666 0-2.606-.705-11.46-.713-11.55 0-.014-.004-.05-.004-.07-.04-.32-.273-1.652-1.768-1.652l-44.824-.007c-1.274.017-2.626.386-2.946 1.054-.05.1-.074.198-.074.31 0 .006.006.01.006.016 0 .115.02.216.05.306.01.034.028.06.052.094.02.055.05.1.08.145.213-.015.428-.03.645-.03 2.396 0 4.516 1.152 5.857 2.93.006.004.016.014.02.02l.01.01c.02.026.043.044.06.073.05.062.1.13.15.197.005.012.01.02.02.03.03.046.06.1.09.147.07.107.144.22.21.326.074.14.146.285.21.44.04.075.08.134.112.218.355.8.57 1.677.62 2.59.188 1.42.255 3.185.255 5.392v.17l.004 2.578v7.493l.007 4.99-.006 3.57-.003 11.663c0 2.36-.08 4.2-.303 5.674-.076 1.244-.473 2.404-1.09 3.402 0 0 0 .004-.006.004-.11.18-.23.354-.354.523-.055.08-.12.147-.182.224-.07.096-.143.186-.223.27-1.347 1.525-3.313 2.488-5.505 2.488-.244 0-.48-.016-.713-.035-.035.096-.06.2-.062.318 0 .016-.012.02-.012.035 0 .898 1.605 1.307 3.098 1.307.334 0 .64-.02.86-.06.022 0 .046-.005.062-.01.1-.005.2-.02.285-.034.428-.076.852-.13 1.28-.195 2.886-.434 5.862-.695 8.897-.764 3.615.076 7.152.414 10.53 1.004.226.04.532.06.866.06.533 0 1.062-.07 1.54-.18.067-.015.147-.024.208-.04.316-.09.607-.19.83-.33.31-.2.516-.447.516-.758 0-.14-.027-.248-.07-.354-.148.01-.305.016-.46.02 0-.004 0-.014-.003-.02-.17.016-.344.018-.52.023-3.815-.126-6.896-3.163-7.09-6.958-.17-1.14-.25-2.502-.286-4.14-.003-.474-.01-.958-.01-1.476v-.68l-.003-.033v-1.87l-.006-8.856c.01-.055.017-.277.017-.277.064-.855.77-1.535 1.646-1.535h3.61c3.04 0 5.69 1.637 7.14 4.068.016.023.03.055.05.084.065.113.136.232.198.357.015.023.02.057.038.086.09.168.17.346.24.527.04.105.076.217.11.33.063.18.12.348.16.537.06.3.095.604.1.924-.005.094-.005.19-.015.283h.016v.046c-.007.096-.01.19-.017.28.074.032.154.046.252.046.102 0 .19-.037.277-.086.014-.016.027-.025.045-.035.08-.06.145-.14.2-.23.01-.003.01-.003.013-.01l.006-.003c.053-.086.098-.19.135-.295.036-.088.065-.184.09-.28.003-.003.003-.003.005-.01v-.003c.104-.368.156-.8.16-1.23v-.016c0-.23-.016-.447-.045-.607 0-.016-.004-.03-.008-.04-.006-.073-.014-.145-.02-.198-.01-.036-.017-.07-.02-.106-.07-.45-.126-.906-.188-1.365-.088-.657-.17-1.315-.23-1.98l-.03-.407c-.05-.54-.085-1.082-.11-1.63-.02-.308-.037-.597-.05-.855-.003-.056-.003-.1-.01-.146l-.01-.336c-.005-.076-.005-.137-.005-.2s-.005-.134-.005-.192c0-.062.004-.137.004-.2s0-.124.003-.194l.012-.338c.006-.05.006-.096.01-.145.012-.268.027-.55.05-.857.024-.55.06-1.094.108-1.63.014-.136.02-.272.03-.41.063-.663.146-1.327.23-1.98.063-.455.118-.918.19-1.367.002-.035.008-.064.018-.102.01-.06.02-.124.022-.198.004-.016.008-.027.008-.037.03-.166.045-.383.045-.613v-.01c-.004-.432-.06-.86-.16-1.232v-.006s-.002-.004-.004-.004c-.022-.1-.054-.195-.09-.285-.036-.104-.08-.203-.134-.29 0-.003-.006-.003-.006-.003-.002-.01-.004-.01-.012-.01-.057-.1-.12-.17-.2-.227-.02-.02-.032-.03-.046-.04-.088-.062-.178-.09-.277-.09-.098 0-.178.017-.252.044l.016.284v.04c-.007.005-.01.005-.017.005.01.095.01.187.016.282-.007.312-.042.62-.1.918-.042.188-.1.36-.16.543-.036.107-.07.22-.112.33-.07.182-.15.357-.24.53-.018.026-.023.058-.037.08-.06.126-.132.245-.196.36-.02.03-.035.055-.05.08-1.452 2.432-4.1 4.068-7.14 4.068l-3.61.003c-.876 0-1.58-.676-1.647-1.535-.006-.043-.016-.082-.016-.127l.01-17.233c0-.014-.003-.014-.003-.03l.004-.138.02-.013zM190.85 302.83c-.454.044-.828.065-1.127.065-.636 0-1.107-.213-1.426-.62-.32-.413-.476-1.12-.476-2.118v-7.215h3.753v-1.305h-3.752v-3.273h-.624c-.285.115-.57.254-.863.414-.297.16-.55.316-.763.482v2.13c-.7.17-1.37.464-2.002.878v.674h2.002v7.918c0 1.262.262 2.176.788 2.736.526.562 1.286.85 2.286.85.384 0 .76-.045 1.127-.156.365-.096.707-.22 1.016-.367.31-.148.583-.31.825-.48.24-.163.43-.323.563-.476l-.174-.375c-.32.12-.7.196-1.15.237zm-10.308-.162l1.728.244v.527c-.42.214-.878.41-1.386.573-.506.17-.998.295-1.467.385h-.62c-.167-.39-.27-.81-.3-1.27-.04-.46-.063-.964-.08-1.513h-.12c-.07.334-.198.674-.392 1.012-.188.344-.438.648-.753.912-.31.267-.668.483-1.084.65-.417.163-.89.253-1.43.253-1.01 0-1.84-.31-2.485-.928-.64-.613-.96-1.422-.96-2.424 0-.767.15-1.4.462-1.89.31-.488.76-.877 1.36-1.164.603-.28 1.345-.486 2.228-.61.887-.124 1.91-.224 3.074-.29.067-.717.09-1.36.064-1.94-.026-.57-.116-1.06-.275-1.47-.155-.412-.39-.725-.698-.953-.307-.223-.713-.334-1.212-.334-.232 0-.5.01-.793.034-.29.025-.578.096-.858.21l-1.176 3.005h-.646c-.17-.503-.316-1.02-.44-1.55-.126-.54-.208-1.066-.237-1.582.634-.385 1.337-.68 2.113-.9.772-.21 1.637-.32 2.59-.32.847 0 1.526.12 2.037.36.51.243.895.558 1.162.937.266.39.438.812.523 1.277.085.47.13.934.13 1.406 0 .996-.03 1.96-.065 2.88-.045.93-.063 1.815-.063 2.665 0 .367.01.688.023.95.016.27.03.56.047.855zm-2.198-4.578c-.968 0-1.76.05-2.37.15-.625.1-1.105.258-1.46.475-.35.217-.587.486-.724.816-.135.325-.197.694-.197 1.108 0 .717.185 1.27.55 1.664.362.395.87.59 1.5.59.417 0 .783-.08 1.104-.25.312-.17.58-.37.795-.604.22-.234.396-.475.528-.707.132-.245.227-.452.274-.608v-2.632zm313.46-57.188V241.112c-.104 17.872-13.083 30.353-31.56 30.353-18.475 0-31.453-12.48-31.557-30.354v-.208c.104-17.87 13.082-30.353 31.557-30.353 18.477 0 31.455 12.482 31.56 30.352zm-13.907 0c0-21.676-9.6-26.223-17.652-26.223-8.05 0-17.645 4.546-17.645 26.222 0 17.644 5.77 26.22 17.645 26.22 11.88 0 17.652-8.58 17.652-26.22zm-346.863 54.61H.79c-.436 0-.79.494-.79 1.11 0 .61.355 1.106.79 1.106h130.243c.432 0 .785-.494.785-1.105 0-.617-.353-1.11-.784-1.11zm-51.218-33.64c-.244 3.84-3.432 6.88-7.333 6.88-.246 0-.49-.01-.73-.034-.046.11-.076.234-.076.38 0 .907 1.604 1.313 3.098 1.313.332 0 .64-.02.864-.06 3.352-.59 6.888-.923 10.518-1l.762.013c5.02.035 9.896.31 14.61.572 3.668.205 5.69.398 8.86.46.39.01.805.01 1.228.01 7.075 0 15.197-1.422 15.197-12.52 0-2.507-.56-4.888-1.715-7.398-.133-.295-.5-.555-.917-.555-.175 0-.438.108-.438.108s.148.522.22 1.502c.622 8.646-6.866 14.002-15.13 14.002-.042 0-9.397.334-12.294-.514-2.04-.59-3.207-1.597-3.79-3.252l-.034-.113-.027-.11c-.23-.957-.366-2.056-.432-3.404l-.05-2.652v-10.51c.18-1.33.84-2.125 1.823-2.29v-.034h1.298c2.55 0 4.09 0 6.02 1.93 1.567 1.566 2.317 2.902 2.866 3.88.312.55.557.987.84 1.272.584.592 1.6.407 1.6-.988 0-.817-.128-2.475-.248-4.073-.13-1.694-.264-3.444-.264-4.373s.134-2.685.264-4.373c.12-1.605.247-3.257.247-4.08 0-1.395-1.015-1.566-1.598-.986-.284.29-.528.724-.84 1.276-.55.972-1.3 2.31-2.87 3.873-1.932 1.937-3.47 1.937-6.02 1.937h-.904c-1.203 0-2.01-.82-2.213-2.254l-.002-4.696v-5.275c0-8.66 0-9.375 6.632-9.375h8.67c.89 0 1.68.01 2.41.062.043-.006.08-.008.124-.008 5.61 0 10.163 4.49 10.288 10.07.772.292 1.675-.15 1.675-1.667 0-2.606-.703-11.46-.708-11.553-.016-.177-.174-1.722-1.774-1.722H97.94c-.31-.017-.542-.017-.77 0H75.175c-.142-.01-.267-.01-.4-.01-1.49 0-3.097.407-3.097 1.307 0 .247.075.438.2.59.213-.02.432-.03.65-.03 2.392 0 4.516 1.148 5.855 2.922.344.4.633.877.855 1.438.356.8.573 1.672.622 2.588.187 1.428.254 3.188.254 5.387l.007 15.238-.006 15.23c.005 2.35-.08 4.197-.298 5.67z"/></svg>